<?xml version="1.0" encoding="UTF-8" standalone="no"?>
<svg
   xmlns:dc="http://purl.org/dc/elements/1.1/"
   xmlns:cc="http://creativecommons.org/ns#"
   xmlns:rdf="http://www.w3.org/1999/02/22-rdf-syntax-ns#"
   xmlns:svg="http://www.w3.org/2000/svg"
   xmlns="http://www.w3.org/2000/svg"
   xmlns:sodipodi="http://sodipodi.sourceforge.net/DTD/sodipodi-0.dtd"
   xmlns:inkscape="http://www.inkscape.org/namespaces/inkscape"
   inkscape:version="1.0 (4035a4fb49, 2020-05-01)"
   sodipodi:docname="Einmalohnebitte_FIN.svg"
   viewBox="0 0 421.41333 421.41333"
   height="421.41333"
   width="421.41333"
   xml:space="preserve"
   id="svg867"
   version="1.1"><metadata
     id="metadata873"><rdf:RDF><cc:Work
         rdf:about=""><dc:format>image/svg+xml</dc:format><dc:type
           rdf:resource="http://purl.org/dc/dcmitype/StillImage" /><dc:title /></cc:Work></rdf:RDF></metadata><defs
     id="defs871" /><sodipodi:namedview
     inkscape:current-layer="g877"
     inkscape:window-maximized="1"
     inkscape:window-y="0"
     inkscape:window-x="0"
     inkscape:cy="210.70667"
     inkscape:cx="210.70667"
     inkscape:zoom="1.8485414"
     showgrid="false"
     id="namedview869"
     inkscape:window-height="1016"
     inkscape:window-width="1920"
     inkscape:pageshadow="2"
     inkscape:pageopacity="0"
     guidetolerance="10"
     gridtolerance="10"
     objecttolerance="10"
     borderopacity="1"
     bordercolor="#666666"
     pagecolor="#ffffff"
     inkscape:document-rotation="0" /><g
     transform="matrix(1.3333333,0,0,-1.3333333,0,421.41333)"
     inkscape:label="ink_ext_XXXXXX"
     inkscape:groupmode="layer"
     id="g875"><g
       transform="scale(0.1)"
       id="g877"><path
         id="path881"
         style="fill:#ec008c;fill-opacity:1;fill-rule:nonzero;stroke:none"
         d="m 2297.22,820.941 c 3.89,8.891 3.85,30.219 0.49,32.938 -1.07,0.883 -2.19,2 -2.19,2 -0.41,0.992 -0.56,4.383 -0.56,4.383 0,0 0,0 -2.3,33.648 -2.25,33.621 -86.04,88.891 -86.04,88.891 0,0 1.54,15.308 -5.3,29.009 -6.82,13.68 -41.41,14.31 -54.56,9.74 -5.89,-2.06 -3.98,6.84 -3.98,6.84 v 6.86 l -9.68,6.81 c 0,0 5.71,23.39 -7.4,30.79 -9.41,5.34 -28.96,-4.52 -34.06,-7.28 -3.06,2.87 -13.56,10.82 -43.46,31.25 -35.81,24.39 -57.64,36.45 -111.13,44.61 -58.72,8.93 -224.55,-20.69 -386.99,-53.19 -162.45,-32.49 -337.99,-45.59 -392.69,-99.15 -17.59,-17.199 -12.55,-47.879 -13.1,-54.168 -0.59,-6.25 -10.84,-14.25 -10.84,-32.481 0,-11.25 10.62,-30.73 19.03,-44.953 24.49,-34.617 125.25,-170.867 185.59,-216.629 68.54,-51.988 215.05,-26.879 216.53,-26.64 18.39,3.242 578.24,140.902 708.61,175.332 6.36,2.691 25.6,12.121 34.03,31.39" /><path
         id="path883"
         style="fill:#ec008c;fill-opacity:1;fill-rule:nonzero;stroke:none"
         d="m 1473.11,593.082 c -46.66,0 -102.7,6.859 -139.17,34.539 -51.46,39.02 -131.79,142.828 -170.44,195.238 2.31,-27.058 7.44,-102.07 9.82,-113.429 2.85,-13.711 42.74,-59.871 45.04,-63.871 2.28,-3.95 -4.01,-8.528 -6.28,-11.387 -2.29,-2.852 10.82,-26.25 26.79,-49.031 15.95,-22.782 35.32,-26.782 35.32,-26.782 l 7.42,2.852 c 0,0 -18.24,49.039 33.64,-49.602 51.86,-98.57 125.38,-98.57 176.07,-100.308 50.76,-1.692 225.18,57.008 344.28,87.211 119.11,30.207 357.32,91.797 387.55,119.148 33.92,30.68 37.55,129.738 37.89,156.488 C 2123.38,737.98 1574,602.922 1555.75,599.719 c -2.97,-0.539 -38.64,-6.637 -82.64,-6.637" /><path
         id="path885"
         style="fill:#00adef;fill-opacity:1;fill-rule:nonzero;stroke:none"
         d="m 2683.26,2411.89 c -0.18,8.63 -276.02,9.49 -276.02,9.49 l -7.07,30.03 -25.23,74.92 -38.19,76.81 -3.05,45.18 c 0,0 -43.51,126.27 -45.87,136.98 -2.39,10.73 -23.87,8.12 -23.87,8.12 l -23.27,-21.98 -70.54,-29.44 c 0,0 -36.16,-22.3 -67.51,-70.32 -31.33,-48.06 -44.37,-257.36 -44.37,-257.36 l -116.13,-13.11 c 0,0 21.7,-432.7 22.26,-460.72 0.58,-28.01 3.93,-301.6 4.11,-310.2 0.22,-8.64 301.66,1.76 316.7,4.24 15.05,2.44 381.07,16.32 391.81,18.68 10.71,2.39 -5.16,256.33 -5.67,280.03 -0.45,23.71 12.08,470.03 11.91,478.65 m -323.42,8.54 -252.08,-2.96 c 0,0 3.29,157.4 7.29,172.54 4.02,15.18 -1.53,77.58 11.17,88.61 12.7,11.03 37.88,43.84 48.66,44.09 10.77,0.18 48.92,31.12 48.92,31.12 l 40.44,26.69 17.2,0.32 c 0,0 25.08,-68.41 25.25,-77.03 0.18,-8.63 0.65,-32.31 0.65,-32.31 0,0 -16.87,-17.59 -7.54,-51.89 9.3,-34.27 29.12,-55.43 29.38,-68.38 0.27,-12.91 30.66,-130.8 30.66,-130.8" /><path
         id="path887"
         style="fill:#00adef;fill-opacity:1;fill-rule:nonzero;stroke:none"
         d="m 2200.46,2417.2 21.42,112.47 c 0,0 45.91,74.22 56.27,93.81 10.39,19.62 14.23,43.4 14.23,43.4 l 54.74,63.62 c 0,0 61.44,50.81 70.15,46.66 8.71,-4.15 69.98,-50.32 69.98,-50.32 0,0 28.71,-33.91 33.62,-63.98 4.93,-30.06 28.2,-115.77 30.54,-124.35 2.32,-8.56 13.57,-32.02 13.8,-42.81 0.19,-10.77 -7.14,-73.43 -7.14,-73.43 l -38.76,-0.78 c 0,0 20.32,60.76 19.93,77.97 -0.35,17.22 -33.17,150.17 -33.17,150.17 l -33.77,70.44 c 0,0 -30.92,38.19 -50.14,29.17 -19.24,-9 -55.83,-9.78 -63.92,-35.77 -8.1,-26.04 -22.72,-50.01 -22.72,-50.01 l -72.66,-135.08 -17.21,-108.11" /><path
         id="path889"
         style="fill:#fff200;fill-opacity:1;fill-rule:nonzero;stroke:none"
         d="m 685.867,2398.47 c 118.406,3.62 195.321,11.63 235.387,16.92 2.168,0.65 4.082,1.46 5.484,2.55 7.133,5.52 4.285,41.8 2.867,50.35 -1.437,8.54 -21.375,9.98 -21.375,9.98 0,0 -3.328,9.96 -12.832,12.81 -41.863,12.56 -235.089,12.83 -235.089,12.83 l -6.188,-0.23 c 0,0 -171.84,-3.34 -213.695,-15.91 -9.512,-2.86 -12.824,-12.84 -12.824,-12.84 0,0 -19.957,-1.41 -21.375,-9.97 -1.422,-8.54 -4.274,-44.8 2.851,-50.33 1.164,-0.92 2.652,-1.59 4.34,-2.11 55.836,-7.68 154.352,-17.65 272.449,-14.05" /><path
         id="path891"
         style="fill:#fff200;fill-opacity:1;fill-rule:nonzero;stroke:none"
         d="m 936.246,2286.96 c 0,4.72 2.309,4.95 2.715,12.09 0.336,5.76 1.09,19.71 -2.473,26.75 -5.828,11.51 -29.687,25.74 -35.39,30.01 -5.7,4.27 -7.285,10.04 -8.547,15.89 -1.891,8.81 13.777,5.97 14.25,14.03 0.25,4.27 -7.098,5.7 -7.133,12.8 -43.84,-5.05 -114.145,-11.18 -213.613,-14.21 -17.188,-0.53 -33.989,-0.77 -50.274,-0.77 -81.976,0 -151.699,6.04 -200.183,11.9 -0.817,-6.47 -9.18,-9.93 -8.942,-13.99 0.457,-8.07 20.887,-3.05 18.989,-11.87 -1.258,-5.86 4.41,-9.51 -1.29,-13.78 -5.707,-4.27 -32.777,-23.4 -38.609,-34.92 -3.551,-7.03 -1.754,-24.84 -1.414,-30.61 0.402,-7.14 4.77,-13.34 4.77,-18.05 0,-8.56 -0.024,-488.22 -0.024,-488.22 0,0 -8.898,-21.96 5.703,-53.66 16.621,-36.1 52.59,-71.71 126.801,-85.49 38.852,-7.22 127.285,-5.83 127.285,-5.83 l 4.27,0.12 c 0,0 99.25,-1.75 137.258,9.03 70.289,19.94 107.554,37.42 128.925,90.13 13.121,32.34 0.879,56.14 0.879,56.14 0,0 -3.953,483.96 -3.953,492.51" /><path
         id="path893"
         style="fill:#ffffff;fill-opacity:1;fill-rule:nonzero;stroke:#000000;stroke-width:0.99750002;stroke-miterlimit:4;stroke-dasharray:none;stroke-opacity:1"
         d="m 2132.07,1829.03 0.54,0.27 -128.53,224.11 51.69,194.2 -122.28,-71.09 -156.8,273.4 -0.48,-0.27 c -69.88,112.52 -193.67,187.56 -335.18,187.56 -141.56,0 -265.35,-75.08 -335.25,-187.62 l -0.49,0.29 -128.505,-224.11 -192.93,-52 122.313,-71.1 -156.77,-273.38 0.489,-0.31 c -61.824,-117.17 -64.551,-262.67 6.207,-386.05 70.758,-123.38 197.273,-193.77 329.006,-198.42 v -0.61 h 257.01 L 1657.62,801.031 1483.33,1243.9 h 313.55 v 0.54 c 131.7,4.67 258.23,75.07 328.98,198.49 70.8,123.38 68.08,268.93 6.21,386.1" /><path
         id="path971"
         style="fill:#231f20;fill-opacity:1;fill-rule:nonzero;stroke:none"
         d="m 1069.14,2252.42 c 0.92,0.46 1.84,0.46 2.76,0.46 9.23,0 18.46,2.31 28.15,4.16 4.15,0.91 8.3,1.37 12.46,1.84 10.15,0.46 20.77,0.92 30.91,1.85 2.78,0 6,-0.93 8.77,0.45 1.39,0.46 2.77,-0.91 3.69,-1.38 -2.3,-10.15 -1.84,-19.84 0,-29.53 -1.38,-0.46 -3.23,-0.92 -4.61,-1.39 -3.69,-0.46 -7.38,-0.46 -11.07,-0.92 -7.39,-0.91 -14.77,-1.84 -22.15,-2.77 -8.31,-0.92 -16.15,-1.38 -24.46,-1.84 -1.85,0 -2.76,-0.92 -2.76,-2.77 -0.47,-5.08 -0.93,-10.15 -0.93,-15.69 0,-6.92 0,-13.38 0,-20.3 0.46,-5.54 0,-11.08 0.46,-16.61 0,-6.92 0.47,-13.85 0.47,-20.31 0,-6.46 -0.47,-12.45 -0.47,-18.46 0,-5.52 0,-11.07 0.47,-16.6 0,-6.46 0,-13.39 0,-20.31 0,-3.22 0,-6.46 0,-9.69 -0.47,0 -0.47,0 0,0 9.68,-0.46 18.91,-1.84 28.6,-0.92 2.77,0.46 5.54,0 7.85,0 6,0 11.99,0.46 17.99,0.46 1.39,0 2.77,-0.46 4.15,-0.46 2.31,-0.47 3.23,-1.84 3.23,-4.16 -0.46,-6.45 -0.46,-12.45 -0.92,-18.45 0,-2.31 -0.92,-3.23 -3.23,-3.23 -14.31,-1.38 -29.07,-1.84 -43.84,-1.84 -5.07,0.46 -10.14,0 -15.22,0 -0.46,-0.46 -0.92,-1.39 -0.92,-2.32 -0.47,-17.07 -0.47,-34.14 -0.47,-52.14 6,-0.91 11.54,-1.84 17.08,-2.3 11.54,-1.85 23.53,-1.39 34.6,-4.15 3.23,-0.93 6.47,-0.93 9.23,-1.39 3.23,-0.92 4.16,-2.3 3.69,-5.53 -0.46,-6.46 -1.38,-13.38 -1.84,-19.85 -0.46,-3.69 -0.46,-3.69 -3.7,-3.69 -6.45,-0.46 -12.92,-0.92 -19.37,-0.46 -4.62,0.92 -9.23,0.46 -13.85,0.46 -1.84,0 -3.23,-0.46 -5.07,0 -14.3,1.85 -28.61,1.39 -42.92,1.39 -1.38,0 -2.3,0 -3.22,0 -2.31,0 -3.23,0.92 -3.23,3.23 0,15.22 0,30.92 0.46,46.14 0,12.92 0.46,26.3 0.46,39.22 0.46,6 0,12 0.46,17.53 0.92,11.54 -0.92,22.62 -0.46,34.15 0.46,8.31 0.92,16.61 0.92,25.38 0,14.77 -0.46,29.53 -0.46,44.3 0,5.07 0.46,9.69 0.46,14.77 0,10.6 0,21.21 0,31.83 0,8.77 0,18 0,26.76 0,1.38 0,2.77 0.46,3.69 2.77,0.47 5.08,0.93 7.39,1.39" /><path
         id="path973"
         style="fill:#231f20;fill-opacity:1;fill-rule:nonzero;stroke:none"
         d="m 1169.71,1984.33 c 0,9.23 0,18.46 0.46,27.69 0,5.53 0,10.61 0,16.15 0.46,4.61 0,9.69 0,14.3 0,5.07 0.46,10.15 0.46,15.23 0,6.92 0,13.38 0,20.3 0,8.77 0,17.53 0.46,26.3 0.46,11.53 1.39,23.54 1.84,35.07 0.47,11.53 0.93,23.06 1.85,34.61 0.46,10.61 1.39,21.22 2.31,31.83 0.46,6.93 0.92,13.85 1.38,20.77 0,5.07 0,10.15 0,14.76 0,2.3 4.62,6.46 7.38,6.93 6.01,0.45 11.54,1.38 17.54,1.84 2.31,0.46 3.69,-0.46 3.23,-3.23 0,-6.45 -0.46,-12.45 -0.46,-18.46 0,-3.69 0,-6.92 0,-10.62 0,-3.69 0,-7.84 0,-11.53 0,-5.54 -0.46,-11.07 -0.46,-16.61 -0.46,-5.53 -0.46,-10.61 -0.46,-15.68 0,-6.93 0.46,-13.38 0.46,-20.3 0,-6.93 -0.46,-14.31 -0.46,-21.69 -0.46,-10.62 -0.46,-21.23 -0.46,-31.84 0,-12.46 0.92,-24.92 1.38,-36.91 0,-8.77 0.46,-17.07 0.46,-25.38 0.46,-13.38 0,-26.3 0.46,-39.68 0,-3.69 0.46,-7.39 0.46,-11.08 0,-6.92 -0.46,-13.84 -1.84,-20.77 -0.46,-2.76 -1.39,-3.69 -4.62,-3.69 -6.91,0 -13.38,-0.46 -20.3,-0.46 -3.69,0 -6.92,0.46 -11.07,0.46 0,7.84 0,14.77 0,21.69" /><path
         id="path975"
         style="fill:#231f20;fill-opacity:1;fill-rule:nonzero;stroke:none"
         d="m 1329.81,2079.39 c 0.46,9.22 0.46,17.99 0.93,27.22 0,5.07 0,10.61 0,16.15 0.46,8.77 1.38,17.53 1.84,26.3 0.46,9.68 0.46,18.92 0.92,28.14 0.46,7.85 0.93,15.69 1.39,23.53 0.46,3.7 0.46,6.93 0.46,10.62 0,7.84 0,15.23 0,22.61 0.46,2.77 0,6 0,8.77 0,1.84 0,4.15 0,6.46 9.23,2.31 17.99,1.84 27.68,2.77 0,-1.85 0,-3.24 0,-4.62 0.47,-17.07 0.93,-33.68 0.93,-50.29 0.46,-14.3 0.92,-28.61 0.92,-43.37 -0.46,-12.92 -0.46,-25.39 -0.92,-38.31 -0.46,-5.99 -1.39,-12 -1.39,-17.99 -0.46,-2.31 -0.46,-4.15 -0.46,-6.46 0,-11.07 -0.92,-21.69 -2.31,-32.76 -0.46,-1.85 -0.46,-3.69 -0.46,-5.54 -0.46,-7.38 -0.46,-14.76 -1.38,-22.61 -0.92,-10.61 -1.38,-21.23 -1.38,-31.83 0,-7.85 -0.47,-15.24 -0.93,-23.08 0,-3.69 -0.92,-6.92 -3.23,-9.69 -0.46,-0.92 -1.84,-2.31 -2.77,-2.31 -6.92,-0.46 -13.38,-0.46 -19.84,-0.92 -1.38,0 -2.76,0 -4.15,0.46 -19.38,74.29 -40.61,148.58 -63.21,222.41 -1.39,-3.23 -0.93,-6.46 -0.47,-9.69 0.93,-10.15 0.47,-19.84 0,-30 -0.92,-8.76 -0.46,-17.98 -0.46,-26.75 0,-11.55 0,-23.08 0,-34.61 0,-10.16 0,-20.31 0,-29.99 0,-5.54 -0.46,-10.62 -0.46,-15.7 -0.46,-7.38 -0.46,-15.22 -0.46,-22.6 0,-7.85 -0.46,-15.7 -0.46,-24 0,-4.15 0.46,-8.3 0,-12.92 0,-3.23 -0.47,-6.92 -0.93,-10.14 -0.46,-3.7 -3.23,-5.55 -6.46,-6.01 -6.46,-0.46 -12.92,-0.46 -19.83,-0.92 -3.24,0 -3.24,0.46 -3.7,3.69 -0.46,7.39 -0.92,15.23 -0.92,23.07 -0.46,10.62 -0.46,21.23 0,31.38 0,13.84 0.92,27.22 0.92,40.6 0.46,10.62 0.92,20.76 0.92,31.38 0,12 -0.46,23.99 0,36 0,15.68 0.47,30.9 0.93,46.14 0.46,13.84 1.38,27.23 1.85,41.06 0.45,6.46 1.38,12.92 2.3,19.39 0,2.3 0.92,4.61 0.46,6.91 -0.46,3.69 1.84,6 2.77,8.77 0,0.46 1.38,0.92 2.31,1.39 4.61,1.84 9.68,1.84 14.76,1.38 6,-0.92 12.46,-1.85 18.46,-2.31 2.77,0 3.69,-1.38 4.61,-3.69 4.16,-11.99 8.31,-24.45 12,-36.45 2.31,-6 4.15,-11.54 6,-17.54 1.38,-5.07 2.77,-9.68 3.69,-14.76 0.93,-6.92 3.69,-13.38 5.54,-20.3 1.38,-7.39 3.23,-14.77 5.07,-22.61 2.31,-10.16 4.62,-21.23 7.39,-31.38 2.3,-9.69 5.07,-19.38 7.84,-29.07 0.93,-2.31 1.84,-4.62 2.77,-6.92 0.46,0 0.46,0 0.92,0 0,4.16 0,7.85 0,11.54" /><path
         id="path977"
         style="fill:#231f20;fill-opacity:1;fill-rule:nonzero;stroke:none"
         d="m 1525.89,2202.13 c -2.77,-5.54 -5.53,-10.62 -8.31,-16.16 -3.22,-5.54 -5.07,-11.53 -6.92,-17.53 -2.76,-7.84 -5.53,-15.69 -8.3,-23.53 -1.85,-6.46 -4.15,-12.92 -6.46,-19.39 -0.92,-3.69 -2.31,-7.38 -3.23,-11.07 -0.93,-1.84 -1.84,-3.23 -4.62,-3.23 -6.45,-0.46 -12.92,-0.92 -19.37,-1.38 -3.24,-0.46 -6.47,-0.92 -9.7,-0.92 -1.84,0 -2.76,0.46 -2.76,2.3 -1.39,6 -2.31,12.47 -3.7,18.46 0,0.92 -0.45,2.31 -0.92,3.22 -1.84,6.47 -4.15,12.93 -6.46,19.39 -2.77,8.31 -5.99,16.61 -9.23,24.45 -4.61,9.7 -9.23,18.92 -13.84,28.62 -1.38,2.3 -2.77,4.15 -4.61,6.92 -1.39,-5.08 -0.46,-8.77 -0.46,-12.93 0,-6.46 0.46,-12.91 0.46,-19.38 0.46,-6.92 0.46,-13.84 0.92,-20.76 0,-5.08 0,-9.68 0,-14.76 0,-4.16 0,-8.77 0,-12.92 0,-10.62 0,-21.69 -0.46,-32.31 0,-3.69 -0.46,-6.92 0.46,-10.61 0.92,-1.84 0,-3.69 0,-6 0,-7.38 0.46,-14.76 0.92,-22.15 0.46,-6.91 1.85,-13.38 2.31,-19.84 0.46,-7.38 1.84,-14.3 0.92,-22.15 -0.92,-4.15 0.46,-8.3 0,-12.45 0,-4.62 -0.46,-9.7 0,-14.31 0,-5.53 0.92,-11.53 0.92,-17.54 0.47,-4.15 0,-8.3 0,-12.91 -10.61,-0.92 -21.22,-1.38 -31.83,-2.31 0,3.69 0,6.46 0,9.7 0,6.45 0,13.38 0,19.83 -0.46,2.77 -0.46,5.08 -0.93,7.38 -0.46,11.08 -0.92,22.15 -1.84,33.23 -0.93,9.69 -0.93,19.38 -0.93,29.07 -0.45,5.53 -0.45,11.07 -0.45,16.61 0,5.08 0.45,10.15 0,15.22 0,9.69 0,19.39 -0.47,28.62 0,8.77 0,17.07 0,25.84 -0.46,9.68 -0.92,19.37 -0.92,29.06 -0.46,11.54 0,23.54 0,35.08 0,10.6 0,21.22 0,31.37 0,2.31 0,5.07 0,7.38 0,1.85 1.39,2.31 2.77,2.77 10.61,0.92 21.22,1.39 31.84,-1.39 7.38,-1.84 14.76,-3.22 22.61,-4.61 1.84,-0.47 3.23,-0.92 3.69,-3.23 1.84,-5.54 4.15,-11.07 5.99,-16.15 4.16,-10.62 8.77,-21.22 12.92,-31.84 3.69,-9.22 7.39,-18.91 11.08,-28.6 0.46,-1.39 1.38,-2.77 2.31,-4.62 1.38,1.85 1.84,3.23 2.31,4.62 4.61,10.15 8.76,20.3 12.92,29.99 1.38,2.77 2.76,5.07 4.15,7.38 4.15,7.85 8.77,15.69 12.92,24 2.3,5.07 5.08,10.14 7.38,15.22 0.46,1.39 1.39,2.76 1.85,4.62 0.92,3.69 2.76,4.61 6.46,4.15 6,-1.38 11.53,-1.38 17.53,-0.46 3.69,0.46 7.84,0.92 12,1.38 1.84,0.46 3.22,-0.92 3.69,-2.77 0.92,-3.69 1.38,-7.37 2.31,-11.07 1.38,-8.77 2.76,-17.54 4.15,-26.3 0.92,-9.22 1.38,-18.92 1.84,-28.15 0.93,-12.46 1.85,-24.91 2.77,-37.37 0,-3.24 0,-6 0,-9.69 0,-9.23 0.47,-18.92 0.47,-28.16 0.46,-4.15 0.46,-8.3 0.46,-11.99 0.45,-12.46 1.38,-24.92 3.23,-36.91 0.46,-1.85 0,-3.69 0.46,-5.54 0.46,-5.08 0.92,-10.15 0.92,-15.22 0.92,-9.23 1.38,-18.93 1.85,-28.15 0.46,-4.16 1.38,-8.31 1.84,-12.46 0.46,-6.46 0.92,-12.46 1.85,-18.93 0,-2.3 0.46,-4.6 0.92,-6.91 0.46,-1.84 1.39,-3.23 0,-4.16 -0.92,-0.92 -2.77,-0.46 -4.15,-0.46 -1.85,0 -4.16,0.93 -6.47,0.46 -5.53,-0.46 -11.07,-1.38 -17.07,-2.3 -3.69,-0.46 -4.15,0.46 -5.07,4.62 -1.39,11.99 -2.31,23.52 -2.31,35.52 -0.46,12.46 -1.84,24.91 -2.77,36.92 -0.92,12 -2.31,23.53 -3.23,35.06 -1.38,12.92 -2.3,26.3 -3.23,39.22 -0.92,6 -1.38,12.46 -2.3,18.46 0,1.85 -0.47,3.69 -0.47,5.08 0.47,12.46 -1.38,24.45 -2.31,36.91 -0.91,7.85 -1.38,15.68 -2.3,23.54 0,3.22 -0.46,5.99 -1.39,10.14 -1.84,-3.23 -3.22,-5.53 -4.61,-7.83" /><path
         id="path979"
         style="fill:#231f20;fill-opacity:1;fill-rule:nonzero;stroke:none"
         d="m 1648.6,2161.52 c 10.15,-0.46 19.38,2.3 29.07,3.69 1.85,12.46 -1.84,47.53 -6,54.45 -6,0.46 -12,-1.39 -17.99,-3.23 -2.31,-18.46 -4.15,-36.46 -5.08,-54.91 z m 46.14,-194.26 c -2.76,28.14 -5.99,55.83 -8.3,83.97 -2.77,27.69 -4.62,55.83 -6.92,84.45 -11.54,1.38 -23.07,-0.46 -35.53,-0.46 -0.46,-3.69 -1.39,-7.38 -1.39,-11.08 -0.46,-3.23 -0.46,-6.46 -0.46,-9.69 -0.46,-9.22 -1.38,-17.99 -1.84,-26.76 -0.47,-9.23 -1.39,-18 -1.85,-27.23 -0.93,-13.84 -1.38,-28.14 -1.84,-42.45 -0.47,-10.61 -0.47,-21.22 -0.93,-31.83 0,-4.15 0.46,-4.62 -4.15,-5.54 -5.08,-1.39 -10.15,-2.78 -15.69,-2.31 -5.54,0.46 -7.38,-1.38 -10.61,1.39 0,5.07 0.92,4.61 0.46,7.38 -0.46,4.61 -0.46,9.69 -0.46,14.77 0,9.22 0,18.91 0.46,28.14 0.46,16.61 1.39,33.23 4.15,49.84 0.93,6.45 0.93,13.38 1.84,19.83 0.93,10.16 1.85,19.85 3.24,29.53 1.38,12 3.23,23.54 3.23,35.54 0.46,7.84 1.38,15.68 2.3,23.52 0.93,9.7 1.85,19.39 3.24,29.53 0.91,7.39 2.3,14.77 3.69,22.16 0.46,3.68 1.84,6.46 3.23,10.61 3.22,0 6.46,0 9.69,0 1.84,0 3.69,0 5.07,0.46 10.15,0.47 20.3,0 30.46,-0.46 6.92,-0.46 13.84,0.46 20.76,0.46 0.92,0 1.84,0.47 2.77,0.47 4.61,0 4.61,-0.47 5.54,-5.08 0.92,-5.54 2.3,-11.08 3.23,-17.07 1.84,-12.92 3.69,-26.31 6,-39.69 1.84,-11.99 3.22,-23.53 3.22,-35.53 0,-8.77 0.47,-17.99 0.93,-26.75 0,-7.39 0.92,-15.24 1.38,-22.62 0.46,-7.84 0.46,-15.23 0.92,-22.61 0.46,-11.07 1.39,-21.69 1.85,-32.76 0.46,-10.15 0.92,-20.76 0.92,-30.92 0.46,-6 0.46,-11.99 0.46,-17.53 0.46,-12 0,-23.53 0,-35.99 -9.68,0 -18.91,0 -29.07,2.31" /><path
         id="path981"
         style="fill:#231f20;fill-opacity:1;fill-rule:nonzero;stroke:none"
         d="m 1807.31,1997.71 c 7.84,-0.92 16.15,-0.46 24.45,-3.22 0,-1.86 0,-3.7 0,-6.01 0,-4.61 -0.46,-9.23 0,-13.84 0,-4.16 0,-7.38 -1.38,-11.07 -11.07,0 -21.68,0.46 -32.76,0 -10.15,-0.47 -20.76,0.46 -30.92,-1.39 -4.15,-0.46 -8.77,0 -12.92,0 -2.3,0 -3.23,0.92 -3.23,3.23 0,12 -1.38,24 -0.46,35.99 0.46,6 0,12 -0.46,18 0,7.84 0,16.15 -0.46,23.99 0,14.77 0.46,29.07 -0.92,43.38 -1.85,21.22 -1.85,41.98 -2.77,62.76 -0.47,9.68 -0.47,19.37 -0.47,29.06 -0.45,18.92 -1.38,37.38 -1.84,56.3 0,4.61 -0.46,9.22 -0.46,13.83 -0.46,2.31 2.77,4.62 5.54,4.62 3.23,0.46 6.92,0.46 10.15,0.92 5.07,0 10.15,0 15.69,0.46 3.69,0 4.15,-0.92 4.15,-5.07 -0.46,-9.69 0.93,-19.38 1.84,-29.07 0.47,-9.23 0.47,-18 0.93,-27.23 0,-4.15 0.46,-8.3 0.46,-12.92 0,-2.3 0.46,-4.61 0.46,-7.38 -0.46,-4.61 -0.92,-9.69 -0.92,-14.31 -0.46,-8.76 -0.46,-17.53 -0.93,-25.84 0,-5.99 0.47,-11.99 0,-17.98 0,-8.77 -0.46,-18 -0.46,-27.23 0,-5.54 0,-11.53 0.46,-17.54 0,-6 -0.46,-11.53 0,-17.53 0.47,-14.31 0.47,-29.07 0.93,-43.37 0.46,-3.23 0.92,-6.46 0.92,-9.7 8.77,-0.45 17.07,-0.91 25.38,-1.84" /><path
         id="path983"
         style="fill:#231f20;fill-opacity:1;fill-rule:nonzero;stroke:none"
         d="m 929.594,1713.23 c 0,8.3 -2.305,16.14 -4.614,23.99 -0.464,1.39 -0.921,2.76 -1.843,4.15 -5.539,9.23 -11.539,18.46 -22.614,22.61 -7.843,3.23 -15.683,6.92 -24.914,5.99 -11.074,-1.83 -17.996,-7.84 -21.687,-17.98 -4.152,-10.62 -6.461,-21.69 -7.844,-32.77 -0.926,-7.84 -2.308,-15.22 -3.691,-22.61 -0.926,-8.31 -2.309,-16.61 -3.692,-24.92 -0.465,-3.69 -1.386,-6.91 -1.843,-10.6 -0.93,-10.62 -1.848,-21.69 -2.774,-32.31 -0.918,-12.92 -1.383,-25.84 -1.383,-38.76 -0.465,-5.08 0,-10.14 0.465,-15.22 0.457,-6 0.918,-12 1.844,-17.54 0.918,-6 4.152,-10.61 8.301,-15.23 4.621,-4.61 10.156,-7.38 16.152,-10.14 8.309,-3.69 16.613,-6.47 25.84,-5.08 7.844,0.92 13.379,4.15 18.918,8.77 3.691,3.22 5.535,7.38 7.383,11.99 3.23,9.23 6,18.92 7.382,29.07 1.387,9.69 2.774,19.38 3.692,29.08 1.387,11.99 2.308,23.52 3.691,35.06 0.461,6 0.461,12 1.387,17.53 1.387,12.47 2.305,24.93 2.305,36.92 0,5.99 -0.918,11.99 -0.461,18 z M 807.32,1606.63 c 0,17.07 0.457,34.15 1.379,50.77 0.465,9.68 1.383,19.83 2.313,29.53 0.918,9.68 1.843,19.83 3.226,29.53 0.465,4.61 1.848,9.69 3.227,14.3 2.308,7.85 4.156,15.23 6.465,22.61 2.304,6.46 5.074,12.91 7.843,18.92 4.149,9.23 11.075,13.84 20.301,15.68 4.614,0.93 9.231,2.32 13.379,3.23 9.692,3.24 19.844,4.16 29.996,2.31 12.918,-1.85 24.457,-7.38 35.992,-13.84 6.457,-3.23 10.153,-9.23 13.379,-15.22 5.078,-10.62 7.383,-22.15 8.77,-33.69 0.922,-8.77 0.457,-18.46 0.457,-27.69 0.465,-4.15 0.93,-8.76 0.93,-12.92 -0.465,-10.15 -0.93,-20.3 -1.848,-30.45 -0.461,-11.07 -1.387,-22.15 -1.844,-33.22 -1.387,-16.61 -2.308,-33.22 -3.691,-49.38 -0.465,-6.46 -2.313,-12.92 -3.235,-18.91 -1.843,-13.85 -6.461,-27.23 -13.379,-39.69 -6.464,-11.99 -16.152,-20.76 -30.457,-23.07 -6.918,-0.92 -13.378,-1.84 -20.304,-2.31 -5.074,0 -10.61,1.39 -15.684,1.85 -8.769,0.92 -16.609,4.15 -23.992,7.39 -12.004,5.07 -20.77,13.83 -24.457,26.3 -1.383,3.69 -2.313,6.92 -3.691,10.14 -2.313,6.47 -2.313,13.38 -3.231,20.31 -0.465,6.92 -0.926,13.38 -1.387,20.3 h 0.461 c -0.461,9.23 -0.918,18.45 -0.918,27.22" /><path
         id="path985"
         style="fill:#231f20;fill-opacity:1;fill-rule:nonzero;stroke:none"
         d="m 1008.01,1690.62 c -0.92,-6.93 0,-13.85 0,-20.77 0,-4.61 0,-9.69 0,-14.77 0,-3.23 0,-6.45 0,-9.23 0,-6.45 0.46,-12.92 0.46,-19.37 0.93,-9.69 1.39,-19.85 1.85,-29.53 0.46,-8.77 0.46,-17.54 0.46,-26.31 -0.46,-8.76 0,-17.53 0,-25.84 0,-3.69 0.47,-7.38 0.47,-10.61 -0.47,-9.68 -0.47,-19.38 -0.93,-29.07 0,-0.93 -0.46,-1.39 -0.46,-2.3 -0.46,-1.85 -0.46,-4.15 -1.85,-6.01 -1.38,-2.3 -3.69,0 -5.99,-0.46 -6.004,-0.46 -12.465,-1.38 -18.461,-1.84 -1.844,0 -3.231,-0.46 -4.618,-0.46 -2.304,-0.46 -2.765,0.46 -2.765,2.76 -0.461,16.15 -0.461,32.76 -0.461,48.92 0,7.38 -0.465,14.76 0,22.14 0,15.23 0.461,30.46 0.461,46.15 0,6.92 -0.461,14.3 -0.461,21.69 -0.465,4.15 -0.465,8.3 -0.465,12.45 0,14.3 0,29.07 0,43.38 -0.461,12.92 -0.918,25.84 -0.918,38.76 0,13.83 0.918,28.14 0.918,42.45 0.465,2.77 0.465,5.99 0.926,8.77 0.461,3.22 1.383,3.22 4.152,1.84 0.922,-0.92 2.305,-1.38 3.231,-1.38 5.996,-0.93 11.992,-1.85 17.531,-2.77 2.31,-0.47 3.23,-1.85 3.23,-4.16 0,-5.53 0.46,-11.53 0.46,-17.53 0,-1.38 0,-3.23 0,-4.62 0.46,-10.14 1.39,-19.84 1.85,-29.53 0,-2.3 1.38,-2.76 3.23,-2.76 0.46,0 0.92,0 1.39,0 16.14,2.3 31.83,4.15 47.98,6 4.61,0.45 9.23,0.45 13.38,0.45 1.85,0 3.23,0.47 4.62,0.47 0.46,11.08 0.92,21.22 0.92,31.37 0,6.46 -0.46,12.93 -0.92,19.38 0,0.93 0.46,2.31 0.46,2.31 3.23,0 4.61,3.69 8.3,3.23 6,0 12,0.92 17.54,1.39 3.23,0 3.69,0 4.15,-3.23 0.46,-5.54 0.92,-11.54 1.85,-17.07 1.38,-7.85 0.92,-15.7 1.38,-23.54 0.46,-2.3 0.46,-4.15 0,-6 -0.46,-7.38 -0.46,-14.3 0,-21.23 0,-9.22 -0.92,-17.99 -0.92,-27.21 -0.46,-9.24 0,-18 0,-27.23 -0.46,-4.62 -0.46,-9.23 -0.92,-13.85 0,-7.38 0,-14.29 -0.47,-21.68 0,-8.31 -0.46,-16.15 -0.92,-24.46 0,-4.61 0,-8.76 -0.46,-13.38 -0.46,-11.53 -1.39,-23.07 -1.84,-34.61 -0.47,-8.3 -0.47,-17.07 -0.93,-25.38 0,-6.91 0,-13.38 0,-20.29 -0.46,-5.08 -1.38,-10.62 -1.85,-15.69 -0.46,-2.31 -1.84,-2.77 -3.69,-2.77 -7.84,0 -15.22,0 -23.07,0 -1.38,0 -2.77,0.92 -2.77,2.77 0,8.31 0,16.15 -0.46,24.45 0,1.38 0.46,2.77 0.46,4.15 0,13.85 0,27.23 0,41.07 0,4.15 -0.46,8.3 -0.46,12.92 0,2.31 0.46,4.61 0.46,6.93 0,12.45 0,24.91 0.47,36.91 0,5.53 0.92,11.07 1.38,16.6 0.46,10.62 0.92,20.77 0.92,31.39 0.46,10.15 0.92,19.83 0.92,29.99 0,0 0,0.46 0,1.38 -23.06,0 -46.14,-1.38 -68.75,-5.53" /><path
         id="path987"
         style="fill:#231f20;fill-opacity:1;fill-rule:nonzero;stroke:none"
         d="m 1233.63,1611.24 c 0.46,9.24 0.46,18 0.93,27.23 0,5.08 0,10.62 0,16.15 0.45,8.77 1.38,17.54 1.84,26.3 0.46,9.7 0.46,18.92 0.92,28.16 0.46,7.84 0.93,15.68 1.39,23.52 0.46,3.69 0.46,6.93 0.46,10.62 0,7.84 0,15.22 0,22.6 0.46,2.78 0,6.01 0,8.77 0,1.85 0,4.15 0,6.46 9.22,2.31 17.99,1.85 27.68,2.77 0,-1.84 0,-3.23 0,-4.61 0.46,-17.08 0.93,-33.69 0.93,-50.3 0.46,-14.31 0.92,-28.6 0.92,-43.37 -0.46,-12.92 -0.46,-25.38 -0.92,-38.3 -0.47,-6 -1.39,-11.99 -1.39,-18 -0.46,-2.3 -0.46,-4.15 -0.46,-6.45 0,-11.08 -0.93,-21.69 -2.31,-32.77 -0.46,-1.84 -0.46,-3.69 -0.46,-5.53 -0.46,-7.39 -0.46,-14.77 -1.38,-22.61 -0.93,-10.62 -1.38,-21.23 -1.38,-31.85 0,-7.84 -0.47,-15.22 -0.93,-23.06 0,-3.69 -0.92,-6.93 -3.23,-9.69 -0.46,-0.93 -1.85,-2.31 -2.77,-2.31 -6.92,-0.46 -13.38,-0.46 -19.84,-0.92 -1.38,0 -2.77,0 -4.15,0.46 -19.38,74.29 -40.61,148.58 -63.22,222.41 -1.38,-3.23 -0.92,-6.47 -0.46,-9.7 0.92,-10.15 0.46,-19.83 0,-29.99 -0.92,-8.76 -0.46,-18 -0.46,-26.76 0,-11.53 0,-23.07 0,-34.61 0,-10.14 0,-20.3 0,-29.99 0,-5.53 -0.46,-10.61 -0.46,-15.69 -0.46,-7.38 -0.46,-15.23 -0.46,-22.61 0,-7.84 -0.46,-15.68 -0.46,-23.99 0,-4.15 0.46,-8.31 0,-12.92 0,-3.23 -0.47,-6.93 -0.93,-10.16 -0.46,-3.69 -3.23,-5.53 -6.46,-5.99 -6.46,-0.46 -12.92,-0.46 -19.84,-0.92 -3.23,0 -3.23,0.46 -3.69,3.69 -0.46,7.38 -0.93,15.22 -0.93,23.07 -0.45,10.61 -0.45,21.23 0,31.37 0,13.85 0.93,27.23 0.93,40.61 0.46,10.61 0.92,20.77 0.92,31.37 0,12.01 -0.46,24 0,36 0,15.68 0.46,30.92 0.93,46.14 0.46,13.84 1.38,27.22 1.84,41.07 0.46,6.46 1.39,12.92 2.31,19.37 0,2.32 0.92,4.62 0.46,6.93 -0.46,3.69 1.84,6 2.77,8.77 0,0.46 1.38,0.92 2.31,1.38 4.61,1.85 9.68,1.85 14.76,1.38 6,-0.92 12.46,-1.84 18.46,-2.3 2.77,0 3.69,-1.39 4.61,-3.7 4.16,-11.99 8.31,-24.45 12,-36.44 2.3,-6.01 4.15,-11.54 6,-17.54 1.38,-5.08 2.77,-9.69 3.69,-14.77 0.92,-6.92 3.69,-13.38 5.53,-20.3 1.39,-7.38 3.24,-14.76 5.08,-22.61 2.31,-10.15 4.62,-21.23 7.38,-31.37 2.31,-9.7 5.08,-19.39 7.85,-29.08 0.92,-2.3 1.84,-4.6 2.77,-6.92 0.46,0 0.46,0 0.92,0 0,4.15 0,7.84 0,11.53" /><path
         id="path989"
         style="fill:#231f20;fill-opacity:1;fill-rule:nonzero;stroke:none"
         d="m 1299.13,1784.28 c 0.92,0.46 1.84,0.46 2.76,0.46 9.23,0 18.46,2.31 28.15,4.16 4.15,0.92 8.3,1.39 12.46,1.85 10.15,0.45 20.77,0.91 30.91,1.84 2.78,0 6,-0.93 8.77,0.46 1.39,0.46 2.77,-0.93 3.69,-1.39 -2.3,-10.14 -1.84,-19.83 0,-29.53 -1.38,-0.46 -3.23,-0.92 -4.61,-1.37 -3.69,-0.47 -7.38,-0.47 -11.07,-0.93 -7.39,-0.93 -14.77,-1.85 -22.15,-2.77 -8.31,-0.92 -16.15,-1.38 -24.46,-1.85 -1.85,0 -2.76,-0.92 -2.76,-2.77 -0.47,-5.07 -0.93,-10.14 -0.93,-15.69 0,-6.91 0,-13.38 0,-20.29 0.46,-5.55 0,-11.08 0.46,-16.62 0,-6.92 0.47,-13.84 0.47,-20.3 0,-6.46 -0.47,-12.46 -0.47,-18.45 0,-5.55 0,-11.08 0.47,-16.62 0,-6.46 0,-13.38 0,-20.3 0,-3.23 0,-6.46 0,-9.69 -0.47,0 -0.47,0 0,0 9.68,-0.46 18.91,-1.85 28.6,-0.92 2.77,0.46 5.54,0 7.85,0 6,0 11.99,0.46 17.99,0.46 1.39,0 2.77,-0.46 4.15,-0.46 2.31,-0.46 3.23,-1.85 3.23,-4.15 -0.46,-6.47 -0.46,-12.46 -0.92,-18.46 0,-2.31 -0.92,-3.23 -3.23,-3.23 -14.31,-1.39 -29.07,-1.85 -43.84,-1.85 -5.07,0.46 -10.14,0 -15.22,0 -0.46,-0.47 -0.92,-1.38 -0.92,-2.3 -0.47,-17.08 -0.47,-34.15 -0.47,-52.15 6,-0.92 11.54,-1.85 17.08,-2.31 11.54,-1.84 23.53,-1.38 34.6,-4.15 3.23,-0.92 6.47,-0.92 9.23,-1.38 3.23,-0.93 4.16,-2.31 3.69,-5.54 -0.46,-6.46 -1.38,-13.38 -1.84,-19.84 -0.46,-3.69 -0.46,-3.69 -3.7,-3.69 -6.45,-0.46 -12.92,-0.92 -19.37,-0.46 -4.62,0.92 -9.23,0.46 -13.85,0.46 -1.84,0 -3.23,-0.46 -5.07,0 -14.3,1.84 -28.61,1.38 -42.92,1.38 -1.38,0 -2.3,0 -3.22,0 -2.31,0 -3.23,0.92 -3.23,3.23 0,15.23 0,30.91 0.46,46.15 0,12.92 0.46,26.3 0.46,39.22 0.46,5.99 0,11.99 0.46,17.54 0.92,11.53 -0.92,22.6 -0.46,34.14 0.46,8.3 0.92,16.61 0.92,25.38 0,14.76 -0.46,29.53 -0.46,44.29 0,5.07 0.46,9.69 0.46,14.77 0,10.61 0,21.22 0,31.83 0,8.77 0,18 0,26.77 0,1.38 0,2.77 0.46,3.69 2.77,0.46 5.08,0.92 7.39,1.38" /><path
         id="path991"
         style="fill:#231f20;fill-opacity:1;fill-rule:nonzero;stroke:none"
         d="m 1415.39,1513.43 c 7.38,-1.39 15.22,-0.93 23.07,-1.39 5.53,0 5.53,0 5.07,-5.53 -0.46,-8.77 -0.92,-17.54 -1.38,-26.3 0,-1.86 -0.47,-2.77 -1.38,-4.16 -3.24,-4.61 -6,-9.69 -8.77,-14.3 -1.85,-3.69 -4.15,-6.92 -6.46,-10.61 -0.47,-0.93 -1.85,-2.32 -2.31,-2.32 -4.61,0.47 -8.3,-1.83 -12.92,-1.83 -0.92,0 -2.31,-0.47 -3.23,0 -2.31,0 -3.23,1.37 -3.23,3.69 -0.46,11.07 -0.93,21.68 -1.38,32.75 -0.46,8.77 -0.46,17.07 -0.93,25.38 0,0.93 0,1.85 0,3.23 5.08,0.46 9.23,1.85 13.85,1.39" /><path
         id="path993"
         style="fill:#231f20;fill-opacity:1;fill-rule:nonzero;stroke:none"
         d="m 1585.17,1529.11 c 7.84,2.31 15.69,5.54 23.07,10.62 2.77,1.38 5.08,3.69 5.54,7.38 2.31,8.76 3.69,18 3.23,27.22 -0.46,12 -1.85,24 -4.61,36 -1.39,7.38 -2.78,14.3 -6.93,20.76 -2.76,3.69 -5.99,5.53 -10.15,5.99 -8.3,0.47 -16.61,-0.91 -24.91,-2.76 -1.39,-18.46 0,-35.99 0.92,-53.53 0.46,-17.99 1.38,-35.52 2.77,-53.52 4.61,0.46 7.84,0.93 11.07,1.84 z m -13.38,134.28 c 1.38,0.46 3.23,0.46 4.61,0.46 9.23,-0.46 17.54,1.85 25.84,4.62 3.69,1.84 6.47,4.15 6.93,8.3 0.45,6 0.92,11.53 1.38,17.54 0,4.15 -0.46,7.84 -0.46,11.99 0,11.08 -3.23,21.23 -7.85,31.38 -2.3,4.62 -6.92,7.38 -11.53,8.31 -6.93,1.38 -14.31,0.92 -21.23,-1.39 0.93,-26.76 1.38,-53.98 2.31,-81.21 z m 66.45,-22.61 c 1.38,-1.38 2.3,-3.23 3.22,-5.07 3.23,-9.23 5.54,-18.46 5.08,-28.16 0,-5.52 0.46,-11.53 0.46,-17.07 0,-6.91 0,-13.38 0,-19.84 -0.46,-4.61 -0.46,-9.69 -1.38,-14.3 -0.93,-6.46 -1.85,-12.46 -3.69,-18.46 -3.69,-12 -10.62,-22.14 -21.69,-29.07 -3.23,-2.3 -7.84,-3.69 -12,-4.62 -11.07,-2.76 -22.61,-4.15 -34.14,-4.61 -6.46,-0.46 -12.92,-1.38 -19.38,-2.3 -2.77,0 -6,0 -8.77,0.46 -4.15,0.93 -4.62,1.38 -5.08,5.54 -0.45,9.22 -0.92,18.45 -1.38,27.68 -0.92,17.07 -1.38,33.68 -1.85,50.75 -0.46,11.55 -0.46,23.54 -0.46,35.08 -0.46,9.69 -0.46,18.46 -0.46,27.68 0.46,23.53 0.92,47.53 1.39,71.06 0,11.53 0,23.08 0.92,34.61 0.46,8.3 1.84,16.61 2.77,25.38 0,2.31 1.84,3.69 4.15,4.15 5.54,0.46 11.08,0.92 16.61,1.85 6.92,0.92 13.38,-0.93 20.31,-1.85 5.99,-0.46 12.45,-1.84 18.91,-3.69 8.31,-2.77 17.07,-6.46 23.07,-13.85 1.85,-1.84 4.16,-3.69 6.46,-5.53 3.69,-2.77 6,-6.46 7.39,-11.08 1.38,-4.15 2.3,-8.77 3.23,-12.92 1.84,-5.07 0.92,-10.15 1.84,-14.76 1.39,-14.31 0.46,-28.15 -1.38,-41.53 -0.93,-4.62 -2.77,-8.31 -5.54,-11.53 -3.69,-4.16 -6.92,-8.31 -10.61,-12 4.15,-4.15 8.31,-7.84 12,-12" /><path
         id="path995"
         style="fill:#231f20;fill-opacity:1;fill-rule:nonzero;stroke:none"
         d="m 1663.6,1516.19 c 0,9.23 0,18.46 0.46,27.69 0,5.54 0,10.62 0,16.15 0.46,4.61 0,9.69 0,14.3 0,5.08 0.46,10.16 0.46,15.23 0,6.92 0,13.38 0,20.31 0,8.76 0,17.53 0.47,26.3 0.45,11.53 1.38,23.53 1.84,35.06 0.46,11.54 0.92,23.08 1.85,34.61 0.46,10.62 1.38,21.22 2.3,31.84 0.46,6.92 0.92,13.84 1.39,20.76 0,5.08 0,10.16 0,14.77 0,2.31 4.61,6.46 7.38,6.92 6,0.46 11.53,1.39 17.53,1.85 2.31,0.46 3.69,-0.46 3.23,-3.24 0,-6.45 -0.46,-12.46 -0.46,-18.45 0,-3.69 0,-6.92 0,-10.61 0,-3.69 0,-7.85 0,-11.54 0,-5.54 -0.46,-11.08 -0.46,-16.61 -0.46,-5.54 -0.46,-10.62 -0.46,-15.69 0,-6.92 0.46,-13.39 0.46,-20.3 0,-6.92 -0.46,-14.31 -0.46,-21.69 -0.46,-10.61 -0.46,-21.22 -0.46,-31.83 0,-12.47 0.92,-24.93 1.38,-36.92 0,-8.77 0.46,-17.08 0.46,-25.38 0.46,-13.38 0,-26.3 0.46,-39.69 0,-3.69 0.47,-7.38 0.47,-11.07 0,-6.92 -0.47,-13.84 -1.85,-20.76 -0.46,-2.77 -1.38,-3.69 -4.61,-3.69 -6.93,0 -13.38,-0.46 -20.31,-0.46 -3.69,0 -6.92,0.46 -11.07,0.46 0,7.85 0,14.76 0,21.68" /><path
         id="path997"
         style="fill:#231f20;fill-opacity:1;fill-rule:nonzero;stroke:none"
         d="m 1718.5,1778.28 c 3.23,0.93 12.46,0 12.92,0 2.76,0 5.54,0.46 8.77,0.46 10.61,0 21.22,-0.46 31.84,-0.91 6.45,0 12.92,-0.47 19.37,-0.93 13.39,-1.38 26.31,-2.31 39.69,-3.69 2.3,0 3.69,-0.92 3.23,-3.24 -0.47,-7.38 0.92,-14.76 1.84,-21.68 0.92,-4.16 0,-5.07 -4.15,-5.07 -3.69,0 -7.39,0.46 -11.08,0.91 -4.61,1.39 -9.23,1.39 -13.84,1.39 -3.23,0 -6,0.47 -9.22,0.47 -1.85,0 -4.16,0 -6.47,0.46 0.47,-8.77 0.93,-17.08 0.93,-25.38 0.46,-8.77 0.46,-18 0.46,-26.76 0,-11.07 0,-21.69 -0.46,-32.76 0,-4.62 -0.93,-9.7 -0.93,-14.31 0.47,-9.23 0.93,-18 0.93,-27.23 0.46,-5.99 0,-11.99 0,-18.45 0,-2.77 0.46,-5.54 0.46,-8.3 0,-5.08 -0.46,-10.16 -0.46,-15.24 0,-5.99 0.92,-11.99 0.92,-17.99 0.46,-2.77 0.46,-5.53 0.46,-8.31 0.92,-8.76 1.85,-17.53 1.85,-25.84 0.46,-7.84 0.46,-15.68 0.46,-23.52 0,-1.39 -0.46,-2.78 -0.46,-4.16 -0.93,-2.77 -2.31,-3.23 -5.08,-3.23 -4.62,0 -8.77,0 -13.38,0 -6,-0.46 -9.23,0 -13.84,3.23 0,7.38 0,15.23 0,23.07 0,4.61 -0.93,9.23 -0.93,13.84 0,5.54 0,11.08 0,16.61 0,3.69 -0.46,7.39 0,11.08 0,7.38 0.47,14.76 0.93,22.14 0,6.93 1.84,13.85 0.92,21.24 -0.46,2.3 0,4.6 0,7.38 0,21.22 0.46,42.45 0.46,63.67 0,4.62 0.46,9.23 0.46,13.85 0,3.69 0,7.84 -0.46,11.99 0,3.69 0,7.84 0,11.53 -0.46,7.39 -0.46,14.77 -0.92,22.15 0,2.78 0,5.08 0,7.85 -3.23,0 -6,-0.47 -9.23,0 -8.3,0 -17.07,0.92 -25.38,0.92 -2.31,0.47 -4.15,0 -6,0 -3.23,0 -3.69,0.47 -3.69,3.69 -0.46,7.85 -0.46,15.24 -0.92,23.08 -0.46,2.76 0,4.15 0,5.99" /><path
         id="path999"
         style="fill:#231f20;fill-opacity:1;fill-rule:nonzero;stroke:none"
         d="m 1848.14,1778.28 c 3.23,0.93 12.46,0 12.92,0 2.76,0 5.54,0.46 8.76,0.46 10.61,0 21.23,-0.46 31.85,-0.91 6.45,0 12.91,-0.47 19.37,-0.93 13.38,-1.38 26.3,-2.31 39.69,-3.69 2.3,0 3.69,-0.92 3.23,-3.24 -0.47,-7.38 0.92,-14.76 1.84,-21.68 0.92,-4.16 0,-5.07 -4.15,-5.07 -3.7,0 -7.39,0.46 -11.08,0.91 -4.61,1.39 -9.23,1.39 -13.84,1.39 -3.23,0 -6,0.47 -9.23,0.47 -1.84,0 -4.15,0 -6.46,0.46 0.46,-8.77 0.93,-17.08 0.93,-25.38 0.46,-8.77 0.46,-18 0.46,-26.76 0,-11.07 0,-21.69 -0.46,-32.76 0,-4.62 -0.93,-9.7 -0.93,-14.31 0.46,-9.23 0.93,-18 0.93,-27.23 0.46,-5.99 0,-11.99 0,-18.45 0,-2.77 0.46,-5.54 0.46,-8.3 0,-5.08 -0.46,-10.16 -0.46,-15.24 0,-5.99 0.92,-11.99 0.92,-17.99 0.46,-2.77 0.46,-5.53 0.46,-8.31 0.92,-8.76 1.85,-17.53 1.85,-25.84 0.46,-7.84 0.46,-15.68 0.46,-23.52 0,-1.39 -0.46,-2.78 -0.46,-4.16 -0.93,-2.77 -2.31,-3.23 -5.08,-3.23 -4.62,0 -8.77,0 -13.38,0 -6,-0.46 -9.23,0 -13.84,3.23 0,7.38 0,15.23 0,23.07 0,4.61 -0.93,9.23 -0.93,13.84 0,5.54 0,11.08 0,16.61 0,3.69 -0.46,7.39 0,11.08 0,7.38 0.47,14.76 0.93,22.14 0,6.93 1.84,13.85 0.92,21.24 -0.47,2.3 0,4.6 0,7.38 0,21.22 0.46,42.45 0.46,63.67 0,4.62 0.46,9.23 0.46,13.85 0,3.69 0,7.84 -0.46,11.99 0,3.69 0,7.84 0,11.53 -0.46,7.39 -0.46,14.77 -0.93,22.15 0,2.78 0,5.08 0,7.85 -3.22,0 -5.99,-0.47 -9.22,0 -8.3,0 -17.07,0.92 -25.38,0.92 -2.31,0.47 -4.16,0 -6,0 -3.23,0 -3.69,0.47 -3.69,3.69 -0.46,7.85 -0.46,15.24 -0.92,23.08 -0.46,2.76 0,4.15 0,5.99" /><path
         id="path1001"
         style="fill:#231f20;fill-opacity:1;fill-rule:nonzero;stroke:none"
         d="m 1991.16,1784.28 c 0.92,0.46 1.84,0.46 2.77,0.46 9.22,0 18.45,2.31 28.15,4.16 4.15,0.92 8.3,1.39 12.45,1.85 10.15,0.45 20.77,0.91 30.91,1.84 2.78,0 6.01,-0.93 8.77,0.46 1.39,0.46 2.77,-0.93 3.7,-1.39 -2.31,-10.14 -1.85,-19.83 0,-29.53 -1.39,-0.46 -3.24,-0.92 -4.62,-1.37 -3.69,-0.47 -7.38,-0.47 -11.07,-0.93 -7.39,-0.93 -14.77,-1.85 -22.15,-2.77 -8.31,-0.92 -16.15,-1.38 -24.46,-1.85 -1.85,0 -2.76,-0.92 -2.76,-2.77 -0.47,-5.07 -0.93,-10.14 -0.93,-15.69 0,-6.91 0,-13.38 0,-20.29 0.46,-5.55 0,-11.08 0.46,-16.62 0,-6.92 0.47,-13.84 0.47,-20.3 0,-6.46 -0.47,-12.46 -0.47,-18.45 0,-5.55 0,-11.08 0.47,-16.62 0,-6.46 0,-13.38 0,-20.3 0,-3.23 0,-6.46 0,-9.69 -0.47,0 -0.47,0 0,0 9.68,-0.46 18.91,-1.85 28.6,-0.92 2.77,0.46 5.54,0 7.85,0 6,0 11.99,0.46 17.99,0.46 1.39,0 2.77,-0.46 4.16,-0.46 2.3,-0.46 3.22,-1.85 3.22,-4.15 -0.46,-6.47 -0.46,-12.46 -0.92,-18.46 0,-2.31 -0.92,-3.23 -3.23,-3.23 -14.3,-1.39 -29.07,-1.85 -43.84,-1.85 -5.07,0.46 -10.14,0 -15.22,0 -0.46,-0.47 -0.92,-1.38 -0.92,-2.3 -0.47,-17.08 -0.47,-34.15 -0.47,-52.15 6,-0.92 11.54,-1.85 17.08,-2.31 11.54,-1.84 23.53,-1.38 34.6,-4.15 3.24,-0.92 6.47,-0.92 9.23,-1.38 3.23,-0.93 4.16,-2.31 3.69,-5.54 -0.46,-6.46 -1.38,-13.38 -1.84,-19.84 -0.46,-3.69 -0.46,-3.69 -3.69,-3.69 -6.46,-0.46 -12.92,-0.92 -19.38,-0.46 -4.62,0.92 -9.23,0.46 -13.85,0.46 -1.84,0 -3.22,-0.46 -5.07,0 -14.3,1.84 -28.61,1.38 -42.92,1.38 -1.38,0 -2.3,0 -3.22,0 -2.31,0 -3.23,0.92 -3.23,3.23 0,15.23 0,30.91 0.46,46.15 0,12.92 0.46,26.3 0.46,39.22 0.46,5.99 0,11.99 0.46,17.54 0.92,11.53 -0.92,22.6 -0.46,34.14 0.46,8.3 0.93,16.61 0.93,25.38 0,14.76 -0.47,29.53 -0.47,44.29 0,5.07 0.47,9.69 0.47,14.77 0,10.61 0,21.22 0,31.83 0,8.77 0,18 0,26.77 0,1.38 0,2.77 0.45,3.69 2.77,0.46 5.08,0.92 7.39,1.38" /></g></g></svg>
