<?xml version="1.0" encoding="UTF-8"?>
<svg width="247px" height="504px" viewBox="0 0 247 504" version="1.1" xmlns="http://www.w3.org/2000/svg" xmlns:xlink="http://www.w3.org/1999/xlink">
    <!-- Generator: Sketch 61.2 (89653) - https://sketch.com -->
    <title>Image</title>
    <desc>Created with Sketch.</desc>
    <g id="Design" stroke="none" stroke-width="1" fill="none" fill-rule="evenodd">
        <g id="01_Home_Verbreiten" transform="translate(-1169.000000, -1344.000000)">
            <g id="Services" transform="translate(0.000000, 1196.000000)">
                <g id="01" transform="translate(390.000000, 95.000000)">
                    <g id="Image" transform="translate(670.000000, 30.000000)">
                        <g id="Woman" transform="translate(102.000000, 23.000000)">
                            <path d="M257.790587,512.866634 C257.69065,512.854739 257.588956,512.848621 257.485846,512.848621 L160.367808,512.848621 C160.205047,512.848621 160.045819,512.863865 159.891452,512.893014 L164.480597,476 L207.441492,476 C211.57238,478.96472 214.981033,481.498062 217.66745,483.600028 C218.4588,484.219213 219.238461,484.840858 220.006435,485.464961 C223.800091,488.547924 227.96957,491.128995 232.413301,493.145297 C236.828967,495.148864 241.244631,497.225713 245.660296,499.375844 C248.402453,500.700091 251.030353,502.13949 253.658252,503.809193 C254.915074,504.960713 257.143076,507.263752 257.828615,510.027398 C257.942872,510.488006 257.942872,510.948614 258,511.351645 C258,511.891834 257.920651,512.3987 257.790587,512.866634 Z M62.7600413,513 C62.4698,512.902413 62.1533917,512.848621 61.8215645,512.848621 L4,512.848621 C6.3145811,507.791345 11.4777564,495.518413 19.4895259,476.029827 L64.790672,476.029827 L62.7600413,513 Z" id="Shoes" fill="#474961" fill-rule="nonzero"></path>
                            <path d="M125.23322,294.201273 L80.8805152,453.711123 C78.8133755,461.145375 72.0549998,466.28828 64.352668,466.28828 L28.1572875,466.28828 C18.6815793,466.28828 11,458.591698 11,449.097484 C11,447.638549 11.1853585,446.185548 11.5516059,444.773519 L59.2503675,260.875781 C66.2201581,222.667071 72.0801839,197.875375 76.8304437,186.500696 C84.3282046,168.547019 99.1057758,159.587788 105.509355,159.133015 C135.702213,156.988762 151.274271,157.888039 152.225529,161.830845 C160.401742,164.239305 181.348127,198.200101 199.179353,281.311522 C210.198069,332.669806 216.13771,389.088675 217,450.568126 C217.131162,460.061408 209.558061,467.865166 200.083284,468 C200.000654,468 199.918017,468 199.835379,468 L166.160418,467.985646 C157.08899,467.98178 149.588151,460.90323 149.041597,451.830597 L141.359858,324.315852 L125.23322,294.201273 Z" id="Legs" fill="#E6007E" fill-rule="nonzero"></path>
                            <path d="M228.106304,71.3344472 L230.942135,111.677297 C231.097252,113.884011 229.424729,115.797998 227.206451,115.952306 L212.287844,116.990078 C210.069566,117.144386 208.145548,115.480583 207.990431,113.27387 L204.539812,64.1849656 C204.518532,63.8822389 204.531648,63.5850213 204.57585,63.2971002 L204.258558,63.1887225 L188.425246,60.5672566 C182.893916,59.6514539 178.657415,55.1753648 178.07128,49.627739 L178.069745,49.6132047 C177.482593,44.0559509 180.648322,38.7787939 185.843673,36.6543489 L201.818195,30.1221631 L236.621335,6.68851722 C237.213409,6.28986223 237.901511,6.05522535 238.614927,6.00871969 C240.833863,5.86407313 242.75054,7.53623923 242.895944,9.74360723 L246.991383,71.91591 C247.026266,72.4454657 246.955014,72.9766378 246.781768,73.478565 C246.05962,75.5707699 243.769247,76.6844714 241.666078,75.9660874 L228.106304,71.3344472 Z" id="Object" fill="#474961" fill-rule="nonzero"></path>
                            <path d="M213.797976,59.7906947 L222.692113,59.7906947 C226.558106,59.7906105 229.692113,62.9246173 229.692113,66.7906105 C229.692113,66.7906386 229.692113,66.7906666 229.692029,66.7906947 L229.691509,110.03611 C229.691378,113.90207 226.557385,117.036026 222.691424,117.03611 L213.797287,117.03611 C209.931294,117.036194 206.797287,113.902187 206.797287,110.036194 C206.797287,110.036166 206.797287,110.036138 206.797372,110.03611 L206.797892,66.7906947 C206.798022,62.9247343 209.932016,59.7907789 213.797976,59.7906947 Z" id="Shadow-Object" fill="#444444" fill-rule="nonzero" opacity="0.176985679" transform="translate(218.244700, 88.413402) rotate(-4.000000) translate(-218.244700, -88.413402) "></path>
                            <path d="M243.153022,3.39416619 C245.681808,3.39416619 247.731794,5.44415238 247.731794,7.9729385 C247.731794,7.97295686 247.731794,7.97297521 247.731794,7.97299357 L247.731002,73.8065823 C247.730972,76.3354077 245.680945,78.3854097 243.15212,78.3854097 C240.623334,78.3854097 238.573347,76.3354235 238.573347,73.8066374 C238.573347,73.806619 238.573347,73.8066007 238.573347,73.8065823 L238.574139,7.97299357 C238.57417,5.44416813 240.624196,3.39416619 243.153022,3.39416619 Z" id="Object" fill="#474BFF" fill-rule="nonzero" transform="translate(243.152571, 40.889788) rotate(-4.000000) translate(-243.152571, -40.889788) "></path>
                            <path d="M144.767684,69.1666299 C153.993601,73.2260492 160.664446,80.9341969 163.149515,89.6504397 C164.007171,92.6183296 164.167981,95.8145187 163.84636,98.8965581 L160.308532,139.020146 C160.254929,139.647969 160.201325,140.218717 160.201325,140.84654 C160.147722,143.81443 159.558083,147.467217 157.253135,150.492182 C153.929721,154.944017 148.783789,161.222246 127.342406,160.993946 C107.401921,160.765647 102.631213,154.487419 99.4150051,150.149733 C97.1100566,147.067694 96.6276254,142.844158 96.5740222,139.990418 C96.5740222,139.362595 96.5204184,138.791847 96.4668152,138.164024 L94.937363,118.566447 C93.4804828,119.75857 92.1247825,120.676259 90.8920707,121.220609 C86.1828291,123.300151 83.0158485,119.167689 81.3911289,108.823224 C76.2149632,102.172372 60.9130339,92.4784455 85.889031,73.541412 C95.2501241,66.4437439 103.949876,66.2296358 110.587869,69.2114787 C114.871322,67.4403745 119.750906,66.3832235 125.016422,66.1733497 L125.122962,64.6547912 C125.233268,63.0825533 126.601467,61.8971278 128.17892,62.0070693 L142.460073,63.0024037 C144.037526,63.1123452 145.226883,64.4760209 145.116577,66.0482589 L144.956795,68.3256903 C144.936025,68.6217402 144.870654,68.9040755 144.767684,69.1666299 Z" id="T-shirt" fill="#CFCFCF" fill-rule="nonzero"></path>
                            <path d="M19,475.748108 L22.8076234,464.708762 L65.2884085,465.57288 L64.4016275,475.748108 L19,475.748108 Z M195.475665,262.829908 C178.546174,192.652856 159.972608,163.612958 152.483129,161.651471 C152.477101,161.614759 152.469838,161.578305 152.46134,161.542106 C157.801046,157.751984 164.150556,152.390655 171.509868,145.45812 C189.448634,174.956059 199.052712,203.794948 200.322105,231.974785 C201.054968,248.243983 199.439488,258.529024 195.475665,262.829908 Z M200.708793,80.2148377 C201.034516,80.0573468 201.387196,79.9416422 201.761198,79.8757636 L227.134511,75.406354 C229.314357,75.0223825 231.39306,76.4764131 231.777426,78.6540229 L232.075693,80.3438416 C232.253062,81.3487199 232.038636,82.3320832 231.542037,83.1375348 C232.244346,83.7218504 232.751387,84.5479865 232.922526,85.5175707 L233.220793,87.2073893 C233.477518,88.6618563 232.913438,90.0712492 231.86096,90.9613301 C233.25707,91.387247 234.369316,92.562466 234.640175,94.0970054 L234.938442,95.786824 C235.322807,97.9644333 233.867283,100.041005 231.687437,100.424976 L211.048506,104.060442 C178.487697,140.530368 155.891547,161.495751 143.260056,166.956593 C131.81327,171.905265 114.459424,156.628697 91.1985198,121.126891 C98.2765363,117.594421 109.156838,102.610389 119.974734,93.7425689 C120.110647,93.6311564 120.241811,93.5165466 120.368279,93.3988699 L142.570652,121.827426 C181.308209,94.0370197 200.676986,80.1418165 200.676986,80.1418165 L200.708793,80.2148377 Z M144.359253,57.569568 L144.007985,63.8695853 C133.941731,63.5642632 128.347709,63.0938688 127.225918,62.4584033 L127.562782,51.9939392 L127.226093,48.0039457 L127.516474,44.7728508 L132.167199,45.2596706 L132.400508,44.7241548 C132.339399,44.6710877 132.335405,44.6140308 132.335405,44.6140308 C132.12412,44.0554312 131.578129,43.6348842 131.121205,43.6668026 C130.073156,43.4533346 128.491099,42.9904904 127.085582,41.7699472 C125.126087,40.0147432 123.829216,37.0665336 124.535381,34.0357377 C125.192418,31.1230454 125.408308,26.5201204 128.153846,26.3856665 C129.699959,26.3349987 132.156071,26.2835222 132.335405,26.3856665 C132.514739,26.4878109 136.291203,28.9716774 136.138234,27.6063015 C136.036254,26.6960509 135.505055,21.8404944 134.544639,13.0396321 C134.480737,12.1267217 135.110207,11.2800473 136.020062,11.1591535 C137.672417,10.9863921 139.255676,10.64645 140.884068,10.1313472 C142.638673,9.77943556 143.883232,9.52048906 144.279047,9.43550352 C147.049749,8.84060461 152.087895,8.6606723 156.670709,10.1752882 C158.619423,10.956535 160.538979,12.14117 162.208903,13.8592661 C162.640662,14.2877927 163.08041,14.8304331 163.520157,15.3730735 C163.64637,15.5362646 163.772583,15.6994557 163.902789,15.9197037 C165.180892,17.7798423 165.964925,19.9611737 166.124681,22.2434498 L167.010937,32.4446663 C167.025711,33.4756803 167.097602,34.5027046 166.998145,35.5416983 C166.175322,48.3850822 161.727073,57.812223 157.030419,58.7710028 C156.467252,58.9250146 153.402984,59.4257487 149.691678,58.8822998 C149.340997,58.7921248 149.634562,58.8862899 144.610799,57.6318198 C144.526218,57.6109718 144.442371,57.590221 144.359253,57.569568 Z M164.102159,479 L165.347762,467.281421 L203.837892,466.836026 L207.56953,476.21308 L164.102159,479 Z" id="Skin" fill="#FBBB99" fill-rule="nonzero"></path>
                            <path d="M125,293.039957 L152.00034,161.367994 C152.004848,161.242579 151.996131,161.119914 151.974189,161 C159.981916,162.8098 181.178523,196.612401 199.196529,280.525306 C210.249731,332.001935 216.18372,388.435702 216.998498,449.826608 C217.120813,459.043809 209.756386,466.615107 200.549576,466.737575 C200.475747,466.738558 200.401913,466.739049 200.328077,466.739049 C195.252089,466.739049 183.916395,466.82575 166.320996,467 C157.175754,467.089278 149.565244,459.986609 149.014216,450.847236 L141.337668,323.523506 L125,293.039957 Z" id="Shadow-Skin" fill="#444444" fill-rule="nonzero" opacity="0.176985679"></path>
                            <path d="M194.985402,263 C178.067294,193.045241 159.506218,164.097331 152.021774,162.142056 C152.015751,162.105461 152.008492,162.069122 152,162.033039 C157.336116,158.254922 163.681356,152.910575 171.03572,146 C188.962423,175.404501 198.560044,204.152039 199.828583,232.242614 C200.560954,248.460278 198.94656,258.71274 194.985402,263 Z" id="Combined-Shape-Copy" fill="#8C2A00" fill-rule="nonzero" opacity="0.2"></path>
                            <polygon id="Shadow" fill="#482D1F" fill-rule="nonzero" transform="translate(141.321789, 59.198718) scale(-1, 1) rotate(4.000000) translate(-141.321789, -59.198718) " points="139.053199 63.0768456 144.455227 55.3205907 138.188352 57.5718477"></polygon>
                            <path d="M137.977904,32.5380897 L137.318555,31.2945391 C137.318555,31.2945391 136.273116,29.5291734 134.174612,28.3542572 C133.994626,28.2519168 132.681408,27.5966977 131.129674,27.6474628 C128.374156,27.7821747 125.78699,30.3178759 125.127565,33.2361584 C124.361509,36.2767688 125.663095,39.2306368 127.625705,40.9320431 C129.592323,42.6906158 132.2582,42.8875137 133.015427,43.0070459 L133.031983,43.0054647 C134.183419,45.3851391 134.292695,47.9300776 133.359811,50.6402801 C132.552121,52.986771 130.305054,55.202058 127.639077,57 L122.565781,56.6594435 L127.389381,50.3310452 C125.555026,48.8570759 122.749205,46.4832814 121.07803,44.4907302 C119.758,42.916851 115.53414,39.3625265 113.873393,32.9295023 C113.696393,32.1632546 113.350041,30.7584145 113.16198,28.9892749 C109.943603,30.7567505 106.061026,31.4508108 102.111587,30.6852164 C93.3887689,28.9943081 87.6429485,20.8235018 89.2779372,12.4352099 C90.9129265,4.04691802 99.3095874,-1.38238409 108.032405,0.308524267 C114.747345,1.61020781 119.69808,6.75195872 120.875587,12.8768597 C124.535155,11.0649385 128.1153,11.5389485 135.859489,10.4859652 C136.543358,10.3808292 137.681804,10.1865471 139.164189,9.96828017 C139.790734,9.86714166 140.302634,9.77399808 140.814534,9.68085444 C142.575518,9.32826738 143.824601,9.06882394 144.221855,8.98367524 C147.00263,8.38763461 152.059091,8.2073569 156.658565,9.72487984 C158.614363,10.5076261 160.540897,11.6945347 162.216891,13.4159283 C162.65022,13.8452773 164.475022,15.8224959 164.916368,16.3661778 C165.460535,18.2221403 163.497625,18.9502826 162.145921,19.3892203 C157.918837,20.7180256 151.987305,17.8632812 149.654295,17.4515156 C145.89701,22.1943158 142.19304,26.875952 138.493077,31.6147547 C138.328078,31.9002318 138.155984,32.2090599 137.977904,32.5380897 Z M168.448014,29.8576824 C167.312357,30.1465755 165.545471,30.4684595 163.972035,30.0916172 C161.350642,29.4826225 163.800369,27.9199725 166.153128,27.7970067 C167.300815,27.7370234 168.188647,28.2070832 168.729165,28.6379105 C169.206284,28.957282 169.015843,29.7132357 168.448014,29.8576824 Z M157.393011,30.714116 C156.280327,31.0813083 154.540261,31.525323 152.823225,31.2159447 C150.172624,30.8476715 152.500077,29.0615321 154.838503,28.7751944 C156.036234,28.6285336 156.954782,29.0356857 157.524119,29.4278619 C158.086453,29.7631593 157.949353,30.5305198 157.393011,30.714116 Z" id="Hair" fill="#482D1F" fill-rule="nonzero"></path>
                            <path d="M164.455969,34.990893 C164.453056,34.3142385 164.986078,33.7054652 165.687031,33.646694 C166.154332,33.6075133 166.583663,33.7971491 166.825337,34.510193 C167.514586,36.2574665 166.002396,39.0354422 165.09774,38.1523529 C164.510701,37.5246743 164.426021,35.9523439 164.455969,34.990893 Z M154.005206,35.9235419 C154.002293,35.2468874 154.535316,34.6381141 155.236268,34.5793429 C155.70357,34.5401622 156.132901,34.729798 156.374574,35.4428419 C157.063823,37.1901154 155.551633,39.9680911 154.646978,39.0850018 C154.059938,38.4573232 153.975258,36.8849927 154.005206,35.9235419 Z M159.276137,46.7616439 C158.860112,46.6699973 157.849325,46.4394106 157.639902,45.8309512 C157.633765,45.718718 157.566003,45.5533093 157.618421,45.4381352 C157.831161,45.0335555 158.546102,45.2227304 159.603169,45.22591 C161.480013,45.1879163 162.993249,44.943102 162.993249,44.943102 C162.993249,44.943102 162.644736,46.0860199 162.370371,46.4374241 C161.833917,47.3646986 159.929454,46.8976432 159.276137,46.7616439 Z M161.555769,35.83098 L161.553096,35.7940723 L161.545396,35.7578191 L161.555769,35.83098 Z M162.810641,41.7152366 C162.956554,42.3475968 162.478566,42.9948001 161.816937,43.1349329 C161.742937,43.1497237 161.676028,43.1622903 161.608607,43.1741994 C161.197751,43.246772 160.813077,43.2906283 160.098266,43.3535231 C159.987956,43.363229 159.569148,43.3994551 159.56357,43.3999401 C159.331654,43.4201042 159.141879,43.4369817 158.94504,43.455111 C158.622688,43.4848002 158.336257,43.2584348 158.305277,42.9495096 C158.274297,42.6405844 158.510501,42.3660832 158.832853,42.3363939 C159.032049,42.3180475 159.223786,42.3009955 159.457611,42.2806654 C159.464004,42.2801096 159.881802,42.243971 159.991047,42.2343587 C160.672787,42.1743737 161.029247,42.1337342 161.396038,42.0689449 C161.454761,42.0585722 161.512948,42.0476439 161.571034,42.0360691 C161.616356,42.0264248 161.665978,41.9592353 161.663521,41.948577 L160.396241,35.9819711 L160.385867,35.9088103 L160.146255,32.6008738 C160.123829,32.2912703 160.36754,32.0228642 160.6906,32.001372 C161.013658,31.9798797 161.29373,32.2134401 161.316156,32.5230436 L161.553096,35.7940723 L162.810641,41.7152366 Z" id="Face" fill="#482D1F" fill-rule="nonzero"></path>
                            <g id="Path-26"></g>
                            <path d="M118.171901,94.1044603 C119.635034,87.1800643 119.635336,80.1841004 118.173508,73.1240686 C118.077358,72.6597006 117.623017,72.3612456 117.15871,72.4574502 C116.694403,72.5536554 116.395953,73.0080902 116.492104,73.4724582 C117.906122,80.3015911 117.90583,87.0581086 116.491929,93.7495126 C116.393887,94.2135021 116.690483,94.6690973 117.154395,94.7671136 C117.618306,94.8651294 118.073859,94.5684497 118.171901,94.1044603 Z" id="Shadow" fill="#482D1F" fill-rule="nonzero" transform="translate(117.871383, 83.612627) rotate(-15.000000) translate(-117.871383, -83.612627) "></path>
                        </g>
                    </g>
                </g>
            </g>
        </g>
    </g>
</svg>