<?xml version="1.0" encoding="UTF-8"?>
<svg width="347px" height="423px" viewBox="0 0 347 423" version="1.1" xmlns="http://www.w3.org/2000/svg" xmlns:xlink="http://www.w3.org/1999/xlink">
    <!-- Generator: Sketch 61.2 (89653) - https://sketch.com -->
    <title>Image</title>
    <desc>Created with Sketch.</desc>
    <g id="Design" stroke="none" stroke-width="1" fill="none" fill-rule="evenodd">
        <g id="01_Home_Verkaufen" transform="translate(-1183.000000, -1425.000000)">
            <g id="Services" transform="translate(0.000000, 1196.000000)">
                <g id="01" transform="translate(390.000000, 95.000000)">
                    <g id="Image" transform="translate(710.000000, 30.000000)">
                        <g id="Group" transform="translate(83.000000, 104.000000)">
                            <g id="Interior-/-Shelf-/-Shelf-3" fill-rule="nonzero">
                                <g id="Shelf-3">
                                    <path d="M285.205198,13.148182 L322.305062,13.148182 L322.305062,55.9201117 L285.205198,55.9201117 L285.205198,13.148182 Z M225.845417,7.10432233 L262.94528,7.10432233 L262.94528,51.2709889 L225.845417,51.2709889 L225.845417,7.10432233 Z M21.3324213,7.10432233 L58.4322845,7.10432233 L58.4322845,51.2709889 L21.3324213,51.2709889 L21.3324213,7.10432233 Z M99.2421341,68.8070175 L127.53078,68.8070175 L127.53078,101.350877 L99.2421341,101.350877 L99.2421341,68.8070175 Z M146.54446,68.8070175 L174.833105,68.8070175 L174.833105,101.350877 L146.54446,101.350877 L146.54446,68.8070175 Z" id="Combined-Shape" fill="#D8DEED"></path>
                                    <path d="M274.027676,74.0951474 L296.959434,74.0951474 L293.82218,101.524972 L277.64846,101.524972 L274.027676,74.0951474 Z M17.1111228,74.0821782 L40.0428812,74.0821782 L36.9056271,101.481515 L20.7319071,101.481515 L17.1111228,74.0821782 Z M302.780069,74.0951474 L325.711828,74.0951474 L322.574574,101.524972 L306.400854,101.524972 L302.780069,74.0951474 Z M45.8635168,74.0821782 L68.7952752,74.0821782 L65.6580208,101.481515 L49.4843012,101.481515 L45.8635168,74.0821782 Z M280.567715,14.5429188 L315.812585,14.5429188 C316.324827,14.5429188 316.740082,14.9592155 316.740082,15.4727434 L316.740082,54.9902871 C316.740082,55.5038153 316.324827,55.9201117 315.812585,55.9201117 L280.567715,55.9201117 C280.055473,55.9201117 279.640219,55.5038153 279.640219,54.9902871 L279.640219,15.4727434 C279.640219,14.9592155 280.055473,14.5429188 280.567715,14.5429188 Z M221.207934,8.49905917 L256.452804,8.49905917 C256.965046,8.49905917 257.380301,8.91535581 257.380301,9.42888373 L257.380301,50.3411643 C257.380301,50.8546925 256.965046,51.2709889 256.452804,51.2709889 L221.207934,51.2709889 C220.695692,51.2709889 220.280438,50.8546925 220.280438,50.3411643 L220.280438,9.42888373 C220.280438,8.91535581 220.695692,8.49905917 221.207934,8.49905917 Z M83.9384405,24.3060767 L109.908345,24.3060767 L109.908345,51.2709889 L83.9384405,51.2709889 L83.9384405,24.3060767 Z M147.008208,9.8129812 C147.008208,9.8129812 143.76197,3.59614147 147.008208,1.90992642 C149.172367,0.785783058 150.409029,3.1371314 150.718194,8.96397145 C148.24487,9.52997793 147.008208,9.8129812 147.008208,9.8129812 Z M153.719,11.1312835 C153.719,11.1312835 158.345041,5.86513635 161.078664,8.29908194 C162.90108,9.92171237 161.154584,11.9217816 155.839175,14.2992896 C154.425725,12.1872855 153.719,11.1312835 153.719,11.1312835 Z M154.489251,17.0781605 C154.489251,17.0781605 161.374506,18.3411381 160.701351,21.9437669 C160.252581,24.3455194 157.642967,23.8748338 152.872509,20.5317101 C153.950337,18.2293437 154.489251,17.0781605 154.489251,17.0781605 Z M151.730865,40.5851984 C139.337073,31.8124454 133.093708,25.8818126 133.000767,22.7933001 C132.861356,18.1605314 137.924773,18.8917295 140.899799,21.5810899 C143.874825,24.2704502 129.355977,9.73264533 135.71242,10.5961151 C142.068863,11.4595849 126.061948,-0.487483623 131.941658,0.311225904 C134.604658,0.672972368 144.104491,4.25345592 148.758165,16.0856819 C150.222368,19.8085015 151.213269,27.975007 151.730865,40.5851984 Z M16.6949384,8.49905917 L51.9398085,8.49905917 C52.4520505,8.49905917 52.8673051,8.91535581 52.8673051,9.42888373 L52.8673051,50.3411643 C52.8673051,50.8546925 52.4520505,51.2709889 51.9398085,51.2709889 L16.6949384,51.2709889 C16.1826962,51.2709889 15.7674419,50.8546925 15.7674419,50.3411643 L15.7674419,9.42888373 C15.7674419,8.91535581 16.1826962,8.49905917 16.6949384,8.49905917 Z M36.3540339,35.0355989 C36.9340471,35.4812274 37.6792296,35.8882364 38.4963066,35.9278729 C39.3541161,35.9694853 40.8975912,35.3974141 43.1267319,34.2116592 C42.0822685,33.4276739 41.2051006,32.8355907 40.4952282,32.4354095 C41.2333837,31.5326233 41.8669324,29.4516457 42.395874,26.1924766 C40.2044097,26.8014183 38.5764251,27.3722806 37.5119202,27.9050633 C36.6043602,24.9356072 34.3096719,22.7407515 31.9063996,22.7626027 C29.0989605,22.7881287 27.2064646,25.8289721 27.6793916,29.5545165 C28.1523188,33.2800609 30.811581,36.2795184 33.6190201,36.2539923 C34.6910076,36.2442455 35.6295959,35.7948642 36.3540339,35.0355989 Z M95.995896,68.6763795 L122.429549,68.6763795 C122.941791,68.6763795 123.357045,69.0926759 123.357045,69.6062041 L123.357045,100.421053 C123.357045,100.93458 122.941791,101.350877 122.429549,101.350877 L95.995896,101.350877 C95.483654,101.350877 95.0683995,100.93458 95.0683995,100.421053 L95.0683995,69.6062041 C95.0683995,69.0926759 95.483654,68.6763795 95.995896,68.6763795 Z M110.382418,88.982184 C110.860772,89.3491704 111.486778,89.6939377 112.175703,89.7264002 C112.872515,89.7592346 114.126305,89.3078425 115.937073,88.3722237 C114.997497,87.6871694 114.224584,87.1878146 113.618332,86.8741583 C114.157581,86.1887795 114.62133,84.660551 115.009576,82.2894737 C113.453154,82.7181284 112.2775,83.1212789 111.482612,83.4989253 C110.810529,81.1970828 109.031402,79.483312 107.166781,79.5001227 C105.020337,79.5194738 103.573419,81.8247376 103.934998,84.6490737 C104.296577,87.4734097 106.329731,89.7472989 108.476174,89.7279474 C109.207382,89.7213554 109.857411,89.4494845 110.382418,88.982184 Z M143.298222,68.6763795 L169.731874,68.6763795 C170.244116,68.6763795 170.659371,69.0926759 170.659371,69.6062041 L170.659371,100.421053 C170.659371,100.93458 170.244116,101.350877 169.731874,101.350877 L143.298222,101.350877 C142.78598,101.350877 142.370725,100.93458 142.370725,100.421053 L142.370725,69.6062041 C142.370725,69.0926759 142.78598,68.6763795 143.298222,68.6763795 Z M157.684744,88.982184 C158.163098,89.3491704 158.789103,89.6939377 159.478028,89.7264002 C160.174841,89.7592346 161.428631,89.3078425 163.239398,88.3722237 C162.299823,87.6871694 161.526909,87.1878146 160.920658,86.8741583 C161.459907,86.1887795 161.923655,84.660551 162.311902,82.2894737 C160.75548,82.7181284 159.579825,83.1212789 158.784938,83.4989253 C158.112855,81.1970828 156.333727,79.483312 154.469106,79.5001227 C152.322663,79.5194738 150.875744,81.8247376 151.237323,84.6490737 C151.598903,87.4734097 153.632056,89.7472989 155.7785,89.7279474 C156.509708,89.7213554 157.159736,89.4494845 157.684744,88.982184 Z" id="Combined-Shape" fill="#F2F6FB"></path>
                                    <path d="M0,101.350877 L339,101.350877 L339,106 L0,106 L0,101.350877 Z M0,51.2709889 L339,51.2709889 L339,55.9201117 L0,55.9201117 L0,51.2709889 Z" id="Combined-Shape" fill="#E1E5F0"></path>
                                    <path d="M95.0683995,20.1218662 L95.0683995,15.9376557 C95.0683995,15.4241277 95.483654,15.0078311 95.995896,15.0078311 L98.3146375,15.0078311 C98.8268795,15.0078311 99.2421341,15.4241277 99.2421341,15.9376557 L99.2421341,20.1218662 L110.835841,20.1218662 C111.348083,20.1218662 111.763338,20.5381628 111.763338,21.0516908 L111.763338,23.3762522 C111.763338,23.8897801 111.348083,24.3060767 110.835841,24.3060767 L83.4746922,24.3060767 C82.9624502,24.3060767 82.5471956,23.8897801 82.5471956,23.3762522 L82.5471956,21.0516908 C82.5471956,20.5381628 82.9624502,20.1218662 83.4746922,20.1218662 L95.0683995,20.1218662 Z M277.785226,10.3587083 L324.623803,10.3587083 C325.136045,10.3587083 325.5513,10.7750049 325.5513,11.2885329 L325.5513,13.6130943 C325.5513,14.1266222 325.136045,14.5429188 324.623803,14.5429188 L277.785226,14.5429188 C277.272984,14.5429188 276.857729,14.1266222 276.857729,13.6130943 L276.857729,11.2885329 C276.857729,10.7750049 277.272984,10.3587083 277.785226,10.3587083 Z M274.651528,71.216465 L274.955905,68.6952949 C275.012275,68.2283845 275.407542,67.877193 275.876682,67.877193 L295.478048,67.877193 C295.953488,67.877193 296.351937,68.2376041 296.400661,68.7117287 L296.65806,71.216465 L297.726402,71.216465 C298.238644,71.216465 298.653899,71.6327614 298.653899,72.1462895 L298.653899,73.1653228 C298.653899,73.6788505 298.238644,74.0951474 297.726402,74.0951474 L273.147743,74.0951474 C272.635501,74.0951474 272.220246,73.6788505 272.220246,73.1653228 L272.220246,72.1462895 C272.220246,71.6327614 272.635501,71.216465 273.147743,71.216465 L274.651528,71.216465 Z M275.601875,79.3919232 L295.944102,79.3919232 C296.712465,79.3919232 297.335346,80.0163683 297.335346,80.7866601 C297.335346,80.8457146 297.331605,80.9047097 297.324146,80.9632891 L295.567796,94.7550267 C295.479117,95.4513779 294.887998,95.9731346 294.187752,95.9731346 L277.305875,95.9731346 C276.603643,95.9731346 276.011501,95.4484978 275.92518,94.749843 L274.221181,80.9581053 C274.126731,80.1936552 274.668322,79.4971873 275.430859,79.4025005 C275.487593,79.3954556 275.544707,79.3919232 275.601875,79.3919232 Z M17.7349755,71.2034953 L18.0393526,68.6823257 C18.095722,68.2154153 18.4909895,67.8642238 18.9601297,67.8642238 L38.5614948,67.8642238 C39.0369354,67.8642238 39.4353846,68.2246349 39.4841081,68.6987595 L39.7415075,71.2034953 L40.8098495,71.2034953 C41.3220917,71.2034953 41.7373461,71.6197922 41.7373461,72.1333199 L41.7373461,73.1523536 C41.7373461,73.6658813 41.3220917,74.0821782 40.8098495,74.0821782 L16.2311902,74.0821782 C15.7189479,74.0821782 15.3036936,73.6658813 15.3036936,73.1523536 L15.3036936,72.1333199 C15.3036936,71.6197922 15.7189479,71.2034953 16.2311902,71.2034953 L17.7349755,71.2034953 Z M18.685322,79.378954 L39.027549,79.378954 C39.7959123,79.378954 40.4187939,80.0033986 40.4187939,80.7736909 C40.4187939,80.8327454 40.4150526,80.8917405 40.4075926,80.9503199 L38.6512435,94.7420575 C38.5625646,95.4384087 37.9714455,95.9601654 37.2711999,95.9601654 L20.3893219,95.9601654 C19.6870908,95.9601654 19.0949483,95.4355286 19.008628,94.7368738 L17.3046281,80.9451361 C17.2101786,80.180686 17.7517698,79.4842181 18.5143061,79.3895313 C18.5710405,79.3824864 18.6281541,79.378954 18.685322,79.378954 Z M303.457855,71.216465 L303.719968,68.7100661 C303.769475,68.2366664 304.167606,67.877193 304.642409,67.877193 L324.249063,67.877193 C324.716587,67.877193 325.111024,68.2260362 325.169321,68.6910759 L325.485899,71.216465 L326.478796,71.216465 C326.991038,71.216465 327.406293,71.6327614 327.406293,72.1462895 L327.406293,73.1653228 C327.406293,73.6788505 326.991038,74.0951474 326.478796,74.0951474 L301.900137,74.0951474 C301.387895,74.0951474 300.97264,73.6788505 300.97264,73.1653228 L300.97264,72.1462895 C300.97264,71.6327614 301.387895,71.216465 301.900137,71.216465 L303.457855,71.216465 Z M304.354269,79.9874735 L324.696496,79.9874735 C325.464859,79.9874735 326.08774,80.6119186 326.08774,81.3822104 C326.08774,81.4412649 326.083999,81.50026 326.07654,81.5588394 L324.32019,95.350577 C324.231511,96.0469282 323.640392,96.5686849 322.940146,96.5686849 L306.058269,96.5686849 C305.356037,96.5686849 304.763895,96.0440481 304.677574,95.3453933 L302.973575,81.5536556 C302.879125,80.7892055 303.420716,80.0927376 304.183253,79.9980508 C304.239987,79.9910059 304.297101,79.9874735 304.354269,79.9874735 Z M46.5413026,71.2034953 L46.803415,68.6970969 C46.852922,68.2236968 47.2510531,67.8642238 47.7258562,67.8642238 L67.3325102,67.8642238 C67.8000339,67.8642238 68.1944713,68.213067 68.2527681,68.6781067 L68.5693464,71.2034953 L69.5622435,71.2034953 C70.0744855,71.2034953 70.4897401,71.6197922 70.4897401,72.1333199 L70.4897401,73.1523536 C70.4897401,73.6658813 70.0744855,74.0821782 69.5622435,74.0821782 L44.9835841,74.0821782 C44.4713419,74.0821782 44.0560876,73.6658813 44.0560876,73.1523536 L44.0560876,72.1333199 C44.0560876,71.6197922 44.4713419,71.2034953 44.9835841,71.2034953 L46.5413026,71.2034953 Z M47.437716,79.9745044 L67.7799429,79.9745044 C68.5483061,79.9745044 69.1711878,80.5989494 69.1711878,81.3692412 C69.1711878,81.4282957 69.1674467,81.4872908 69.1599868,81.5458702 L67.4036376,95.3376078 C67.3149587,96.033959 66.7238396,96.5557157 66.0235936,96.5557157 L49.1417159,96.5557157 C48.4394846,96.5557157 47.847342,96.0310789 47.7610218,95.3324241 L46.0570221,81.5406864 C45.9625725,80.7762363 46.5041638,80.0797684 47.2667,79.9850816 C47.3234345,79.9780368 47.3805479,79.9745044 47.437716,79.9745044 Z M218.425445,4.31484864 L265.264022,4.31484864 C265.776264,4.31484864 266.191518,4.73114528 266.191518,5.24467321 L266.191518,7.56923461 C266.191518,8.08276254 265.776264,8.49905917 265.264022,8.49905917 L218.425445,8.49905917 C217.913203,8.49905917 217.497948,8.08276254 217.497948,7.56923461 L217.497948,5.24467321 C217.497948,4.73114528 217.913203,4.31484864 218.425445,4.31484864 Z M93.6771546,65.5526316 L128.922025,65.5526316 C129.434267,65.5526316 129.849521,65.9689284 129.849521,66.4824561 L129.849521,67.877193 C129.849521,68.3907207 129.434267,68.8070175 128.922025,68.8070175 L93.6771546,68.8070175 C93.1649126,68.8070175 92.749658,68.3907207 92.749658,67.877193 L92.749658,66.4824561 C92.749658,65.9689284 93.1649126,65.5526316 93.6771546,65.5526316 Z M140.97948,65.5526316 L176.22435,65.5526316 C176.736592,65.5526316 177.151847,65.9689284 177.151847,66.4824561 L177.151847,67.877193 C177.151847,68.3907207 176.736592,68.8070175 176.22435,68.8070175 L140.97948,68.8070175 C140.467238,68.8070175 140.051984,68.3907207 140.051984,67.877193 L140.051984,66.4824561 C140.051984,65.9689284 140.467238,65.5526316 140.97948,65.5526316 Z M13.9124487,4.31484864 L60.751026,4.31484864 C61.263268,4.31484864 61.6785226,4.73114528 61.6785226,5.24467321 L61.6785226,7.56923461 C61.6785226,8.08276254 61.263268,8.49905917 60.751026,8.49905917 L13.9124487,8.49905917 C13.4002065,8.49905917 12.9849521,8.08276254 12.9849521,7.56923461 L12.9849521,5.24467321 C12.9849521,4.73114528 13.4002065,4.31484864 13.9124487,4.31484864 Z M83.9384405,38.7183574 L109.908345,38.7183574 L109.908345,51.2709889 L83.9384405,51.2709889 L83.9384405,38.7183574 Z M141.443228,32.2095855 L152.109439,32.2095855 C157.487983,32.2095855 161.848153,36.5807001 161.848153,41.9727434 L161.848153,50.8060766 C161.848153,51.3196048 161.432899,51.7359012 160.920657,51.7359012 L132.632011,51.7359012 C132.119769,51.7359012 131.704514,51.3196048 131.704514,50.8060766 L131.704514,41.9727434 C131.704514,36.5807001 136.064685,32.2095855 141.443228,32.2095855 Z M149.095075,22.9113399 C145.125198,22.9113399 141.906977,19.7891151 141.906977,15.9376557 C141.906977,12.0861962 145.125198,8.96397145 149.095075,8.96397145 C153.064953,8.96397145 156.283174,12.0861962 156.283174,15.9376557 C156.283174,19.7891151 153.064953,22.9113399 149.095075,22.9113399 Z" id="Combined-Shape" fill="#E1E5F0"></path>
                                </g>
                            </g>
                            <g id="Characters-standing-/-Man-standing-/-2" transform="translate(117.000000, 19.000000)">
                                <path d="M77.6529126,410.829675 C77.6164822,410.827777 77.5798042,410.826816 77.5429021,410.826816 L2.4111153,410.826816 C2.36133275,410.572902 2.33608478,410.252935 2.34330484,409.838621 C2.39524747,409.514899 2.40171108,409.144006 2.50074933,408.774731 C3.09497749,406.559083 3.81513995,405.087648 5.92149497,403.779576 C8.02785046,402.471505 10.1780693,401.303327 12.4184384,400.275853 C20.6815674,396.385625 23.5050878,396.434989 28.9382333,392.866291 C31.1866817,391.3752 33.2540213,389.649065 35.1849233,387.781416 C36.4721911,386.536317 39.1003404,384.513512 43.0693703,381.713 L75.2164341,382.513579 L77.6529126,410.829675 Z M175.167646,410.833478 C175.109683,410.829068 175.051207,410.826816 174.99234,410.826816 L127.699909,410.826816 L131.441915,387.172628 L163.006478,381.009764 L175.167646,410.833478 Z" id="Shoes" fill="#474961" fill-rule="nonzero"></path>
                                <g id="Man" transform="translate(17.128880, 0.000000)">
                                    <path d="M43.9659534,96.7515462 C42.940406,96.8716514 42.0190549,96.9220435 41.2019002,96.902723 C38.3086454,96.8343167 33.5973903,97.4729706 29.6283328,96.902723 C16.0980743,94.958787 14.3812751,91.7048021 14.1009131,90.2824191 C13.7154154,88.2997026 14.6265918,87.006627 19.8132883,77.9550968 C24.2289895,70.2828471 37.7854187,55.3752551 41.9008756,52.6108117 C44.6445135,50.7678496 49.1952629,49.161902 55.5531239,47.7929691 C55.5397231,47.8221874 55.5262607,47.8537094 55.5127373,47.8875349 C62.1348951,45.4175409 70.2274872,45.240961 74.5771079,45.0472067 C76.8526476,44.9544693 89.3439106,44.9544693 91.6194508,45.0472067 C95.1064736,45.2025365 99.9517662,45.7481188 104.638647,47.4344411 C104.908928,46.8738401 105.380772,46.630039 106.106467,46.7943655 C110.504422,47.3971588 118.976274,50.2579499 119.578099,50.5361622 C128.787585,54.3231235 152.627054,71.6396648 154.201059,72.7988827 C155.775064,73.9581006 151.380926,80.5276702 147.381963,84.297373 C143.508959,87.9483376 138.595961,88.7135781 130.086899,93.8598308 C128.985442,94.5259884 126.358835,94.9565066 122.20708,95.1513855 C122.409949,109.103542 122.545453,116.283157 122.653945,119.608101 C122.653945,119.608101 122.605529,120.071788 122.653945,120.767318 C122.750776,122.807542 122.799192,131.200279 118.441774,134.909777 C117.860786,135.373464 117.231381,135.790782 116.698808,136.068994 C115.53683,136.718156 114.568515,136.95 114.568515,136.95 C114.568515,136.95 114.471683,136.996369 114.471683,136.996369 C83.0498634,144.600838 51.6764593,136.996369 51.6764593,136.996369 C51.6280434,136.95 51.5796279,136.95 51.5796279,136.95 C51.5796279,136.95 50.6113129,136.718156 49.4493351,136.068994 C48.8683461,135.790782 48.2873572,135.419832 47.7063678,134.909777 C43.3973666,131.200279 43.4457823,122.807542 43.5426138,120.767318 C43.5426138,120.118156 43.5426138,119.608101 43.5426138,119.608101 C43.6468568,116.380083 43.776038,109.641148 43.9659534,96.7515462 Z" id="T-shirt" fill="#FF5645" fill-rule="nonzero"></path>
                                    <path d="M63.8860948,107.696586 C71.4514322,106.350933 78.6549826,105.678105 85.496747,105.678105 C89.8710213,105.678105 94.241037,105.953135 98.606795,106.503194 L98.606795,46.8324022 C98.606795,45.8080529 99.435861,44.9776536 100.458566,44.9776536 L104.62505,44.9776536 C105.647755,44.9776536 106.476821,45.8080529 106.476821,46.8324022 L106.476821,107.796857 C116.29221,109.935335 123.370106,118.535527 123.599935,128.586553 C125.587866,137.62539 130.593996,162.105667 136.614391,204.387559 C139.345752,223.769682 141.428995,240.416051 142.956706,253.213816 L142.817823,253.260185 C143.697414,260.957391 144.577005,269.396497 144.762182,271.668564 C145.17883,277.23281 145.965833,285.857391 146.938013,295.919402 C149.437903,322.024989 152.21556,359.490911 153.095151,371.917726 C153.187739,373.540632 153.789565,377.945659 151.335968,381.052363 C150.59526,381.933369 149.900846,382.397056 148.465724,383.231693 C147.308367,383.927224 142.35488,386.199291 132.123846,388.193145 C131.475727,388.285883 130.781313,388.37862 130.086899,388.424989 C119.392922,389.027782 116.66156,388.517726 112.448782,387.590352 C109.624831,386.987559 107.402706,384.530017 106.800881,381.330576 C104.208402,367.419961 96.9864955,329.490352 96.38467,326.105436 C95.5513731,321.839514 94.7643705,317.017168 93.977368,311.499291 C88.1989987,277.472209 83.689678,247.860186 80.4494059,222.663222 C79.7041673,234.979714 78.9647936,247.296207 78.2373162,259.612699 C76.8021938,270.416609 76.0614855,279.04119 75.6911313,284.09538 C75.6911313,284.09538 71.4320585,342.612699 66.1082175,379.754039 C65.9230404,380.959626 65.5526862,383.463537 63.6546212,385.596497 C59.6270197,390.047894 53.9328245,386.709347 36.6650618,385.921078 C36.6650618,385.921078 19.6750647,385.179179 16.0641117,380.959626 C15.3696976,380.124989 14.9530492,379.197615 14.9530492,379.197615 C14.2586351,377.389235 14.3512237,375.719961 14.3975179,375.02443 C18.8417679,331.994263 16.4344658,309.088118 23.3786063,259.009905 C26.6809309,235.238211 32.9306573,199.897804 42.1277856,152.988685 L43.5166137,135.662 L43.5166137,129.607721 C43.5166135,121.011831 48.5284337,113.407027 56.0160666,109.883208 L56.0160666,46.8324022 C56.0160666,45.8080529 56.8451326,44.9776536 57.8678374,44.9776536 L62.0343217,44.9776536 C63.0570265,44.9776536 63.8860925,45.8080529 63.8860925,46.8324022 L63.8860925,107.696587 L63.8860948,107.696586 Z" id="Overall" fill="#FFED00" fill-rule="nonzero"></path>
                                    <path d="M96.1424561,91.270842 C94.6872767,94.1850058 91.8627235,96.3381728 88.3736105,96.8002853 C82.8182981,97.5421847 77.6796341,93.6472126 76.9389258,88.0365981 C76.1982175,82.4259836 80.0869361,77.3254249 85.6885428,76.5835255 C87.0324553,76.4040489 88.3519846,76.495935 89.5907651,76.8178266 L88.6976704,74.8476621 L87.4014308,72.3768824 L87.4014308,72.5315633 C87.6791964,72.2999535 88.0032563,72.1609878 88.3273162,71.9293779 L90.3642641,70.9102942 C91.382738,70.5397187 92.6326833,70.1228208 94.0678057,69.6132792 L94.4844541,69.474313 C94.5307484,69.474313 94.6233369,69.4279912 94.6696312,69.3816693 L95.317751,69.1500594 L95.4103395,69.1500594 L96.4288134,68.8258058 C97.5398759,68.5015517 98.7898212,68.1309761 100.039766,67.7604001 C101.243418,67.3898246 102.447069,67.0192486 103.604425,66.6486726 L104.622899,66.3707409 L104.715488,66.3707409 L105.409902,66.1854533 L105.595079,66.0928091 L106.011727,66.0001654 C107.44685,65.6295894 108.743089,65.2590138 109.807857,65.027404 L112.168865,64.7031499 C112.539219,64.656828 112.909574,64.6105061 113.279928,64.47154 C113.326222,65.3516576 113.41881,66.2317752 113.511399,67.1582147 L116.566821,86.1502233 C116.659409,86.7060873 116.659409,87.2156289 116.566821,87.7251705 C116.520527,87.9567804 116.474232,88.1420684 116.381644,88.466322 C116.150172,89.2537954 115.640935,89.9023032 114.992816,90.4581667 C114.437284,90.9213865 113.974342,91.1993182 111.752217,91.9404697 C110.733743,92.2647238 109.344915,92.7279436 107.77091,93.2374852 C106.196904,93.700705 104.808076,94.0712805 103.789602,94.4418565 C101.521183,95.0440419 100.873063,95.1366861 100.224944,95.0440419 C99.437941,94.9513981 98.6509384,94.5808226 98.0028186,94.1176029 C97.8176415,94.0249586 97.6324645,93.8396706 97.4935816,93.6080608 C97.1695218,93.2374852 96.7991676,92.7742655 96.6139905,92.3110457 L96.1424561,91.270842 Z M87.771785,92.3952573 C90.9660896,91.9779389 93.1882145,89.0103411 92.7715661,85.8572685 C92.3549177,82.7041959 89.3920844,80.4321288 86.244074,80.8494473 C83.0960637,81.2667657 80.8276445,84.2343635 81.2442929,87.3874361 C81.7072356,90.6332462 84.6237746,92.8125758 87.771785,92.3952573 Z" id="Cup" fill="#FFCB3D" fill-rule="nonzero"></path>
                                    <path d="M88.6513761,71.581441 C89.1143188,71.3959661 89.7161443,71.1641226 90.4105583,70.932279 C91.4290323,70.5613293 92.6789776,70.1440108 94.1140999,69.633955 L94.5307484,69.4948488 C94.5770426,69.4948488 94.6696312,69.4484801 94.7159254,69.4021114 L95.3640452,69.1702678 L95.4566338,69.1702678 L96.4751077,68.8456868 C97.5861702,68.5211058 98.8361155,68.1501561 100.086061,67.7792064 C101.289712,67.4082566 102.493363,67.0373069 103.65072,66.6663572 L104.669193,66.3881449 L104.761782,66.3881449 L105.456196,66.2026701 L105.641373,66.1099326 L106.058022,66.0171952 C107.493144,65.6462455 108.789384,65.2752957 109.854152,65.0434522 C110.59486,64.8579773 111.150391,64.7188712 111.705923,64.6261337 C112.631808,64.4406589 113.187339,64.3942902 113.187339,64.5333963 C113.187339,64.6261337 112.955868,64.8116086 112.400337,65.0434522 C110.687449,65.878089 106.289493,67.5009941 100.919358,69.2166365 L100.502709,69.309374 L100.086061,69.4484801 C94.6696312,71.0250164 90.1327927,72.0914969 88.1884334,72.3233404 C87.5866079,72.4160779 87.3088423,72.3697092 87.262548,72.3233404 C87.262548,72.230603 87.7254907,71.9523907 88.6513761,71.581441 Z" id="Shadow-Cup" fill="#474961" fill-rule="nonzero"></path>
                                    <path d="M90.8531297,44.7567931 C91.8548817,44.8744068 92.9055996,45.0079395 94.0052848,45.1573914 C90.4946028,48.402427 87.8222341,50.1860502 85.9881797,50.5082603 C83.2370973,50.9915758 84.5115013,50.9915758 79.8201196,50.9915758 C76.6925319,50.9915758 73.1736582,49.1021022 69.2634979,45.3231549 C71.6379287,44.954062 73.7975332,44.6687849 75.7423115,44.4673235 L75.6522455,40.3777625 C73.2480633,41.2730523 73.3820806,41.1832475 73.1449465,41.2624194 C70.2284075,42.0043188 67.7285169,41.9115814 67.2655742,41.8188439 C65.5989805,41.6797378 63.8397982,40.2886763 62.2657931,37.9238719 C60.1362566,34.7707993 58.2381916,29.8557155 57.2197176,23.9668886 C57.0345406,23.1322518 56.9882463,22.2976149 56.941952,21.462978 L56.7567749,13.162978 C56.7104807,11.3082294 57.1271291,9.45348082 58.0530145,7.78420707 C58.4233687,7.04230763 58.7937228,6.43951433 59.2566655,5.92945847 C59.2709251,5.9111336 59.285218,5.89286975 59.2995428,5.87466683 C59.3164481,5.84687639 59.3330288,5.81879234 59.3492541,5.79035232 C62.9139128,0.828899809 70.3672903,0.179737797 73.7930663,0.550687519 C74.2097147,0.597056234 75.6911313,0.782531094 77.8206678,0.92163724 C78.9780245,1.01437467 79.9039099,1.01437467 80.4594411,1.06074338 C87.3572874,1.33895568 90.0886493,0.504318804 93.5607195,2.35906741 C94.2088393,2.68364841 95.6902559,3.51828528 96.9864955,5.14119031 C100.643743,9.73169311 99.7641517,15.6668886 99.5326803,17.4288998 C98.6993835,22.7149333 95.6439617,25.9607434 94.7180763,27.3054361 C93.6136353,28.9371062 91.7516714,30.9316524 90.4286687,32.2757977 L90.8531297,44.7567931 Z M136.614014,156.011844 L151.026193,181.956227 C152.507609,184.911805 149.683659,188.206547 146.720826,186.946793 C141.001364,184.510782 136.30435,181.286992 132.540417,177.987377 C132.084357,174.717588 131.135732,169.115884 129.694543,161.182264 L129.679857,161.18893 C128.741846,156.027942 127.596718,149.886417 126.244474,142.764354 L126.244474,140.376133 L148.187958,109.829492 C140.603184,103.143675 137.60175,101.230877 130.108729,93.8227326 C138.489889,88.7892848 143.354216,88.0068762 147.19551,84.3858042 C149.92739,81.8105428 152.843694,77.9286119 153.915683,75.3575752 C166.17681,84.8204427 174.071408,92.6659176 175.779343,97.0462254 C177.168171,100.618021 177.445937,104.142818 177.445937,104.142818 C177.862585,109.970483 176.057109,114.576219 175.362694,116.315119 C170.47656,128.594552 148.0348,147.139556 136.614014,156.011844 Z M82.2839701,80.6543987 C83.2877859,80.5493601 84.3487126,81.0051984 84.9455466,81.8849659 L85.6799288,83.0192041 C86.2889036,83.9811124 86.2368929,85.1395615 85.6693469,86.0006689 C86.4238759,86.1249542 87.1251901,86.5593331 87.5679744,87.261859 L88.2824811,88.4087613 C88.6705405,89.0460488 88.7732712,89.7627769 88.6340324,90.42066 C89.2482634,90.613347 89.7955862,91.0109523 90.1434311,91.5761549 L90.8579378,92.7230573 C91.6682514,94.0537884 91.2344649,95.7309003 89.9513502,96.4953456 L82.5213481,100.939728 C69.3614797,111.164908 57.3337168,123.322564 43.5691249,132.475419 C27.1346591,143.093855 15.5147973,144.160335 8.61695111,139.894413 C2.59869602,136.184916 -3.69732469,134.562011 2.64499029,116.014525 C4.65125585,110.227189 10.5527022,101.130591 16.0085943,92.8912932 C17.9845966,94.2581552 21.857919,95.7724643 29.4937606,96.8695305 C33.4628181,97.439778 38.1740732,96.8011236 41.0673281,96.8695305 C42.8192165,96.9109512 45.0500182,96.6319543 47.7597331,96.0325394 L47.8914222,96.1023318 L48.3543649,100.846132 C42.9112171,104.003087 40.1896432,105.581564 40.1896432,105.581564 C48.2188584,100.975605 53.0667633,98.1471137 54.733357,97.0960894 L59.0486723,94.4636261 C67.3729774,87.0340592 81.0149724,74.5087879 81.0149724,74.5087879 C83.1142157,76.1393906 83.1870764,78.3612371 82.2839701,80.6543987 Z" id="Skin" fill="#FBBB99" fill-rule="nonzero"></path>
                                    <polygon id="Shadow" fill="#482D1F" fill-rule="nonzero" points="75.5522485 40.3509706 82.1723291 37.4601847 75.7747684 44.9776536"></polygon>
                                    <path d="M92.2488205,19.7086697 C92.2603292,18.4292797 91.9191604,17.1252202 91.1071232,15.9914696 C89.6257066,13.9048775 86.8480504,12.7456596 84.6259254,13.487559 C83.3759801,13.9048775 82.5426833,14.8786205 82.4500947,14.9713579 C81.2001495,16.5478942 80.9223838,18.217168 80.9223838,18.217168 L80.8884548,18.5517745 C77.5471927,15.0828373 73.3893756,10.7946028 70.2628625,7.4971716 C68.361335,8.01965146 65.2238154,8.54213131 61.6584525,7.78216064 C61.0301258,7.64264997 60.2650945,7.35801325 59.3633595,6.92825042 C59.334913,6.91469694 59.3071443,6.89976093 59.2801501,6.88349858 C58.8209295,6.60684665 58.6725684,6.0097056 58.9487762,5.54974673 C62.6567542,0.467442678 70.4530152,-0.197531683 74.0183782,0.182453665 C74.4937601,0.229951833 76.0149815,0.419944508 78.2492758,0.562439011 C79.4852685,0.657435349 80.436032,0.657435349 81.0064903,0.704933518 C88.232293,0.989922531 91.0845835,0.134955496 94.697485,2.03488224 C95.3630193,2.36736942 96.9317789,3.22233645 98.262848,4.88477234 C102.398669,9.91957821 101.400368,16.046842 100.924986,17.471787 C100.592219,18.4692486 100.301841,19.0998441 99.7931634,19.4347444 C99.5206184,19.6141813 96.2349645,19.705961 92.2488205,19.7086697 Z M58.3770744,18.86633 C57.9141317,18.7735925 57.7752489,18.1707993 58.0993088,17.8462182 C58.5159572,17.4752685 59.2566655,17.1043188 60.1825509,17.1043188 C62.080616,17.1043188 64.1175639,18.3562741 61.9880274,18.9126987 C60.7380821,19.2372797 59.2566655,19.0518048 58.3770744,18.86633 Z M67.913694,19.190911 C67.4507513,19.0981736 67.3118685,18.4953803 67.6822226,18.1707993 C68.0988711,17.7998495 68.8395794,17.4288998 69.8117591,17.4288998 C71.7098241,17.4288998 73.746772,18.7272238 71.6172356,19.2372797 C70.2747018,19.6082294 68.7932851,19.3763858 67.913694,19.190911 Z" id="Hair" fill="#482D1F" fill-rule="nonzero"></path>
                                    <path d="M61.9880274,22.11214 C61.9417332,22.9004082 61.8028504,24.1987322 61.3399077,24.6624194 C60.5529051,25.3579501 59.5344311,23.0395143 60.1362566,21.6020842 C60.367728,20.9992909 60.6917879,20.9065534 61.062142,20.9529222 C61.6176733,21.0456596 61.9880274,21.5557155 61.9880274,22.11214 Z M70.2747018,22.0194026 C70.320996,22.8076708 70.320996,24.1059948 69.8580533,24.6624194 C69.1636393,25.4506875 67.8673997,23.2249892 68.3303424,21.7411903 C68.5155195,21.138397 68.8395794,20.9992909 69.2099335,20.9992909 C69.7654648,20.9992909 70.2284075,21.462978 70.2747018,22.0194026 Z" id="Combined-Shape" fill="#482D1F" fill-rule="nonzero"></path>
                                    <path d="M66.4785716,31.5249892 C66.8026315,31.4322518 67.5896341,31.2004082 67.7285169,30.6903523 C67.7285169,30.5976149 67.7748112,30.4585087 67.7285169,30.3657713 C67.5433398,30.0411903 66.9878086,30.2266652 66.1545117,30.2730339 C64.6730951,30.3657713 63.4694441,30.2266652 63.4694441,30.2266652 C63.4694441,30.2266652 63.793504,31.1540395 64.0249753,31.4322518 C64.487918,32.1277825 65.9693346,31.6640953 66.4785716,31.5249892 Z" id="Path" fill="#482D1F" fill-rule="nonzero"></path>
                                    <path d="M63.793504,19.4691233 L63.793504,22.2048775 L63.0990899,27.16633 C63.0527956,27.4445423 63.284267,27.7227546 63.5620326,27.7691233 C64.1638581,27.815492 64.7193894,27.8618607 65.7841576,27.8618607" id="Path" stroke="#482D1F" stroke-width="2" stroke-linecap="round" stroke-linejoin="round"></path>
                                    <path d="M92.1311469,18.5205941 C92.0916764,18.2675767 92.264461,18.030417 92.5170722,17.9908831 C92.7696833,17.9513491 93.0064623,18.1244116 93.0459328,18.377429 C93.2884245,19.9318707 93.011276,21.6106548 92.3081943,22.9686692 C91.8193096,23.9480112 91.1415319,24.7366727 90.3316757,25.3651378 C89.7818863,25.7917858 89.3069659,26.0587911 88.7086439,26.3353838 C88.4765004,26.4426993 88.2014541,26.3412035 88.0943111,26.1086866 C87.9871677,25.8761697 88.0885007,25.6006811 88.3206443,25.4933656 C89.6813666,24.8643298 90.734802,24.0468424 91.4831461,22.5478589 C92.0989048,21.3584153 92.3430974,19.8792572 92.1311469,18.5205941 Z M48.7090957,100.473152 C48.7231988,100.49545 48.7361843,100.518783 48.7479408,100.543111 C48.9150256,100.88887 48.7706319,101.304831 48.425428,101.472184 L35.0000897,107.980747 C34.6548857,108.1481 34.2395934,108.003475 34.0725083,107.657716 C33.9054231,107.311957 34.049817,106.895996 34.3950209,106.728642 L47.3846653,100.431303 C47.3674544,100.369728 47.3584993,100.304725 47.3590627,100.23758 C47.378347,97.9390351 47.3937774,95.7347874 47.4284948,90.5013735 C47.4632188,85.2670499 47.4786514,83.0624058 47.4979455,80.7627202 C47.501168,80.3786027 47.8146696,80.0698306 48.1981704,80.0730086 C48.5816707,80.0762865 48.8899471,80.3902917 48.8867495,80.7744093 C48.8674402,83.0729542 48.8520098,85.2772024 48.8172924,90.5106162 C48.7825684,95.7449398 48.7671358,97.9495839 48.7478417,100.24927 C48.7471834,100.327711 48.7335863,100.40301 48.7090957,100.473152 Z" id="Shadow" fill="#482D1F" fill-rule="nonzero"></path>
                                    <path d="M129.161013,158.261251 L135.980555,154.871508 L151.026193,181.956227 C152.507609,184.911805 149.683659,188.206547 146.720826,186.946793 C141.001364,184.510782 136.30435,181.286992 132.540417,177.987377 C132.030272,174.329813 130.903803,167.754437 129.161013,158.261251 Z" id="Shadow-Arm" fill="#8C2A00" fill-rule="nonzero" opacity="0.2"></path>
                                    <path d="M66.1337645,119.115247 C66.0623806,124.181063 65.3394719,127.717354 63.9650386,129.724119 C62.4603285,131.921098 59.0890187,133.893153 53.85111,135.640285 L53.8511095,135.640284 C52.7014386,136.023762 51.932631,137.109463 51.951414,138.323012 C51.9964189,141.230776 51.888188,143.403669 51.6267217,144.841691 C51.3066121,146.602238 51.3066121,151.027447 51.6267217,158.117318 L115.363132,156.747164 L115.881946,144.841691 L115.15467,137.185397 C115.0403,135.98142 114.162459,134.98936 112.982858,134.731007 C108.662045,133.784674 105.652718,132.04944 103.954876,129.525305 C102.417987,127.240453 101.733921,123.83401 101.902678,119.305975 C101.978978,117.258702 100.383854,115.537105 98.3398677,115.460682 C98.2938364,115.458961 98.2477773,115.458101 98.2017136,115.458101 L69.8369348,115.458101 C67.8119086,115.458101 66.1623429,117.087167 66.1337645,119.115247 Z" id="Pocket" fill="#444444" fill-rule="nonzero" opacity="0.176985679"></path>
                                </g>
                            </g>
                            <g id="Interior-/-Table-/-Table-5" transform="translate(8.000000, 181.000000)">
                                <g id="Table">
                                    <path d="M311.638851,253 C311.638851,239.38679 300.63461,228.351103 287.060192,228.351103 L54.2585499,228.351103 C40.6841312,228.351103 29.6798906,239.38679 29.6798906,253 L0,253 L0,23.71875 C0,10.6192461 10.5889863,0 23.6511628,0 L315.348837,0 C328.411014,0 339,10.6192461 339,23.71875 L339,253 L311.638851,253 Z" id="Combined-Shape" fill="#F2F6FB" fill-rule="nonzero"></path>
                                    <path d="M23.6511628,-9.91363855e-15 L315.348837,-9.91363855e-15 C328.411014,-9.91363855e-15 339,10.6192461 339,23.71875 L339,26.6254596 L0,26.6254596 L0,23.71875 C0,10.6192461 10.5889863,-9.91363855e-15 23.6511628,-9.91363855e-15 Z M121.038304,82.7830882 L215.179207,82.7830882 L202.299953,192.540441 L135.902576,192.540441 L121.038304,82.7830882 Z M162.606959,125.443687 C160.366319,123.403416 157.717859,122.198659 155.009713,122.222304 C148.572631,122.278507 144.235922,129.253665 145.323403,137.801755 C146.410883,146.349845 152.510746,153.23388 158.947827,153.177677 C160.36192,153.16533 161.674652,152.819082 162.850784,152.195608 C163.517891,152.786228 164.247962,153.314221 165.039605,153.770519 C172.907667,158.305558 183.878302,154.041054 189.54326,144.245487 C195.208132,134.449869 193.422139,122.832579 185.554102,118.297496 C178.355676,114.148426 168.560312,117.364811 162.606959,125.443687 Z" id="Combined-Shape" fill="#E1E5F0" fill-rule="nonzero"></path>
                                    <path d="M124.852414,71.15625 C124.340172,71.15625 123.924918,70.7398087 123.924918,70.2261029 C123.924918,70.1931688 123.926662,70.1602578 123.930143,70.1275097 L125.166011,58.5006714 C125.200879,58.1726481 125.402997,57.8995658 125.681837,57.7630495 C125.677809,57.7318007 125.675787,57.7004892 125.675787,57.6691176 C125.675787,54.5868814 145.192742,52.0882353 169.268126,52.0882353 C193.34351,52.0882353 212.860465,54.5868814 212.860465,57.6691176 C212.860465,57.8795983 212.769452,58.0873578 212.592189,58.291786 C212.61325,58.3522074 212.628341,58.4156207 212.636718,58.4813686 L214.118172,70.1082068 C214.183098,70.6177693 213.823827,71.0836357 213.315716,71.1487479 C213.276727,71.1537442 213.237461,71.15625 213.198156,71.15625 L221.207934,71.15625 C221.720176,71.15625 222.135431,71.5726913 222.135431,72.0863971 L222.135431,81.8529412 C222.135431,82.366647 221.720176,82.7830882 221.207934,82.7830882 L114.545828,82.7830882 C114.033586,82.7830882 113.618331,82.366647 113.618331,81.8529412 L113.618331,72.0863971 C113.618331,71.5726913 114.033586,71.15625 114.545828,71.15625 L124.852414,71.15625 Z M126.296463,104.176471 L212.219571,104.176471 C214.780781,104.176471 216.857053,106.258676 216.857053,108.827206 C216.857053,109.027392 216.844165,109.227369 216.818469,109.425889 L209.353838,167.095007 C209.053844,169.412655 207.085373,171.147059 204.75494,171.147059 L133.538605,171.147059 C131.201449,171.147059 129.229501,169.402911 128.937467,167.077446 L121.695325,109.408328 C121.375295,106.859929 123.175858,104.533865 125.716996,104.21292 C125.909203,104.188644 126.102738,104.176471 126.296463,104.176471 Z M162.78377,125.243604 C160.543131,123.203333 157.894671,121.998576 155.186525,122.022221 C148.749442,122.078424 144.412734,129.053582 145.500214,137.601672 C146.587694,146.149762 152.687557,153.033797 159.124639,152.977594 C160.538732,152.965247 161.851463,152.618999 163.027595,151.995525 C163.694702,152.586145 164.424774,153.114138 165.216416,153.570436 C173.084479,158.105474 184.055114,153.840971 189.720072,144.045404 C195.384944,134.249786 193.59895,122.632496 185.730914,118.097413 C178.532488,113.948343 168.737123,117.164728 162.78377,125.243604 Z" id="Combined-Shape" fill="#D8DEED" fill-rule="nonzero"></path>
                                    <ellipse id="Oval" fill="#E1E5F0" fill-rule="nonzero" cx="169.268126" cy="191.145221" rx="33.3898769" ry="5.58088235"></ellipse>
                                    <path d="M159.776497,125.184428 C158.323062,124.240555 159.221431,134.569516 156.219886,138.97796 C152.941131,143.793551 146.577049,144.005847 143.48354,147.326191" id="Shape" stroke="#D8DEED" stroke-width="5" stroke-linecap="round" stroke-linejoin="round" transform="translate(151.630019, 136.225010) rotate(-33.000000) translate(-151.630019, -136.225010) "></path>
                                    <path d="M190.590131,121.327322 C190.590131,121.327322 182.521527,123.828115 177.958198,129.742798 C173.394869,135.657481 176.373529,139.250239 172.796507,146.567196 C171.590854,149.033414 169.100773,151.535235 165.326265,154.072659" id="Path" stroke="#D8DEED" stroke-width="5" stroke-linecap="round" stroke-linejoin="round"></path>
                                </g>
                            </g>
                            <g id="Active-objects-/-Devices-/-Cash" transform="translate(42.000000, 121.000000)" fill-rule="nonzero">
                                <g id="Cash">
                                    <path d="M66.990991,46.0992366 L98.3783784,46.0992366 C101.483114,46.0992366 104,48.6009738 104,51.6870229 L104,61 L24.3603604,61 L0,61 L0,0 L61.3693694,0 C64.4741053,0 66.990991,2.50173712 66.990991,5.58778626 L66.990991,46.0992366 Z" id="Cash-Machine" fill="#474961"></path>
                                    <path d="M66.990991,46.0992366 L98.3783784,46.0992366 C101.483114,46.0992366 104,48.6009738 104,51.6870229 L104,61 L66.990991,61 L66.990991,46.0992366 Z" id="Shadow" fill="#444444" opacity="0.176985679"></path>
                                </g>
                            </g>
                        </g>
                    </g>
                </g>
            </g>
        </g>
    </g>
</svg>