<?xml version="1.0" encoding="UTF-8"?>
<svg width="590px" height="405px" viewBox="0 0 590 405" version="1.1" xmlns="http://www.w3.org/2000/svg" xmlns:xlink="http://www.w3.org/1999/xlink">
    <!-- Generator: Sketch 61.2 (89653) - https://sketch.com -->
    <title>11</title>
    <desc>Created with Sketch.</desc>
    <g id="Design" stroke="none" stroke-width="1" fill="none" fill-rule="evenodd">
        <g id="03_Verkaufen" transform="translate(-940.000000, -238.000000)">
            <g id="Hero" transform="translate(388.000000, 151.000000)">
                <g id="11" transform="translate(552.000000, 87.000000)">
                    <g id="Interior-/-Shelf-/-Shelf-3" transform="translate(275.000000, 11.000000)" fill-rule="nonzero">
                        <g id="Shelf-3">
                            <path d="M259.124487,11.9077875 L292.831737,11.9077875 L292.831737,50.6446295 L259.124487,50.6446295 L259.124487,11.9077875 Z M205.192886,6.43410324 L238.900137,6.43410324 L238.900137,46.4341032 L205.192886,46.4341032 L205.192886,6.43410324 Z M19.3816689,6.43410324 L53.0889193,6.43410324 L53.0889193,46.4341032 L19.3816689,46.4341032 L19.3816689,6.43410324 Z M90.1668947,62.3157895 L115.868673,62.3157895 L115.868673,91.7894737 L90.1668947,91.7894737 L90.1668947,62.3157895 Z M133.143639,62.3157895 L158.845417,62.3157895 L158.845417,91.7894737 L133.143639,91.7894737 L133.143639,62.3157895 Z" id="Combined-Shape" fill="#D8DEED"></path>
                            <path d="M248.969098,67.1050392 L269.803851,67.1050392 L266.953485,91.9471444 L252.258778,91.9471444 L248.969098,67.1050392 Z M15.5463889,67.0932935 L36.3811428,67.0932935 L33.5307762,91.9077874 L18.836069,91.9077874 L15.5463889,67.0932935 Z M275.092217,67.1050392 L295.92697,67.1050392 L293.076604,91.9471444 L278.381897,91.9471444 L275.092217,67.1050392 Z M41.6695079,67.0932935 L62.5042619,67.0932935 L59.653895,91.9077874 L44.9591881,91.9077874 L41.6695079,67.0932935 Z M254.911081,13.1709453 L286.932969,13.1709453 C287.398368,13.1709453 287.77565,13.5479687 287.77565,14.0130506 L287.77565,49.8025242 C287.77565,50.2676063 287.398368,50.6446295 286.932969,50.6446295 L254.911081,50.6446295 C254.445681,50.6446295 254.068399,50.2676063 254.068399,49.8025242 L254.068399,14.0130506 C254.068399,13.5479687 254.445681,13.1709453 254.911081,13.1709453 Z M200.97948,7.69726114 L233.001368,7.69726114 C233.466768,7.69726114 233.844049,8.07428451 233.844049,8.5393664 L233.844049,45.5919979 C233.844049,46.05708 233.466768,46.4341032 233.001368,46.4341032 L200.97948,46.4341032 C200.51408,46.4341032 200.136799,46.05708 200.136799,45.5919979 L200.136799,8.5393664 C200.136799,8.07428451 200.51408,7.69726114 200.97948,7.69726114 Z M76.2626539,22.0130506 L99.8577291,22.0130506 L99.8577291,46.4341032 L76.2626539,46.4341032 L76.2626539,22.0130506 Z M133.564979,8.88722825 C133.564979,8.88722825 130.615595,3.25688284 133.564979,1.72974469 C135.531236,0.711652581 136.654811,2.8411756 136.935705,8.11831377 C134.688555,8.63092341 133.564979,8.88722825 133.564979,8.88722825 Z M139.6621,10.0811624 C139.6621,10.0811624 143.865111,5.3118216 146.348757,7.51614968 C148.004521,8.98570177 146.417734,10.7970852 141.588395,12.9503 C140.304198,11.0375416 139.6621,10.0811624 139.6621,10.0811624 Z M140.361915,15.4670133 C140.361915,15.4670133 146.617545,16.610842 146.005947,19.8736002 C145.598215,22.0487723 143.227239,21.622491 138.893017,18.5947563 C139.872283,16.5095943 140.361915,15.4670133 140.361915,15.4670133 Z M137.855771,36.7564061 C126.595335,28.8112713 120.922897,23.4401322 120.838455,20.6429888 C120.711792,16.4472737 125.312184,17.1094909 128.015157,19.545138 C130.71813,21.9807851 117.526964,8.81447124 123.302139,9.5964816 C129.077315,10.378492 114.534159,-0.441494602 119.876196,0.28186497 C122.295678,0.609484408 130.926794,3.8521865 135.154911,14.5681647 C136.48522,17.9397749 137.385507,25.3358554 137.855771,36.7564061 Z M15.1682627,7.69726114 L47.1901505,7.69726114 C47.6555503,7.69726114 48.0328317,8.07428451 48.0328317,8.5393664 L48.0328317,45.5919979 C48.0328317,46.05708 47.6555503,46.4341032 47.1901505,46.4341032 L15.1682627,46.4341032 C14.7028626,46.4341032 14.3255814,46.05708 14.3255814,45.5919979 L14.3255814,8.5393664 C14.3255814,8.07428451 14.7028626,7.69726114 15.1682627,7.69726114 Z M33.0296237,31.7303537 C33.5565974,32.1339418 34.2336363,32.5025537 34.9759954,32.5384509 C35.7553621,32.5761376 37.1576934,32.0580354 39.1829895,30.9841442 C38.2340375,30.2741198 37.4370826,29.7378935 36.7921247,29.3754652 C37.4627793,28.5578475 38.0383928,26.6731885 38.5189651,23.7214882 C36.5279003,24.2729827 35.0487874,24.78999 34.0816266,25.2725101 C33.2570588,22.5831914 31.1722092,20.5953976 28.9887052,20.6151874 C26.4379936,20.6383053 24.7185578,23.3922766 25.1482378,26.7663546 C25.5779179,30.1404325 27.9940028,32.8569223 30.5447144,32.8338044 C31.5186735,32.8249771 32.3714323,32.4179902 33.0296237,31.7303537 Z M87.2175103,62.1974758 L111.233926,62.1974758 C111.699326,62.1974758 112.076607,62.5744989 112.076607,63.0395811 L112.076607,90.9473684 C112.076607,91.4124501 111.699326,91.7894737 111.233926,91.7894737 L87.2175103,91.7894737 C86.7521105,91.7894737 86.374829,91.4124501 86.374829,90.9473684 L86.374829,63.0395811 C86.374829,62.5744989 86.7521105,62.1974758 87.2175103,62.1974758 Z M100.288451,80.5876383 C100.723062,80.9200034 101.291822,81.2322455 101.917748,81.2616455 C102.55084,81.2913823 103.689976,80.8825743 105.335157,80.0352215 C104.481502,79.4147949 103.779268,78.9625491 103.228455,78.6784829 C103.718392,78.0577625 104.139733,76.6737065 104.492476,74.5263158 C103.078382,74.9145314 102.010236,75.2796488 101.288037,75.6216682 C100.677413,73.5369806 99.0609786,71.9848863 97.3668687,72.0001112 C95.4167075,72.0176366 94.1021032,74.1054227 94.4306175,76.663312 C94.7591321,79.2212013 96.6063632,81.2805726 98.5565239,81.2630467 C99.2208665,81.2570766 99.8114529,81.0108539 100.288451,80.5876383 Z M130.194254,62.1974758 L154.21067,62.1974758 C154.67607,62.1974758 155.053352,62.5744989 155.053352,63.0395811 L155.053352,90.9473684 C155.053352,91.4124501 154.67607,91.7894737 154.21067,91.7894737 L130.194254,91.7894737 C129.728855,91.7894737 129.351573,91.4124501 129.351573,90.9473684 L129.351573,63.0395811 C129.351573,62.5744989 129.728855,62.1974758 130.194254,62.1974758 Z M143.265195,80.5876383 C143.699806,80.9200034 144.268566,81.2322455 144.894492,81.2616455 C145.527584,81.2913823 146.666721,80.8825743 148.311902,80.0352215 C147.458246,79.4147949 146.756012,78.9625491 146.205199,78.6784829 C146.695137,78.0577625 147.116477,76.6737065 147.46922,74.5263158 C146.055126,74.9145314 144.98698,75.2796488 144.264781,75.6216682 C143.654157,73.5369806 142.037723,71.9848863 140.343613,72.0001112 C138.393452,72.0176366 137.078847,74.1054227 137.407362,76.663312 C137.735876,79.2212013 139.583107,81.2805726 141.533268,81.2630467 C142.197611,81.2570766 142.788197,81.0108539 143.265195,80.5876383 Z" id="Combined-Shape" fill="#F2F6FB"></path>
                            <path d="M0,91.7894737 L308,91.7894737 L308,96 L0,96 L0,91.7894737 Z M0,46.4341032 L308,46.4341032 L308,50.6446295 L0,50.6446295 L0,46.4341032 Z" id="Combined-Shape" fill="#E1E5F0"></path>
                            <path d="M86.374829,18.2235769 L86.374829,14.4341032 C86.374829,13.9690213 86.7521105,13.591998 87.2175103,13.591998 L89.3242134,13.591998 C89.7896132,13.591998 90.1668947,13.9690213 90.1668947,14.4341032 L90.1668947,18.2235769 L100.70041,18.2235769 C101.16581,18.2235769 101.543092,18.6006003 101.543092,19.0656822 L101.543092,21.1709453 C101.543092,21.6360272 101.16581,22.0130506 100.70041,22.0130506 L75.8413133,22.0130506 C75.3759135,22.0130506 74.998632,21.6360272 74.998632,21.1709453 L74.998632,19.0656822 C74.998632,18.6006003 75.3759135,18.2235769 75.8413133,18.2235769 L86.374829,18.2235769 Z M252.383037,9.38147166 L294.93844,9.38147166 C295.40384,9.38147166 295.781122,9.75849503 295.781122,10.2235769 L295.781122,12.3288401 C295.781122,12.793922 295.40384,13.1709453 294.93844,13.1709453 L252.383037,13.1709453 C251.917637,13.1709453 251.540356,12.793922 251.540356,12.3288401 L251.540356,10.2235769 C251.540356,9.75849503 251.917637,9.38147166 252.383037,9.38147166 Z M249.535902,64.4979305 L249.812445,62.2146067 C249.86366,61.7917444 250.222782,61.4736842 250.649021,61.4736842 L268.457931,61.4736842 C268.889895,61.4736842 269.251907,61.8000943 269.296176,62.2294901 L269.530037,64.4979305 L270.500684,64.4979305 C270.966084,64.4979305 271.343365,64.8749537 271.343365,65.3400358 L271.343365,66.2629339 C271.343365,66.7280156 270.966084,67.1050392 270.500684,67.1050392 L248.169631,67.1050392 C247.704231,67.1050392 247.326949,66.7280156 247.326949,66.2629339 L247.326949,65.3400358 C247.326949,64.8749537 247.704231,64.4979305 248.169631,64.4979305 L249.535902,64.4979305 Z M250.399343,71.9021192 L268.881367,71.9021192 C269.579467,71.9021192 270.145389,72.4676543 270.145389,73.1652771 C270.145389,73.2187604 270.14199,73.2721899 270.135212,73.3252429 L268.539473,85.8158733 C268.458903,86.4465309 267.921839,86.9190653 267.285627,86.9190653 L251.94752,86.9190653 C251.309505,86.9190653 250.771511,86.4439225 250.693084,85.8111785 L249.144907,73.3205482 C249.059095,72.628216 249.55116,71.9974526 250.243966,71.9116985 C250.295512,71.9053183 250.347403,71.9021192 250.399343,71.9021192 Z M16.1131931,64.4861844 L16.3897363,62.2028611 C16.440951,61.7799987 16.8000731,61.4619385 17.2263125,61.4619385 L35.0352224,61.4619385 C35.4671861,61.4619385 35.829199,61.7883486 35.8734669,62.2177444 L36.1073284,64.4861844 L37.0779754,64.4861844 C37.5433754,64.4861844 37.9206566,64.863208 37.9206566,65.3282897 L37.9206566,66.2511882 C37.9206566,66.7162699 37.5433754,67.0932935 37.0779754,67.0932935 L14.746922,67.0932935 C14.281522,67.0932935 13.9042408,66.7162699 13.9042408,66.2511882 L13.9042408,65.3282897 C13.9042408,64.863208 14.281522,64.4861844 14.746922,64.4861844 L16.1131931,64.4861844 Z M16.9766348,71.8903735 L35.4586581,71.8903735 C36.1567581,71.8903735 36.72268,72.4559082 36.72268,73.1535314 C36.72268,73.2070147 36.7192808,73.2604442 36.712503,73.3134973 L35.116764,85.8041276 C35.0361944,86.4347853 34.4991304,86.9073196 33.8629191,86.9073196 L18.5248116,86.9073196 C17.8867964,86.9073196 17.3488026,86.4321768 17.2703758,85.7994328 L15.722199,73.3088025 C15.6363864,72.6164703 16.1284516,71.9857069 16.8212574,71.8999528 C16.8728038,71.8935726 16.9246945,71.8903735 16.9766348,71.8903735 Z M275.708022,64.4979305 L275.946165,62.2279844 C275.991145,61.7992451 276.352869,61.4736842 276.784254,61.4736842 L294.597969,61.4736842 C295.022739,61.4736842 295.381107,61.7896177 295.434073,62.2107857 L295.721702,64.4979305 L296.623803,64.4979305 C297.089203,64.4979305 297.466484,64.8749537 297.466484,65.3400358 L297.466484,66.2629339 C297.466484,66.7280156 297.089203,67.1050392 296.623803,67.1050392 L274.29275,67.1050392 C273.82735,67.1050392 273.450068,66.7280156 273.450068,66.2629339 L273.450068,65.3400358 C273.450068,64.8749537 273.82735,64.4979305 274.29275,64.4979305 L275.708022,64.4979305 Z M276.522462,72.4414855 L295.004486,72.4414855 C295.702586,72.4414855 296.268508,73.0070206 296.268508,73.7046434 C296.268508,73.7581267 296.265109,73.8115562 296.258331,73.8646093 L294.662592,86.3552396 C294.582022,86.9858973 294.044958,87.4584316 293.408746,87.4584316 L278.070639,87.4584316 C277.432624,87.4584316 276.89463,86.9832888 276.816203,86.3505448 L275.268026,73.8599145 C275.182214,73.1675823 275.674279,72.5368189 276.367085,72.4510648 C276.418631,72.4446846 276.470522,72.4414855 276.522462,72.4414855 Z M42.2853133,64.4861844 L42.5234567,62.2162387 C42.5684365,61.7874989 42.9301603,61.4619385 43.3615449,61.4619385 L61.17526,61.4619385 C61.6000308,61.4619385 61.9583987,61.777872 62.0113645,62.19904 L62.2989931,64.4861844 L63.2010944,64.4861844 C63.6664942,64.4861844 64.0437756,64.863208 64.0437756,65.3282897 L64.0437756,66.2511882 C64.0437756,66.7162699 63.6664942,67.0932935 63.2010944,67.0932935 L40.870041,67.0932935 C40.404641,67.0932935 40.0273598,66.7162699 40.0273598,66.2511882 L40.0273598,65.3282897 C40.0273598,64.863208 40.404641,64.4861844 40.870041,64.4861844 L42.2853133,64.4861844 Z M43.0997537,72.4297398 L61.581777,72.4297398 C62.2798769,72.4297398 62.8457989,72.9952749 62.8457989,73.6928977 C62.8457989,73.7463811 62.8424,73.7998105 62.8356223,73.8528636 L61.2398831,86.3434939 C61.1593135,86.9741516 60.6222496,87.4466859 59.9860379,87.4466859 L44.6479307,87.4466859 C44.0099152,87.4466859 43.4719214,86.9715432 43.3934947,86.3387992 L41.845318,73.8481688 C41.7595054,73.1558366 42.2515706,72.5250733 42.9443764,72.4393192 C42.9959228,72.4329389 43.0478134,72.4297398 43.0997537,72.4297398 Z M198.451436,3.90778745 L241.00684,3.90778745 C241.47224,3.90778745 241.849521,4.28481082 241.849521,4.74989272 L241.849521,6.85515587 C241.849521,7.32023777 241.47224,7.69726114 241.00684,7.69726114 L198.451436,7.69726114 C197.986037,7.69726114 197.608755,7.32023777 197.608755,6.85515587 L197.608755,4.74989272 C197.608755,4.28481082 197.986037,3.90778745 198.451436,3.90778745 Z M85.1108071,59.3684211 L117.132695,59.3684211 C117.598095,59.3684211 117.975376,59.7454446 117.975376,60.2105263 L117.975376,61.4736842 C117.975376,61.9387659 117.598095,62.3157895 117.132695,62.3157895 L85.1108071,62.3157895 C84.6454073,62.3157895 84.2681259,61.9387659 84.2681259,61.4736842 L84.2681259,60.2105263 C84.2681259,59.7454446 84.6454073,59.3684211 85.1108071,59.3684211 Z M128.087551,59.3684211 L160.109439,59.3684211 C160.574839,59.3684211 160.95212,59.7454446 160.95212,60.2105263 L160.95212,61.4736842 C160.95212,61.9387659 160.574839,62.3157895 160.109439,62.3157895 L128.087551,62.3157895 C127.622152,62.3157895 127.24487,61.9387659 127.24487,61.4736842 L127.24487,60.2105263 C127.24487,59.7454446 127.622152,59.3684211 128.087551,59.3684211 Z M12.6402189,3.90778745 L55.1956224,3.90778745 C55.6610222,3.90778745 56.0383037,4.28481082 56.0383037,4.74989272 L56.0383037,6.85515587 C56.0383037,7.32023777 55.6610222,7.69726114 55.1956224,7.69726114 L12.6402189,7.69726114 C12.1748189,7.69726114 11.7975376,7.32023777 11.7975376,6.85515587 L11.7975376,4.74989272 C11.7975376,4.28481082 12.1748189,3.90778745 12.6402189,3.90778745 Z M76.2626539,35.0656822 L99.8577291,35.0656822 L99.8577291,46.4341032 L76.2626539,46.4341032 L76.2626539,35.0656822 Z M128.508892,29.1709453 L138.199726,29.1709453 C143.086427,29.1709453 147.04788,33.1296907 147.04788,38.0130506 L147.04788,46.0130505 C147.04788,46.4781326 146.670598,46.8551558 146.205198,46.8551558 L120.50342,46.8551558 C120.03802,46.8551558 119.660739,46.4781326 119.660739,46.0130505 L119.660739,38.0130506 C119.660739,33.1296907 123.622192,29.1709453 128.508892,29.1709453 Z M135.461012,20.7498927 C131.854162,20.7498927 128.930233,17.9222174 128.930233,14.4341032 C128.930233,10.945989 131.854162,8.11831377 135.461012,8.11831377 C139.067863,8.11831377 141.991792,10.945989 141.991792,14.4341032 C141.991792,17.9222174 139.067863,20.7498927 135.461012,20.7498927 Z" id="Combined-Shape" fill="#E1E5F0"></path>
                        </g>
                    </g>
                    <g id="Characters-standing-/-Man-standing-/-2" transform="translate(381.000000, 28.000000)">
                        <path d="M158.921615,377 L115.827791,377 C114.818765,377 113.935867,376.27095 113.935867,375.39609 L113.935867,374.812849 C113.935867,373.937989 114.776722,373.208939 115.827791,373.208939 L158.921615,373.208939 C159.930641,373.208939 160.813539,373.937989 160.813539,374.812849 L160.813539,375.39609 C160.813539,376.27095 159.972684,377 158.921615,377 Z M70.4216152,373.208939 C71.4664958,373.208939 72.3135392,374.057597 72.3135392,375.104469 C72.3135392,376.151342 71.4664958,377 70.4216152,377 L1.89192399,377 C0.84704338,377 0,376.151342 0,375.104469 C0,374.057597 0.84704338,373.208939 1.89192399,373.208939 L70.4216152,373.208939 Z" id="Base" fill="#FF5645" fill-rule="nonzero"></path>
                        <path d="M70.5215227,373.211536 C70.488438,373.209812 70.4551283,373.208939 70.4216152,373.208939 L2.18968634,373.208939 C2.14447566,372.978275 2.12154638,372.687606 2.12810337,372.31123 C2.17527576,372.017149 2.18114577,371.680217 2.27108868,371.344756 C2.81074486,369.331986 3.46476995,367.995285 5.37768421,366.806989 C7.29059889,365.618692 9.24334866,364.55748 11.2779695,363.624088 C18.7822398,360.090074 21.3464573,360.134918 26.2806405,356.892992 C28.3225987,355.538435 30.2000805,353.970355 31.9536549,352.27372 C33.1227041,351.14263 35.5094928,349.305045 39.11402,346.760966 L68.3088024,347.488239 L70.5215227,373.211536 Z M159.080821,373.214991 C159.028182,373.210985 158.975076,373.208939 158.921615,373.208939 L115.972367,373.208939 L119.370718,351.720676 L148.036495,346.122123 L159.080821,373.214991 Z" id="Shoes" fill="#474961" fill-rule="nonzero"></path>
                        <g id="Man" transform="translate(15.555819, 0.000000)">
                            <path d="M39.9282638,87.8923685 C38.9968993,88.0014761 38.1601621,88.047254 37.4180523,88.0297026 C34.7905045,87.96756 30.5119157,88.5477347 26.9073634,88.0297026 C14.6196797,86.2637655 13.0605457,83.3077359 12.8059313,82.0155952 C12.4558364,80.2144286 13.2833334,79.0397551 17.9937006,70.8170397 C22.0038782,63.8473093 34.3153292,50.3047498 38.052836,47.7934362 C40.5445072,46.1192272 44.6773306,44.6603303 50.4513064,43.4167454 C50.4391363,43.4432883 50.4269103,43.4719239 50.4146287,43.5026522 C56.4286292,41.2588263 63.778024,41.0984152 67.7281898,40.9224022 C69.7947514,40.8381564 81.1388576,40.8381564 83.2054196,40.9224022 C86.3722056,41.063509 90.7725223,41.5591344 95.028975,43.0910465 C95.2744345,42.5817776 95.702946,42.3603005 96.3619952,42.5095802 C100.356057,43.057178 108.049881,45.6560172 108.596437,45.9087546 C116.960153,49.348958 138.610284,65.0798883 140.039737,66.1329609 C141.469191,67.1860335 137.478596,73.1540522 133.846885,76.5785774 C130.329565,79.8952368 125.867761,80.5904071 118.140143,85.2654367 C117.13984,85.8705967 114.754452,86.2616939 110.98398,86.4387285 C111.168219,99.1133383 111.291279,105.635542 111.389807,108.656034 C111.389807,108.656034 111.345837,109.077263 111.389807,109.709106 C111.477746,111.562514 111.521715,119.18676 107.564469,122.556592 C107.036836,122.977821 106.465233,123.356927 105.98157,123.609665 C104.926305,124.199385 104.046917,124.41 104.046917,124.41 C104.046917,124.41 103.958978,124.452123 103.958978,124.452123 C75.4228351,131.360279 46.9306621,124.452123 46.9306621,124.452123 C46.8866925,124.41 46.8427233,124.41 46.8427233,124.41 C46.8427233,124.41 45.9633352,124.199385 44.9080696,123.609665 C44.3804368,123.356927 43.852804,123.019944 43.3251708,122.556592 C39.4118942,119.18676 39.4558636,111.562514 39.5438024,109.709106 C39.5438024,109.119385 39.5438024,108.656034 39.5438024,108.656034 C39.638472,105.723594 39.7557896,99.601718 39.9282638,87.8923685 Z" id="T-shirt" fill="#FF5645" fill-rule="nonzero"></path>
                            <path d="M58.0190045,97.8352123 C64.889566,96.6127748 71.4315659,96.0015559 77.645005,96.0015559 C81.6175602,96.0015559 85.5862479,96.251402 89.5510689,96.7510942 L89.5510689,42.5441341 C89.5510689,41.6135806 90.3039962,40.8592179 91.2327791,40.8592179 L95.0166271,40.8592179 C95.94541,40.8592179 96.6983373,41.6135806 96.6983373,42.5441341 L96.6983373,97.926301 C105.612313,99.8689672 112.040199,107.681671 112.248921,116.812363 C114.054286,125.023547 118.60067,147.262257 124.068171,185.672553 C126.548694,203.279928 128.440618,218.402051 129.828029,230.027972 L129.7019,230.070095 C130.500713,237.062498 131.299525,244.728866 131.467696,246.792889 C131.846081,251.847637 132.560808,259.682498 133.443705,268.823168 C135.714014,292.538364 138.23658,326.573671 139.035392,337.862609 C139.119477,339.336911 139.666033,343.338587 137.437767,346.160822 C136.765083,346.961157 136.134442,347.382386 134.831116,348.140598 C133.780048,348.772442 129.281473,350.836464 119.990024,352.647749 C119.401425,352.731995 118.770784,352.816241 118.140143,352.858364 C108.428266,353.405961 105.947743,352.942609 102.121853,352.100151 C99.5572447,351.552553 97.5391924,349.32004 96.9926366,346.413559 C94.6382423,333.776688 88.0795724,299.320151 87.5330166,296.245179 C86.776247,292.369872 86.0615202,287.98909 85.3467933,282.976464 C80.0990906,252.065115 76.0038912,225.164555 73.0611952,202.274783 C72.3843968,213.463499 71.7129248,224.652217 71.0522565,235.840933 C69.7489311,245.65557 69.076247,253.490431 68.739905,258.081827 C68.739905,258.081827 64.8719715,311.240933 60.0370546,344.98138 C59.8688836,346.076576 59.5325416,348.351213 57.8087886,350.288866 C54.1510689,354.332665 48.97981,351.299816 33.2978622,350.583727 C33.2978622,350.583727 17.868171,349.90976 14.5888361,346.076576 C13.9581948,345.318364 13.57981,344.475905 13.57981,344.475905 C12.9491686,342.833112 13.0332542,341.316688 13.0752969,340.684844 C17.1114014,301.594788 14.9251781,280.786073 21.2315914,235.293336 C24.2306413,213.698327 29.9064133,181.593909 38.2589074,138.980082 L39.52019,123.239938 L39.52019,117.740026 C39.5201898,109.93123 44.0717408,103.022769 50.871734,99.8216135 L50.871734,42.5441341 C50.871734,41.6135806 51.6246613,40.8592179 52.5534442,40.8592179 L56.3372922,40.8592179 C57.2660751,40.8592179 58.0190024,41.6135806 58.0190024,42.5441341 L58.0190024,97.8352127 L58.0190045,97.8352123 Z" id="Overall" fill="#FFED00" fill-rule="nonzero"></path>
                            <path d="M87.3130468,82.9135119 C85.9915064,85.5608366 83.4263509,87.5168461 80.2576666,87.9366447 C75.212536,88.6106112 70.5457902,85.0722871 69.8731061,79.9754156 C69.200422,74.8785441 72.7320134,70.2450246 77.8191868,69.5710581 C79.0396788,69.4080155 80.2380268,69.4914879 81.3630417,69.7839051 L80.5519659,67.9941412 L79.3747688,65.7496016 L79.3747688,65.890119 C79.6270253,65.6797168 79.9213246,65.5534757 80.2156239,65.3430734 L82.0655051,64.4173034 C82.9904457,64.0806601 84.1256001,63.701936 85.4289256,63.2390512 L85.8073104,63.1128097 C85.8493531,63.1128097 85.9334386,63.0707293 85.9754814,63.028649 L86.5640799,62.8182467 L86.6481655,62.8182467 L87.5731061,62.5236838 C88.5821322,62.2291204 89.7172866,61.8924771 90.852441,61.5558334 C91.9455526,61.2191901 93.0386643,60.8825463 94.0897332,60.5459026 L95.0146738,60.29342 L95.0987593,60.29342 L95.7294006,60.1250986 L95.8975716,60.0409374 L96.2759564,59.9567767 C97.5792818,59.620133 98.756479,59.2834897 99.7234624,59.0730875 L101.867643,58.7785241 C102.203985,58.7364437 102.540327,58.6943634 102.876669,58.5681219 C102.918712,59.3676504 103.002797,60.1671789 103.086883,61.0087878 L105.861705,78.2617691 C105.94579,78.7667347 105.94579,79.2296195 105.861705,79.6925043 C105.819662,79.9029065 105.777619,80.0712284 105.693534,80.3657913 C105.48332,81.0811587 105.02085,81.6702851 104.432251,82.1752502 C103.927738,82.5960547 103.50731,82.8485373 101.489258,83.5218243 C100.564317,83.8163877 99.3030348,84.2371921 97.8735811,84.7000769 C96.4441275,85.1208814 95.1828448,85.4575247 94.2579042,85.7941684 C92.1978092,86.341214 91.6092106,86.4253751 91.020612,86.341214 C90.3058852,86.2570532 89.5911583,85.9204099 89.0025598,85.4996055 C88.8343887,85.4154443 88.6662177,85.2471225 88.5400894,85.0367203 C88.2457902,84.7000769 87.9094481,84.2792725 87.7412771,83.858468 L87.3130468,82.9135119 Z M79.7111108,83.9349687 C82.6120609,83.5558626 84.6301132,80.8599966 84.2517284,77.9956391 C83.8733436,75.1312816 81.1826073,73.0672592 78.3236999,73.4463654 C75.4647925,73.8254715 73.4046975,76.5213374 73.7830823,79.385695 C74.2035099,82.3342983 76.8522035,84.3140749 79.7111108,83.9349687 Z" id="Cup" fill="#FFCB3D" fill-rule="nonzero"></path>
                            <path d="M80.5099232,65.0269958 C80.9303507,64.8585042 81.4769066,64.6478897 82.1075479,64.4372751 C83.0324885,64.1002919 84.1676429,63.7211857 85.4709683,63.2578338 L85.8493531,63.1314651 C85.8913959,63.1314651 85.9754814,63.0893422 86.0175241,63.0472193 L86.6061227,62.8366047 L86.6902082,62.8366047 L87.6151488,62.5417444 C88.624175,62.2468841 89.7593294,61.9099008 90.8944837,61.5729176 C91.9875954,61.2359343 93.080707,60.8989511 94.1317759,60.5619679 L95.0567165,60.3092304 L95.140802,60.3092304 L95.7714434,60.1407388 L95.9396144,60.056493 L96.3179992,59.9722472 C97.6213246,59.635264 98.7985218,59.2982807 99.7655051,59.0876662 C100.438189,58.9191746 100.942702,58.7928059 101.447215,58.70856 C102.28807,58.5400684 102.792584,58.4979455 102.792584,58.6243142 C102.792584,58.70856 102.58237,58.8770517 102.077857,59.0876662 C100.522275,59.8458785 96.528213,61.3201802 91.6512533,62.8787276 L91.2728685,62.9629735 L90.8944837,63.0893422 C85.9754814,64.5215209 81.8552913,65.4903478 80.0894956,65.7009623 C79.5429398,65.7852081 79.2906833,65.7430852 79.2486405,65.7009623 C79.2486405,65.6167165 79.6690681,65.363979 80.5099232,65.0269958 Z" id="Shadow-Cup" fill="#474961" fill-rule="nonzero"></path>
                            <path d="M82.5094749,40.6585808 C83.4192293,40.765425 84.3734527,40.8867306 85.3721464,41.0224978 C82.183874,43.9703975 79.7569269,45.590701 78.091306,45.8834076 C75.5928741,46.3224677 76.750241,46.3224677 72.4897004,46.3224677 C69.6493402,46.3224677 66.4536284,44.6060061 62.9025644,41.1730829 C65.0589352,40.8377865 67.0202087,40.5786311 68.7863849,40.3956168 L68.7045903,36.6805216 C66.5212003,37.4938331 66.6429099,37.4122513 66.4275534,37.4841737 C63.7788599,38.1581402 61.5085511,38.0738944 61.0881235,37.9896486 C59.5745843,37.8632799 57.9769596,36.5995927 56.5475059,34.4513246 C54.6135392,31.586967 52.8897862,27.1219391 51.9648456,21.7723302 C51.7966746,21.0141179 51.7546318,20.2559056 51.7125891,19.4976933 L51.5444181,11.9576933 C51.5023753,10.2727771 51.8807601,8.58786089 52.7216152,7.0714363 C53.0579572,6.39746982 53.3942993,5.84987206 53.8147268,5.3865201 C53.8276769,5.36987317 53.8406571,5.35328168 53.8536664,5.33674553 C53.8690192,5.31149976 53.8840772,5.28598726 53.8988124,5.26015139 C57.1361045,0.75300055 63.9049881,0.163279879 67.016152,0.50026312 C67.3945368,0.542386025 68.739905,0.710877645 70.6738717,0.83724636 C71.7249406,0.92149217 72.5657957,0.92149217 73.0703088,0.963615075 C79.3346793,1.21635251 81.8152019,0.458140215 84.9684086,2.14305642 C85.5570071,2.43791675 86.9023753,3.19612904 88.0795724,4.67043072 C91.4009501,8.84059832 90.6021378,14.2323302 90.391924,15.8330005 C89.6351544,20.6350117 86.8603325,23.5836151 86.0194774,24.8051793 C85.0164647,26.2874435 83.3254975,28.0993565 82.123995,29.3204235 L82.5094749,40.6585808 Z M124.067829,141.726422 L137.15644,165.295175 C138.501808,167.980121 135.9372,170.973176 133.246464,169.828773 C128.052259,167.615819 123.786604,164.68722 120.368338,161.689738 C119.954161,158.719351 119.092655,153.630574 117.783819,146.423406 L117.770482,146.429462 C116.918615,141.741046 115.878652,136.161877 114.650594,129.691955 L114.650594,127.522415 L134.57886,99.7728154 C127.690647,93.6991942 124.964854,91.9615434 118.159969,85.2317354 C125.77143,80.6591816 130.189033,79.9484153 133.677555,76.6589113 C136.158548,74.3194569 138.807028,70.79298 139.780569,68.4573635 C150.915675,77.0537516 158.085258,84.1808456 159.636342,88.160065 C160.897625,91.4048042 161.149881,94.6068492 161.149881,94.6068492 C161.528266,99.9008968 159.888599,104.084903 159.257957,105.664578 C154.82055,116.819629 134.439768,133.666536 124.067829,141.726422 Z M74.7272789,73.2691766 C75.6389076,73.173756 76.6024022,73.5878549 77.144425,74.3870654 L77.8113639,75.4174456 C78.3644124,76.2912756 78.3171782,77.3436498 77.8017538,78.1259088 C78.4869893,78.2388138 79.1238971,78.6334182 79.5260176,79.2716165 L80.1749063,80.3135012 C80.5273276,80.8924347 80.6206239,81.5435347 80.4941723,82.1411779 C81.0519943,82.3162213 81.5490528,82.6774193 81.8649528,83.1908684 L82.5138415,84.2327532 C83.2497386,85.4416343 82.8557895,86.9651793 81.6905119,87.6596272 L74.942857,91.6970541 C62.9915479,100.985953 52.0683755,112.030378 39.5678787,120.34514 C24.6427006,129.991285 14.089969,130.960112 7.82559846,127.084804 C2.36004027,123.714972 -3.35777446,122.24067 2.40208302,105.391508 C4.2240997,100.134097 9.58357646,91.8704409 14.5384173,84.3855844 C16.33295,85.627288 19.8505591,87.0029374 26.7851499,87.9995494 C30.3897022,88.5175815 34.668291,87.9374063 37.2958388,87.9995494 C38.8868395,88.0371773 40.9127717,87.7837272 43.3736352,87.2391985 L43.4932304,87.3026002 L43.913658,91.6120286 C38.9703911,94.4799127 36.4987576,95.9138547 36.4987576,95.9138547 C43.7905959,91.7296463 48.193285,89.1601491 49.7068242,88.2053631 L53.625835,85.8139447 C61.1856631,79.0646755 73.5748219,67.6862965 73.5748219,67.6862965 C75.4812775,69.167591 75.5474469,71.1859913 74.7272789,73.2691766 Z" id="Skin" fill="#FBBB99" fill-rule="nonzero"></path>
                            <polygon id="Shadow" fill="#482D1F" fill-rule="nonzero" points="68.6137767 36.6561829 74.6258907 34.0300955 68.8158611 40.8592179"></polygon>
                            <path d="M83.77699,17.9040204 C83.7874418,16.7417794 83.4776048,15.5571277 82.7401425,14.5271905 C81.3947743,12.6316598 78.872209,11.5785871 76.8541568,12.2525536 C75.7190024,12.6316598 74.9622328,13.5162408 74.8781473,13.6004866 C73.7429929,15.0326654 73.4907363,16.5490899 73.4907363,16.5490899 L73.4599232,16.8530578 C70.4255117,13.7017583 66.649535,9.80618137 63.8101506,6.8106836 C62.0832533,7.28532193 59.2338732,7.75996025 55.9959416,7.06957725 C55.4253184,6.94284106 54.730545,6.68426746 53.9116224,6.29385641 C53.8857883,6.28154397 53.8605698,6.26797559 53.8360547,6.25320233 C53.4190074,6.00188238 53.2842713,5.45941931 53.5351131,5.04157715 C56.9025625,0.424640698 63.9828404,-0.179444445 67.220772,0.165747064 C67.6524964,0.208896003 69.0340138,0.381491757 71.0631179,0.510938572 C72.185601,0.59723645 73.0490494,0.59723645 73.5671188,0.640385389 C80.1293274,0.899279022 82.7196727,0.122598125 86.0007772,1.84855567 C86.605191,2.15059824 88.0298809,2.92727914 89.2387089,4.43749198 C92.9947098,9.01127948 92.0880889,14.5774926 91.6563649,15.8719607 C91.3541578,16.7780885 91.0904476,17.3509427 90.6284851,17.6551775 C90.3809698,17.8181839 87.3970596,17.9015598 83.77699,17.9040204 Z M53.0159145,17.1388106 C52.5954869,17.0545648 52.4693587,16.506967 52.763658,16.2121067 C53.1420428,15.8751235 53.8147268,15.5381402 54.6555819,15.5381402 C56.3793349,15.5381402 58.2292162,16.6754587 56.2952494,17.1809335 C55.160095,17.4757938 53.8147268,17.3073022 53.0159145,17.1388106 Z M61.6767221,17.4336709 C61.2562945,17.3494251 61.1301663,16.8018274 61.4665083,16.506967 C61.8448931,16.1699838 62.5175772,15.8330005 63.4004751,15.8330005 C65.124228,15.8330005 66.9741093,17.0124419 65.0401425,17.4757938 C63.8209026,17.8127771 62.4755344,17.6021626 61.6767221,17.4336709 Z" id="Hair" fill="#482D1F" fill-rule="nonzero"></path>
                            <path d="M56.2952494,20.087414 C56.2532067,20.8035033 56.1270784,21.9829447 55.7066508,22.4041737 C54.991924,23.0360173 54.0669834,20.9298721 54.6135392,19.624062 C54.823753,19.0764642 55.1180523,18.9922184 55.4543943,19.0343413 C55.9589074,19.1185871 56.2952494,19.5819391 56.2952494,20.087414 Z M63.8209026,20.0031681 C63.8629454,20.7192575 63.8629454,21.8986989 63.4425178,22.4041737 C62.8118765,23.1202631 61.6346793,21.0983637 62.0551069,19.7504307 C62.2232779,19.202833 62.5175772,19.0764642 62.8539192,19.0764642 C63.3584323,19.0764642 63.7788599,19.4976933 63.8209026,20.0031681 Z" id="Combined-Shape" fill="#482D1F" fill-rule="nonzero"></path>
                            <path d="M60.3733967,28.6383637 C60.667696,28.5541179 61.3824228,28.3435033 61.5085511,27.8801514 C61.5085511,27.7959056 61.5505938,27.6695369 61.5085511,27.5852911 C61.34038,27.2904307 60.835867,27.4589223 60.0790974,27.5010452 C58.7337292,27.5852911 57.6406176,27.4589223 57.6406176,27.4589223 C57.6406176,27.4589223 57.9349169,28.3013804 58.1451306,28.5541179 C58.5655582,29.1859614 59.9109264,28.7647324 60.3733967,28.6383637 Z" id="Path" fill="#482D1F" fill-rule="nonzero"></path>
                            <path d="M57.9349169,17.6864084 L57.9349169,20.1716598 L57.3042755,24.6788106 C57.2622328,24.931548 57.4724466,25.1842855 57.7247031,25.2264084 C58.2712589,25.2685313 58.775772,25.3106542 59.7427553,25.3106542" id="Path" stroke="#482D1F" stroke-width="2" stroke-linecap="round" stroke-linejoin="round"></path>
                            <path d="M83.6701232,16.8247325 C83.6342776,16.594883 83.7911942,16.3794391 84.0206063,16.3435251 C84.2500185,16.3076111 84.4650525,16.4648269 84.5008982,16.6946764 C84.7211202,18.1067837 84.4694241,19.6318479 83.8309111,20.865514 C83.3869241,21.7551813 82.7713912,22.471628 82.0359095,23.0425469 C81.536611,23.4301283 81.1053058,23.672685 80.5619317,23.923951 C80.3511075,24.02144 80.1013206,23.9292378 80.0040172,23.7180117 C79.9067135,23.5067855 79.9987405,23.2565223 80.2095647,23.1590333 C81.4453228,22.587596 82.4020141,21.8449629 83.0816327,20.4832357 C83.6408421,19.402705 83.8626088,18.0589879 83.6701232,16.8247325 Z M44.2358114,91.2732008 C44.2486193,91.2934573 44.2604123,91.3146531 44.2710891,91.3367542 C44.4228294,91.6508533 44.2916963,92.0287257 43.9781948,92.1807553 L31.7857958,98.0933532 C31.4722942,98.2453828 31.0951409,98.1139998 30.9434004,97.7999007 C30.7916598,97.4858015 30.922793,97.1079292 31.2362945,96.9558992 L43.0330123,91.2351837 C43.0173821,91.179247 43.0092493,91.1201961 43.009761,91.0591996 C43.0272743,88.9711234 43.0412876,86.9687105 43.0728167,82.2145008 C43.1043517,77.4594646 43.1183671,75.4566915 43.1358893,73.3675795 C43.1388159,73.0186342 43.4235265,72.7381353 43.7718078,72.7410223 C44.1200887,72.744 44.400054,73.029253 44.3971501,73.3781983 C44.379614,75.4662741 44.3656008,77.4686875 44.3340716,82.2228971 C44.3025366,86.9779333 44.2885213,88.9807064 44.2709991,91.0698184 C44.2704012,91.1410769 44.2580529,91.2094815 44.2358114,91.2732008 Z" id="Shadow" fill="#482D1F" fill-rule="nonzero"></path>
                            <path d="M117.299287,143.769859 L123.492545,140.690503 L137.15644,165.295175 C138.501808,167.980121 135.9372,170.973176 133.246464,169.828773 C128.052259,167.615819 123.786604,164.68722 120.368338,161.689738 C119.905043,158.367083 118.882026,152.39379 117.299287,143.769859 Z" id="Shadow-Arm" fill="#8C2A00" fill-rule="nonzero" opacity="0.2"></path>
                            <path d="M60.0602555,108.208309 C59.9954273,112.810267 59.3389082,116.022753 58.0906983,117.845766 C56.7241759,119.841575 53.6624761,121.633057 48.9055999,123.220211 L48.9055995,123.220209 C47.8615105,123.568574 47.1633077,124.554862 47.1803658,125.65729 C47.2212376,128.298802 47.1229463,130.272731 46.8854922,131.579078 C46.5947804,133.178418 46.5947804,137.198428 46.8854922,143.639106 L104.768559,142.394411 L105.239726,131.579078 L104.579241,124.623843 C104.475375,123.530109 103.678152,122.628889 102.606881,122.394192 C98.6828777,121.534511 95.949917,119.958166 94.4079993,117.665156 C93.0122534,115.58952 92.3910099,112.494992 92.5442684,108.381572 C92.613562,106.52176 91.1649288,104.957804 89.3086554,104.888379 C89.2668514,104.886815 89.2250223,104.886034 89.1831889,104.886034 L63.4233388,104.886034 C61.5842844,104.886034 60.0862093,106.365932 60.0602555,108.208309 Z" id="Pocket" fill="#444444" fill-rule="nonzero" opacity="0.176985679"></path>
                        </g>
                    </g>
                    <g id="Interior-/-Door-/-1" fill-rule="nonzero">
                        <g id="Door">
                            <rect id="Rectangle" fill="#F2F6FB" x="2.09382151" y="2.10710128" width="177.556064" height="359.892899"></rect>
                            <path d="M-4.61202396e-14,4.63562282 L-4.61202396e-14,0 L183,0 L183,4.63562282 L183,362 L178.393593,362 L178.393593,4.63562282 L4.60640732,4.63562282 L4.60640732,362 L-4.61202396e-14,362 L-4.61202396e-14,4.63562282 Z M22.6132723,160.982538 L33.9199085,160.982538 C34.3824627,160.982538 34.7574371,161.359891 34.7574371,161.825378 L34.7574371,196.381839 C34.7574371,196.847327 34.3824627,197.22468 33.9199085,197.22468 L22.6132723,197.22468 C22.150718,197.22468 21.7757437,196.847327 21.7757437,196.381839 L21.7757437,161.825378 C21.7757437,161.359891 22.150718,160.982538 22.6132723,160.982538 Z M25.5446224,193.431898 L30.9885584,193.431898 L30.9885584,164.77532 L25.5446224,164.77532 L25.5446224,193.431898 Z" id="Combined-Shape" fill="#E1E5F0"></path>
                        </g>
                    </g>
                    <g id="Characters-standing-/-Woman-standing-/-1" transform="translate(71.000000, 28.000000)" fill-rule="nonzero">
                        <g id="Woman">
                            <path d="M14.9306488,373.208939 L82.2237136,373.208939 C83.2689772,373.208939 84.1163311,374.057597 84.1163311,375.104469 C84.1163311,376.151342 83.2689772,377 82.2237136,377 L14.9306488,377 C13.885385,377 13.0380313,376.151342 13.0380313,375.104469 C13.0380313,374.057597 13.885385,373.208939 14.9306488,373.208939 Z M185.973703,377 L142.864083,377 C141.854687,377 140.971466,376.27095 140.971466,375.39609 L140.971466,374.812849 C140.971466,373.937989 141.812629,373.208939 142.864083,373.208939 L185.973703,373.208939 C186.983099,373.208939 187.86632,373.937989 187.86632,374.812849 L187.86632,375.39609 C187.86632,376.27095 187.025157,377 185.973703,377 Z" id="Base" fill="#A339FF"></path>
                            <path d="M52.6615859,245.885567 L55.0171242,224.528299 C63.3380605,151.989739 75.6113726,112.330832 91.8370604,105.55158 C95.2112466,103.934054 93.0283962,103.308843 106.017101,103.163915 C106.336691,103.174921 106.698614,103.156889 107.018204,103.167259 C119.58834,103.247594 128.645914,102.468736 134.079296,110.569954 C138.272862,115.454543 142.571862,124.019429 146.976297,136.264613 C151.266567,148.192398 159.643709,188.646658 172.107724,257.627392 C172.144099,257.828705 172.168237,258.032045 172.180006,258.236289 C172.196856,258.528712 172.188536,258.816762 172.156929,259.098322 C172.20039,259.453419 172.241361,259.803112 172.279843,260.147403 C172.905175,265.742125 170.928335,273.589715 166.349323,283.690174 C140.103854,285.373353 122.178408,285.627978 112.572986,284.454046 C89.9471852,281.688823 76.1848979,272.922507 69.1532004,269.73732 C57.6827101,264.541469 52.1013228,257.372078 52.4090384,248.229147 C52.4050021,248.247643 52.4009826,248.266163 52.3969794,248.28471 L52.411853,248.149854 C52.4120275,248.145178 52.4122037,248.140501 52.4123812,248.135823 C52.4087962,247.371315 52.4918644,246.621229 52.6615859,245.885567 Z" id="Skirt" fill="#FFED00"></path>
                            <path d="M52.5880376,247.932282 C52.585933,247.183628 52.6669769,246.448814 52.8311699,245.727839 L52.5880376,247.932282 L52.5880376,247.932282 Z M172.0726,259.261114 C172.116809,259.621854 172.270139,260.541927 172.279843,260.891834 C172.444287,266.821615 171.079485,273.232987 166.500473,283.333446 C140.328238,285.177565 122.178408,285.627978 112.572986,284.454046 C89.9471852,281.688823 76.1848979,272.922507 69.1532004,269.73732 C57.6935199,264.546365 52.1006431,257.30419 52.3969795,248.173592 C55.2290948,235.317982 66.2294526,235.249225 85.0241852,248.173592 C102.965483,260.511086 130.489631,265.60747 167.596629,263.462746 C170.118374,263.316992 171.84248,262.406361 172.0726,259.962874 L172.0726,259.261114 Z" id="Shape" fill="#8C2A00" opacity="0.2"></path>
                            <path d="M85.1869835,79.8975814 C84.2513332,79.9322098 75.6627361,79.9423294 76.122161,74.1229679 C76.6050081,68.0069234 76.9422221,63.0836017 78.4115746,59.0914636 C79.8809275,55.0993259 82.919034,55.5348232 83.3428495,54.3379915 C85.0693822,49.4623591 86.5002653,48.4117831 91.7520626,46.9541722 C94.6353172,44.6807472 98.4005803,43.3296239 103.31071,43.2066541 L105.420019,43.1697793 C109.427066,43.0718692 113.218467,43.2524156 116.56999,43.9045805 L117.321842,43.9445522 C122.428417,45.5100428 125.532302,46.462477 126.633497,46.8018546 C131.813602,48.3983139 133.254395,49.4316511 135.167177,54.0031426 C135.63633,55.1244042 138.565458,54.8705564 140.184425,58.6133117 C141.803391,62.3560671 142.367844,66.900618 143.131128,72.5492178 C143.894413,78.1978177 138.99655,83.1300059 138.881188,83.1031867 L128.604785,81.1005875 L127.608579,97.1611435 C127.579832,97.6356335 127.587339,98.0663996 127.558592,98.5408893 C127.559124,100.695368 127.28163,103.88886 125.730938,106.242816 C123.567669,109.555455 122.459677,113.087773 108.696662,113.500736 C93.9337504,113.888089 92.9305921,112.133209 90.5414426,108.857066 C88.9104198,106.601822 87.1221176,102.193631 87.046073,99.9542935 C87.0417911,99.7085851 86.4220943,93.0230145 85.1869835,79.8975814 Z" id="Shirt" fill="#A339FF"></path>
                            <path d="M87.2575735,112.504733 C80.189001,121.389971 71.9697979,127.340946 65.2672618,120.011034 L35.1937792,95.2127236 C34.4058321,94.9541218 33.6016105,94.6654414 32.7856287,94.3435474 C31.1335023,95.1448956 29.3725596,95.5455696 27.5028003,95.5455696 C23.146559,95.5455696 13.733881,95.0512771 4.17934421,90.7014355 C2.78729522,90.0676846 1.39418048,88.4529734 0,85.8573014 L40.7964206,85.8573014 L58.8814318,85.8573014 C63.9272845,86.7597316 68.6033248,87.6061442 72.9095523,88.3965392 L77.7937674,77.8217625 C80.2342985,79.7542502 84.5593668,79.7420227 85.2078814,79.7180215 C85.6287785,84.1908645 85.9782082,87.9158537 86.2561706,90.8929894 C99.8723781,93.4992089 107.757082,95.2372429 109.910281,96.1070919 L115.872534,78.5907406 L138.768456,83.0525503 C138.773986,83.0538359 138.790504,83.0437272 138.816861,83.0226919 C129.086095,112.5287 118.757242,125.462373 107.830302,121.823711 C102.380309,120.008868 95.5227327,116.902542 87.2575735,112.504733 Z M26.6921815,91.3604129 C26.7262782,91.3821964 26.7603187,91.4030973 26.794303,91.4231163 C26.7602706,91.4030691 26.7262375,91.3821564 26.6922037,91.3603776 L26.6921815,91.3604129 Z M164.403019,263.630571 L175.71151,347.301844 L145.597864,351.387766 L123.691591,262.015131 C135.597314,263.811536 149.167781,264.350017 164.402979,263.630573 L164.403019,263.630571 Z M59.1882961,239.027553 C64.7017839,237.072124 73.3137468,240.120804 85.0241852,248.173592 C88.5102599,250.570822 92.3581274,252.69467 96.5677885,254.545135 L84.3686801,347.470336 L52.6147651,347.470336 L59.1882961,239.027553 Z M99.3753259,39.9713912 L99.0909403,37.4294827 C99.0492809,37.439064 99.0073754,37.4486737 98.965223,37.4583118 C95.2593477,38.3175372 95.4761693,38.2519683 95.2174493,38.313866 C92.484651,38.6663824 90.2404807,38.2583217 89.8288305,38.1376839 C86.391608,37.3713811 83.2455075,30.3725839 82.8059951,20.9047832 C82.7462817,20.1384424 82.8122626,19.3831154 82.8363455,18.624117 L83.6181841,11.1238228 C83.7648085,9.44531819 84.3686469,7.84916001 85.3312401,6.49585617 C85.4296987,6.33534823 85.5244919,6.21680287 85.6192847,6.09825752 C85.9528934,5.66236755 86.2791706,5.31040279 86.6017824,5.00040062 C87.8503312,3.7567208 89.27538,2.90906076 90.7166679,2.35881028 C94.1020209,1.30236435 97.8000524,1.49954678 99.8274011,1.97317648 C100.117022,2.04083787 101.027784,2.24749328 102.311964,2.52915258 C103.50135,2.92935722 104.659835,3.20000277 105.871215,3.34843172 C106.537919,3.44913439 106.989378,4.08066603 106.930728,4.75206786 L105.573351,15.4577847 C105.486769,16.126739 107.003396,15.8748507 110.123231,14.7021198 C112.138007,14.8363774 113.567535,18.1878845 114.012726,20.3410841 C114.492485,22.5818801 113.502143,24.7361448 112.040438,26.003431 C111.907834,26.1148705 111.773309,26.2173405 111.637908,26.311618 L112.032632,30.4425468 L111.734141,33.3762586 L111.964247,42.8825145 C112.559647,42.9303198 113.200741,42.985171 113.903819,43.0461894 C120.030855,43.5779397 125.941547,45.5077913 131.635897,48.8357434 L89.7547674,48.8357434 C91.6022859,46.2435315 94.8414951,44.4621656 99.4723961,43.4916459 L99.3753259,39.9713912 Z" id="Skin" fill="#FBBB99"></path>
                            <path d="M34.993671,95.0477164 C40.189378,96.6673072 44.6920254,96.9155067 47.2323831,96.9155067 C49.6176132,96.9155067 56.4754284,97.8316984 60.8042394,96.8497987 C70.8052876,103.155121 79.6280166,108.367206 87.2724271,112.486055 C80.2005174,121.381627 71.9744933,127.346081 65.2672618,120.011034 L34.993671,95.0477164 Z M32.8497665,94.3122096 C31.1790978,95.1344496 29.3967757,95.5455696 27.5028003,95.5455696 C23.146559,95.5455696 13.733881,95.0512771 4.17934421,90.7014355 C2.78729522,90.0676846 1.39418048,88.4529734 0,85.8573014 L40.7964206,85.8573014 C40.7829269,85.8818228 40.7694207,85.9062979 40.7559017,85.9307263 L23.1319911,85.9307263 C24.3536956,88.8737589 25.5744662,90.7045555 26.794303,91.4231163 C28.8411969,92.6288663 30.880661,93.5733347 32.8497665,94.3122096 Z M86.2717658,91.0600408 C82.2845251,90.2970661 77.8070805,89.4598376 72.8394325,88.5483548 L77.7937674,77.8217625 C80.2342985,79.7542502 84.5593668,79.7420227 85.2078814,79.7180215 C85.6366884,84.2749204 85.9913165,88.0555935 86.2717658,91.0600408 Z" id="Shadow-Arm" fill="#8C2A00" opacity="0.2"></path>
                            <path d="M83.1477299,373.449813 C82.8744468,373.296404 82.5592789,373.208939 82.2237136,373.208939 L14.9306488,373.208939 C14.8016708,373.208939 14.6757063,373.22186 14.5539751,373.246481 C14.5521253,373.206148 14.5521253,373.165551 14.5521253,373.124693 C14.5941834,372.829832 14.5941834,372.492849 14.6782998,372.155866 C15.1829978,370.133966 16.8232662,368.44905 17.7485459,367.606592 C19.6832215,366.385028 21.6178971,365.331955 23.636689,364.363128 C31.1230425,360.740559 33.6885906,360.782682 38.609396,357.497095 C40.6281879,356.107039 42.5208054,354.548492 44.2451902,352.821453 L51.7736018,347.261229 L84.859742,347.092737 L83.1477299,373.449813 Z M185.703503,373.208939 L142.864083,373.208939 C142.654736,373.208939 142.453726,373.237839 142.266031,373.291037 C143.408093,367.272374 145.597864,351.387766 145.597864,351.387766 L175.71151,347.301844 L185.703503,373.208939 Z" id="Combined-Shape" fill="#474961"></path>
                            <path d="M112.979679,36.9312518 C108.012583,33.945846 108.119433,27.8655159 108.17795,26.8052482 C108.131426,26.7181359 108.084694,26.630688 108.037775,26.5429514 L108.230998,26.5615592 C108.777754,26.4351905 110.502139,26.1403301 111.848,24.7923972 C113.193862,23.4444642 113.992967,21.2119502 113.277978,19.0215592 C112.647106,16.9154139 110.628314,15.1883748 108.609522,15.2304977 C107.473951,15.2726206 106.548672,15.8202184 106.422497,15.9044642 C104.950461,16.873291 104.277531,18.221224 104.277531,18.221224 L103.866089,19.152514 C103.731989,18.9414333 103.602518,18.742749 103.478425,18.5582072 C100.534354,15.2726206 97.5902822,12.0291569 94.6041525,8.74357035 C92.9218259,9.1647994 90.1459869,9.54390554 86.9916245,8.78569325 C85.9822286,8.53295582 85.0990071,7.98535806 84.3419601,7.60625191 C84.6363673,7.14289995 84.9307744,6.76379381 85.2251816,6.42681057 C86.360752,5.07887761 87.7066133,4.11005078 89.0945328,3.4360843 C92.3750697,2.08815134 96.0761883,1.96178263 98.1370384,2.25664296 C98.4314456,2.29876587 99.3567252,2.42513458 100.660528,2.5936262 C101.039052,2.63574911 101.417575,2.67787201 101.880215,2.71999492 C102.973727,2.80424073 103.814891,2.88848654 104.319589,2.93060944 C110.71243,3.35183849 113.193862,2.63574911 116.390282,4.40491113 C116.979097,4.74189437 118.324958,5.54222956 119.460528,7.01653124 C121.23026,9.31163449 121.763769,11.9377218 121.840203,14.1210591 L121.857844,14.0931793 C121.806857,13.5095013 125.012206,25.0451346 120.80639,30.5632352 C119.759226,31.9371312 119.004072,33.081238 118.460433,34.0248124 C119.673718,34.8497653 121.388247,36.0941865 123.272538,37.6786305 C124.940402,39.1276668 124.949637,41.3610422 123.995938,42.8932904 C121.229844,42.3140596 118.447872,42.0259218 115.650022,42.0288774 C114.890225,42.02968 114.195683,42.0263069 113.548986,42.0235851 L112.979679,36.9312518 Z M82.1206228,20.0061763 C81.6951981,19.9515191 81.4892355,19.4170087 81.8072781,19.1413801 C82.1614091,18.7787726 82.7643402,18.3565148 83.6034545,18.2977479 C85.3236385,18.1772758 87.243036,19.0984959 85.3931686,19.7769853 C84.2838349,20.192483 82.9714725,20.1154906 82.1206228,20.0061763 Z M90.283502,19.7722997 C89.8580774,19.7176425 89.6521143,19.1831321 90.0091793,18.8625449 C90.3633099,18.4999374 90.966241,18.0776796 91.8473112,18.0159743 C93.5674953,17.8955021 95.4898264,18.8587426 93.6370254,19.4952117 C92.4467141,19.9586064 91.1343517,19.8816139 90.283502,19.7722997 Z" id="Hair" fill="#DE6903" transform="translate(103.144688, 22.509438) rotate(5.000000) translate(-103.144688, -22.509438) "></path>
                            <path d="M85.3724954,21.6532505 C85.4566117,22.3693399 85.4986699,23.5487812 85.1201464,24.0542561 C84.5313321,24.7703454 83.2695871,22.7905689 83.6481106,21.442636 C83.7742851,20.8950382 84.0686922,20.7265466 84.4051576,20.7265466 C84.9098555,20.7265466 85.3304372,21.1477756 85.3724954,21.6532505 Z M92.900907,21.6953734 C92.9850233,22.4114628 93.0270815,23.5909041 92.648558,24.096379 C92.0597437,24.8124684 90.7979987,22.8326918 91.1765222,21.4847589 C91.3026967,20.9371611 91.5971039,20.7686695 91.9335692,20.7686695 C92.4382672,20.7686695 92.8588488,21.1898985 92.900907,21.6953734 Z" id="Combined-Shape" fill="#482D1F" transform="translate(88.268179, 22.487267) rotate(1.000000) translate(-88.268179, -22.487267) "></path>
                            <path d="M89.4618135,30.2599332 C89.7562186,30.1756953 90.4712021,29.9651001 90.5973642,29.5017518 C90.5973619,29.417506 90.6394167,29.2911385 90.5973563,29.2068916 C90.4291156,28.9120268 89.9244219,29.0805048 89.1673757,29.1226074 C87.8215149,29.1646941 86.7279987,29.0382961 86.7279987,29.0382961 C86.7279987,29.0382961 87.0224286,29.8807617 87.2327263,30.1335047 C87.6533263,30.8074821 88.9991769,30.3862894 89.4618135,30.2599332 Z" id="Mouth" fill="#482D1F" transform="translate(88.672025, 29.771337) rotate(1.000000) translate(-88.672025, -29.771337) "></path>
                            <path d="M87.5016248,22.0432932 L86.8329087,26.5229046 C86.7531755,27.0017481 87.1209195,27.4682583 87.600332,27.5482942 C87.6539177,27.5565853 87.702337,27.5634779 87.7510969,27.5698591 C88.0482339,27.6087454 88.3254933,27.6271195 88.8399727,27.6473396 C88.9193673,27.65046 89.2207768,27.6618398 89.2247912,27.6619932 C89.3917014,27.6683726 89.5282977,27.6738752 89.6700028,27.6800494 C89.9020646,27.6901606 90.0983626,27.5099489 90.1084457,27.2775352 C90.1185292,27.0451215 89.9385801,26.8485163 89.7065179,26.8384051 C89.5631161,26.8321569 89.4251079,26.8265974 89.2568237,26.8201655 C89.2522225,26.8199896 88.9515403,26.8086373 88.8729116,26.8055471 C88.3822346,26.7862625 88.1253121,26.769236 87.8600426,26.7345203 C87.8175729,26.7289623 87.7754662,26.7229683 87.7334053,26.7164865 C87.7005636,26.7109703 87.6623861,26.6625394 87.6637288,26.6544687 L88.3376364,22.1404757 L88.3421995,22.0853205 L88.3841911,19.6001223 C88.3881211,19.3675223 88.203033,19.1757617 87.9707855,19.1716914 C87.7385375,19.1678645 87.5470777,19.3532231 87.5431477,19.5858231 L87.5016248,22.0432932 Z" id="Nose" fill="#482D1F" transform="translate(88.465426, 23.426073) rotate(1.000000) translate(-88.465426, -23.426073) "></path>
                            <path d="M91.467378,46.8944554 C87.7490648,49.8997032 85.5215949,54.4629836 84.202788,59.9068952 C83.6497403,62.1572305 83.5807658,64.5714623 83.8433391,66.8937183 C84.3003856,71.7342475 84.7063701,76.0404476 85.0612923,79.8123183 C84.9411279,79.8353831 75.4298639,80.1583689 75.9127109,74.0423249 C76.395558,67.9262804 76.732772,63.0029586 78.2021245,59.010821 C79.6714774,55.0186829 82.7095839,55.4541802 83.1333994,54.2573484 C84.8516588,49.4050792 86.277095,48.3412964 91.467378,46.8944554 Z" id="Combined-Shape" fill="#444444" opacity="0.176985679"></path>
                            <path d="M117.293891,77.5394852 C117.217911,77.4864252 117.113602,77.3908261 116.991221,77.2584952 C116.72946,76.9754532 116.411489,76.5542107 116.077048,76.0477827 C115.391793,75.0101334 114.729521,73.7583449 114.380964,72.828052 C114.23498,72.4384223 114.163122,71.6133714 114.146674,70.3541606 C114.142915,70.0663787 114.141951,69.8359128 114.141333,69.3269296 C114.139586,67.8866004 114.126967,67.504478 114.020926,67.1814461 C113.413124,65.3298938 113.587856,63.0854991 114.37363,60.7820419 C114.99009,58.9749172 115.968228,57.2705683 116.626425,56.6649838 C116.882971,56.4289451 116.899816,56.029252 116.66405,55.7722444 C116.428284,55.5152364 116.029186,55.4982382 115.77264,55.7342769 C114.93782,56.5023662 113.858505,58.3830107 113.179609,60.3731632 C112.312615,62.9147136 112.117007,65.4272587 112.822288,67.575762 C112.862337,67.6977627 112.878172,68.177275 112.879568,69.3280604 C112.880191,69.8420322 112.88117,70.0758476 112.885016,70.3702857 C112.903545,71.7888455 112.982129,72.6911214 113.199646,73.2716709 C114.117919,75.7225272 116.227454,78.9168966 117.306597,78.8034737 C117.65311,78.7670539 117.904444,78.4561935 117.867968,78.1091475 C117.83611,77.8060362 117.595237,77.5755728 117.303892,77.5463439 C117.300812,77.5442718 117.297472,77.5419866 117.293891,77.5394852 Z" id="Shadow" fill="#482D1F" transform="translate(115.132377, 67.187103) rotate(6.000000) translate(-115.132377, -67.187103) "></path>
                        </g>
                    </g>
                    <g id="Interior-/-Open-sign-/-1" transform="translate(49.000000, 3.000000)" fill-rule="nonzero">
                        <g id="Combined-Shape">
                            <path d="M45.0114536,51.9125475 L85,51.9125475 L85,111 L0,111 L0,51.9125475 L41.9265392,51.9125475 L5.99292217,2.70532493 C5.51146369,2.04601938 5.6566913,1.12201564 6.31729709,0.641504811 C6.97790289,0.160993986 7.90372885,0.305935749 8.38518729,0.9652413 L43.4414634,48.9710399 L76.5925083,0.996635763 C77.056594,0.325036158 77.9783225,0.156072314 78.6512464,0.619244458 C79.3241707,1.0824166 79.4934678,2.00233086 79.0293822,2.67393047 L45.1985364,51.6321054 C45.1456461,51.7086452 45.0868118,51.7786566 45.0230791,51.8419482 C45.01977,51.86557 45.0158913,51.8891105 45.0114472,51.9125475 L45.0114536,51.9125475 Z" id="Path" fill="#E1E5F0"></path>
                            <path d="M4.65174129,55.7110266 L80.7711443,55.7110266 L80.7711443,107.201521 L4.65174129,107.201521 L4.65174129,55.7110266 Z M12.3396688,80.9682747 C12.3396688,82.6630907 12.6733486,84.0743172 13.3407183,85.2019962 C14.0080879,86.3296752 14.8786288,87.1539899 15.952367,87.6749644 C17.0261053,88.1959388 18.382299,88.4564225 20.0209888,88.4564225 C21.6332481,88.4564225 22.9795305,88.1547232 24.0598764,87.5513158 C25.1402223,86.9479089 25.9661624,86.1038108 26.5377215,85.0189964 C27.1092807,83.9341825 27.395056,82.5443882 27.395056,80.8495722 C27.395056,78.5150785 26.7409114,76.6999381 25.4326026,75.4040963 C24.1242938,74.1082544 22.2609729,73.4603436 19.842584,73.4603436 C17.4836636,73.4603436 15.643469,74.119795 14.321945,75.4387181 C13.000421,76.7576408 12.3396688,78.600808 12.3396688,80.9682747 Z M16.8295243,80.9880585 C16.8295243,79.5108646 17.1037364,78.4524449 17.6521688,77.8127676 C18.2006013,77.1730898 18.9274286,76.8532557 19.8326726,76.8532557 C20.7775623,76.8532557 21.525864,77.1681437 22.0776003,77.7979294 C22.6293366,78.4277152 22.9052006,79.4251358 22.9052006,80.790221 C22.9052006,82.4124961 22.6408997,83.5368611 22.1122901,84.1633494 C21.5836805,84.789838 20.8370306,85.1030775 19.8723181,85.1030775 C18.934036,85.1030775 18.1923418,84.7832434 17.6472132,84.143566 C17.1020845,83.5038882 16.8295243,82.4520628 16.8295243,80.9880585 Z M29.7936101,73.7076402 L29.7936101,88.2091255 L34.3032882,88.2091255 L34.3032882,82.8279468 L36.7613106,82.8279468 C38.5717985,82.8279468 39.9180809,82.4157894 40.8001982,81.5914625 C41.6823155,80.767136 42.1233675,79.6229872 42.1233675,78.1589829 C42.1233675,76.7345461 41.7186569,75.6365594 40.9092234,74.8649891 C40.09979,74.0934192 38.8823542,73.7076402 37.2568797,73.7076402 L29.7936101,73.7076402 Z M34.3032882,79.8900604 L34.3032882,76.6554183 L35.5818563,76.6554183 C36.4210241,76.6554183 36.9925747,76.8136865 37.2965252,77.1302281 C37.6004757,77.4467697 37.7524487,77.8325488 37.7524487,78.2875774 C37.7524487,78.7557949 37.5773494,79.1399253 37.2271455,79.4399803 C36.8769417,79.7400352 36.2690497,79.8900604 35.4034515,79.8900604 L34.3032882,79.8900604 Z M44.4624534,73.7076402 L44.4624534,88.2091255 L56.7129198,88.2091255 L56.7129198,84.9250238 L48.9622201,84.9250238 L48.9622201,82.0662724 L55.9497437,82.0662724 L55.9497437,79.1086027 L48.9622201,79.1086027 L48.9622201,76.8037961 L56.4948694,76.8037961 L56.4948694,73.7076402 L44.4624534,73.7076402 Z M59.161031,73.7076402 L59.161031,88.2091255 L63.3832787,88.2091255 L63.3832787,80.2461678 L68.8246269,88.2091255 L73.0567862,88.2091255 L73.0567862,73.7076402 L68.8246269,73.7076402 L68.8246269,81.7299491 L63.3535448,73.7076402 L59.161031,73.7076402 Z" id="Shape" fill="#F2F6FB"></path>
                        </g>
                    </g>
                    <g id="Interior-/-Table-/-Table-5" transform="translate(282.000000, 175.000000)">
                        <g id="Table">
                            <path d="M283.140903,230 C283.140903,217.624354 273.14295,207.591912 260.80985,207.591912 L49.2968536,207.591912 C36.9637534,207.591912 26.9658003,217.624354 26.9658003,230 L0,230 L0,21.5625 C0,9.6538601 9.6206719,0 21.4883721,0 L286.511628,0 C298.379328,0 308,9.6538601 308,21.5625 L308,230 L283.140903,230 Z" id="Combined-Shape" fill="#F2F6FB" fill-rule="nonzero"></path>
                            <path d="M21.4883721,-9.01239868e-15 L286.511628,-9.01239868e-15 C298.379328,-9.01239868e-15 308,9.6538601 308,21.5625 L308,24.2049632 L0,24.2049632 L0,21.5625 C0,9.6538601 9.6206719,-9.01239868e-15 21.4883721,-9.01239868e-15 Z M109.969904,75.2573529 L195.502052,75.2573529 L183.800547,175.036765 L123.474907,175.036765 L109.969904,75.2573529 Z M147.737296,114.039715 C145.701553,112.184923 143.295282,111.08969 140.834783,111.111185 C134.986343,111.162279 131.046206,117.503332 132.034242,125.274323 C133.022277,133.045314 138.564335,139.303527 144.412775,139.252433 C145.697556,139.241209 146.890244,138.926438 147.958824,138.359643 C148.564927,138.896571 149.228237,139.376565 149.947488,139.791381 C157.096052,143.914143 167.063472,140.037322 172.210396,131.132261 C177.357241,122.227154 175.734569,111.665981 168.586028,107.543178 C162.045865,103.771296 153.146242,106.695283 147.737296,114.039715 Z" id="Combined-Shape" fill="#E1E5F0" fill-rule="nonzero"></path>
                            <path d="M113.435232,64.6875 C112.969832,64.6875 112.592551,64.308917 112.592551,63.8419118 C112.592551,63.8119716 112.594135,63.7820526 112.597298,63.7522815 L113.720152,53.1824286 C113.751831,52.8842256 113.935466,52.6359689 114.188807,52.5118632 C114.185148,52.4834552 114.183311,52.4549902 114.183311,52.4264706 C114.183311,49.6244377 131.91553,47.3529412 153.78933,47.3529412 C175.66313,47.3529412 193.395349,49.6244377 193.395349,52.4264706 C193.395349,52.6178166 193.312658,52.8066889 193.151605,52.9925327 C193.17074,53.0474613 193.184451,53.1051097 193.192063,53.1648805 L194.538044,63.7347335 C194.597033,64.1979721 194.270616,64.621487 193.808969,64.6806799 C193.773546,64.685222 193.737871,64.6875 193.702159,64.6875 L200.97948,64.6875 C201.44488,64.6875 201.822161,65.066083 201.822161,65.5330882 L201.822161,74.4117647 C201.822161,74.87877 201.44488,75.2573529 200.97948,75.2573529 L104.071135,75.2573529 C103.605736,75.2573529 103.228454,74.87877 103.228454,74.4117647 L103.228454,65.5330882 C103.228454,65.066083 103.605736,64.6875 104.071135,64.6875 L113.435232,64.6875 Z M114.747229,94.7058824 L192.813061,94.7058824 C195.140061,94.7058824 197.026467,96.5987963 197.026467,98.9338235 C197.026467,99.115811 197.014758,99.2976083 196.991411,99.4780813 L190.209387,151.904552 C189.936826,154.011504 188.148362,155.588235 186.031037,155.588235 L121.32711,155.588235 C119.203676,155.588235 117.412054,154.002647 117.146725,151.888587 L110.566844,99.4621166 C110.276079,97.1453896 111.911989,95.0307861 114.220752,94.739018 C114.395382,94.7169494 114.571219,94.7058824 114.747229,94.7058824 Z M147.897939,113.857822 C145.862195,112.00303 143.455925,110.907796 140.995426,110.929292 C135.146986,110.980386 131.206849,117.321438 132.194885,125.092429 C133.18292,132.86342 138.724978,139.121633 144.573418,139.07054 C145.858199,139.059315 147.050887,138.744544 148.119467,138.17775 C148.72557,138.714677 149.38888,139.194671 150.108131,139.609487 C157.256695,143.732249 167.224115,139.855429 172.371039,130.950367 C177.517884,122.04526 175.895211,111.484088 168.746671,107.361284 C162.206508,103.589402 153.306885,106.513389 147.897939,113.857822 Z" id="Combined-Shape" fill="#D8DEED" fill-rule="nonzero"></path>
                            <ellipse id="Oval" fill="#E1E5F0" fill-rule="nonzero" cx="153.78933" cy="173.768382" rx="30.3365253" ry="5.07352941"></ellipse>
                            <path d="M145.169681,113.803786 C143.849155,112.946227 144.662986,122.334328 141.934361,126.342038 C138.953731,130.719885 133.170551,130.914407 130.358624,133.933131" id="Shape" stroke="#D8DEED" stroke-width="5" stroke-linecap="round" stroke-linejoin="round" transform="translate(137.764152, 123.840940) rotate(-33.000000) translate(-137.764152, -123.840940) "></path>
                            <path d="M173.161535,110.297565 C173.161535,110.297565 165.830768,112.571014 161.684735,117.947998 C157.538701,123.324982 160.244976,126.591126 156.995057,133.242906 C155.899655,135.484922 153.637281,137.759305 150.207934,140.066053" id="Path" stroke="#D8DEED" stroke-width="5" stroke-linecap="round" stroke-linejoin="round"></path>
                        </g>
                    </g>
                    <g id="Active-objects-/-Devices-/-Cash" transform="translate(313.000000, 121.000000)" fill-rule="nonzero">
                        <g id="Cash">
                            <path d="M60.5495495,41.5648855 L88.9189189,41.5648855 C91.7251225,41.5648855 94,43.8205501 94,46.6030534 L94,55 L22.018018,55 L0,55 L0,0 L55.4684685,0 C58.2746721,0 60.5495495,2.25566462 60.5495495,5.03816794 L60.5495495,41.5648855 Z" id="Cash-Machine" fill="#474961"></path>
                            <path d="M60.5495495,41.5648855 L88.9189189,41.5648855 C91.7251225,41.5648855 94,43.8205501 94,46.6030534 L94,55 L60.5495495,55 L60.5495495,41.5648855 Z" id="Shadow" fill="#444444" opacity="0.176985679"></path>
                        </g>
                    </g>
                </g>
            </g>
        </g>
    </g>
</svg>